<?xml version="1.0" encoding="UTF-8" standalone="no"?>
<!DOCTYPE svg PUBLIC "-//W3C//DTD SVG 1.1//EN"
 "http://www.w3.org/Graphics/SVG/1.1/DTD/svg11.dtd">
<!-- Generated by graphviz version 15.1.0 (20260618.0150)
 -->
<!-- Title: G Pages: 1 -->
<svg width="2479pt" height="1375pt"
 viewBox="0.00 0.00 2479.00 1375.00" xmlns="http://www.w3.org/2000/svg" xmlns:xlink="http://www.w3.org/1999/xlink">
<g id="graph0" class="graph" transform="scale(1 1) rotate(0) translate(4 1371.43)">
<title>G</title>
<polygon fill="white" stroke="none" points="-4,4 -4,-1371.43 2475,-1371.43 2475,4 -4,4"/>
<text xml:space="preserve" text-anchor="middle" x="1235.5" y="-1352.03" font-family="Helvetica,sans-Serif" font-size="12.00">GRACE CrossLinks (knowledge&#45;graph)</text>
<g id="clust1" class="cluster">
<title>cluster_module</title>
<path fill="#e8f1ff" stroke="black" d="M20,-8C20,-8 2451,-8 2451,-8 2457,-8 2463,-14 2463,-20 2463,-20 2463,-1273 2463,-1273 2463,-1279 2457,-1285 2451,-1285 2451,-1285 20,-1285 20,-1285 14,-1285 8,-1279 8,-1273 8,-1273 8,-20 8,-20 8,-14 14,-8 20,-8"/>
<text xml:space="preserve" text-anchor="middle" x="1235.5" y="-1269.6" font-family="Helvetica,sans-Serif" font-size="12.00">module</text>
</g>
<!-- M_BACKENDS -->
<g id="node1" class="node">
<title>M_BACKENDS</title>
<path fill="#e8f1ff" stroke="black" d="M2189.62,-290C2189.62,-290 2130.12,-290 2130.12,-290 2124.12,-290 2118.12,-284 2118.12,-278 2118.12,-278 2118.12,-266 2118.12,-266 2118.12,-260 2124.12,-254 2130.12,-254 2130.12,-254 2189.62,-254 2189.62,-254 2195.62,-254 2201.62,-260 2201.62,-266 2201.62,-266 2201.62,-278 2201.62,-278 2201.62,-284 2195.62,-290 2189.62,-290"/>
<text xml:space="preserve" text-anchor="middle" x="2159.88" y="-268.5" font-family="Helvetica,sans-Serif" font-size="10.00">M&#45;BACKENDS</text>
</g>
<!-- M_CLI -->
<g id="node2" class="node">
<title>M_CLI</title>
<path fill="#e8f1ff" stroke="black" d="M1005.38,-936C1005.38,-936 975.38,-936 975.38,-936 969.38,-936 963.38,-930 963.38,-924 963.38,-924 963.38,-912 963.38,-912 963.38,-906 969.38,-900 975.38,-900 975.38,-900 1005.38,-900 1005.38,-900 1011.38,-900 1017.38,-906 1017.38,-912 1017.38,-912 1017.38,-924 1017.38,-924 1017.38,-930 1011.38,-936 1005.38,-936"/>
<text xml:space="preserve" text-anchor="middle" x="990.38" y="-914.5" font-family="Helvetica,sans-Serif" font-size="10.00">M&#45;CLI</text>
</g>
<!-- M_CONFIG -->
<g id="node3" class="node">
<title>M_CONFIG</title>
<path fill="#e8f1ff" stroke="black" d="M1809.25,-523C1809.25,-523 1767,-523 1767,-523 1761,-523 1755,-517 1755,-511 1755,-511 1755,-499 1755,-499 1755,-493 1761,-487 1767,-487 1767,-487 1809.25,-487 1809.25,-487 1815.25,-487 1821.25,-493 1821.25,-499 1821.25,-499 1821.25,-511 1821.25,-511 1821.25,-517 1815.25,-523 1809.25,-523"/>
<text xml:space="preserve" text-anchor="middle" x="1788.12" y="-501.5" font-family="Helvetica,sans-Serif" font-size="10.00">M&#45;CONFIG</text>
</g>
<!-- M_CLI&#45;&gt;M_CONFIG -->
<g id="edge1" class="edge">
<title>M_CLI&#45;&gt;M_CONFIG</title>
<path fill="none" stroke="#555555" d="M990.88,-899.66C990.61,-848.26 997.69,-702.26 1082.75,-637 1099.57,-624.1 1252.2,-629.48 1273.25,-627 1363.46,-616.37 1404.8,-648.54 1474.25,-590 1491.99,-575.05 1473.84,-555.13 1492.25,-541 1525.44,-515.53 1638.28,-529.54 1679.75,-524 1700.83,-521.18 1724.08,-517.18 1743.54,-513.58"/>
<polygon fill="#555555" stroke="#555555" points="1744.15,-517.02 1753.33,-511.73 1742.85,-510.14 1744.15,-517.02"/>
<text xml:space="preserve" text-anchor="middle" x="1382.75" y="-628.47" font-family="Helvetica,sans-Serif" font-size="9.00">reads config, passes to pipeline</text>
</g>
<!-- M_DEBUG_EXPORT -->
<g id="node4" class="node">
<title>M_DEBUG_EXPORT</title>
<path fill="#e8f1ff" stroke="black" d="M1424.12,-825C1424.12,-825 1341.38,-825 1341.38,-825 1335.38,-825 1329.38,-819 1329.38,-813 1329.38,-813 1329.38,-801 1329.38,-801 1329.38,-795 1335.38,-789 1341.38,-789 1341.38,-789 1424.12,-789 1424.12,-789 1430.12,-789 1436.12,-795 1436.12,-801 1436.12,-801 1436.12,-813 1436.12,-813 1436.12,-819 1430.12,-825 1424.12,-825"/>
<text xml:space="preserve" text-anchor="middle" x="1382.75" y="-803.5" font-family="Helvetica,sans-Serif" font-size="10.00">M&#45;DEBUG&#45;EXPORT</text>
</g>
<!-- M_CLI&#45;&gt;M_DEBUG_EXPORT -->
<g id="edge11" class="edge">
<title>M_CLI&#45;&gt;M_DEBUG_EXPORT</title>
<path fill="none" stroke="#555555" d="M1003.73,-899.74C1019.33,-878.39 1048.33,-844.01 1082.75,-828.5 1158.13,-794.53 1255.09,-794.44 1317.83,-799.26"/>
<polygon fill="#555555" stroke="#555555" points="1317.37,-802.74 1327.62,-800.09 1317.95,-795.76 1317.37,-802.74"/>
<text xml:space="preserve" text-anchor="middle" x="1178" y="-830.45" font-family="Helvetica,sans-Serif" font-size="9.00">orchestrates</text>
</g>
<!-- M_DEDUPE -->
<g id="node5" class="node">
<title>M_DEDUPE</title>
<path fill="#e8f1ff" stroke="black" d="M2182.88,-508C2182.88,-508 2136.88,-508 2136.88,-508 2130.88,-508 2124.88,-502 2124.88,-496 2124.88,-496 2124.88,-484 2124.88,-484 2124.88,-478 2130.88,-472 2136.88,-472 2136.88,-472 2182.88,-472 2182.88,-472 2188.88,-472 2194.88,-478 2194.88,-484 2194.88,-484 2194.88,-496 2194.88,-496 2194.88,-502 2188.88,-508 2182.88,-508"/>
<text xml:space="preserve" text-anchor="middle" x="2159.88" y="-486.5" font-family="Helvetica,sans-Serif" font-size="10.00">M&#45;DEDUPE</text>
</g>
<!-- M_CLI&#45;&gt;M_DEDUPE -->
<g id="edge8" class="edge">
<title>M_CLI&#45;&gt;M_DEDUPE</title>
<path fill="none" stroke="#555555" d="M1017.85,-908.1C1035.92,-901.64 1060.53,-893.42 1082.75,-888 1173.96,-865.73 1198.22,-866.66 1291.25,-854 1372.32,-842.97 1394.33,-851.5 1474.25,-834 1659.29,-793.48 1709.62,-784.79 1878.5,-699 1979.9,-647.49 2083.04,-559.44 2131.07,-515.92"/>
<polygon fill="#555555" stroke="#555555" points="2133.24,-518.68 2138.27,-509.35 2128.52,-513.51 2133.24,-518.68"/>
<text xml:space="preserve" text-anchor="middle" x="1586" y="-831.41" font-family="Helvetica,sans-Serif" font-size="9.00">orchestrates</text>
</g>
<!-- M_DETECT_SLIDES -->
<g id="node8" class="node">
<title>M_DETECT_SLIDES</title>
<path fill="#e8f1ff" stroke="black" d="M1423.75,-475C1423.75,-475 1341.75,-475 1341.75,-475 1335.75,-475 1329.75,-469 1329.75,-463 1329.75,-463 1329.75,-451 1329.75,-451 1329.75,-445 1335.75,-439 1341.75,-439 1341.75,-439 1423.75,-439 1423.75,-439 1429.75,-439 1435.75,-445 1435.75,-451 1435.75,-451 1435.75,-463 1435.75,-463 1435.75,-469 1429.75,-475 1423.75,-475"/>
<text xml:space="preserve" text-anchor="middle" x="1382.75" y="-453.5" font-family="Helvetica,sans-Serif" font-size="10.00">M&#45;DETECT&#45;SLIDES</text>
</g>
<!-- M_CLI&#45;&gt;M_DETECT_SLIDES -->
<g id="edge16" class="edge">
<title>M_CLI&#45;&gt;M_DETECT_SLIDES</title>
<path fill="none" stroke="#555555" d="M993.1,-899.67C999.98,-830.82 1027.76,-589.05 1082.75,-539.5 1146.2,-482.31 1201.88,-560.94 1273.25,-514 1286.24,-505.46 1278.97,-493.54 1291.25,-484 1299.33,-477.72 1308.86,-472.9 1318.64,-469.2"/>
<polygon fill="#555555" stroke="#555555" points="1319.5,-472.6 1327.86,-466.09 1317.26,-465.97 1319.5,-472.6"/>
<text xml:space="preserve" text-anchor="middle" x="1178" y="-541.45" font-family="Helvetica,sans-Serif" font-size="9.00">delegates detect&#45;slides command</text>
</g>
<!-- M_FRAME_FEATURES -->
<g id="node9" class="node">
<title>M_FRAME_FEATURES</title>
<path fill="#e8f1ff" stroke="black" d="M2443,-354C2443,-354 2348.25,-354 2348.25,-354 2342.25,-354 2336.25,-348 2336.25,-342 2336.25,-342 2336.25,-330 2336.25,-330 2336.25,-324 2342.25,-318 2348.25,-318 2348.25,-318 2443,-318 2443,-318 2449,-318 2455,-324 2455,-330 2455,-330 2455,-342 2455,-342 2455,-348 2449,-354 2443,-354"/>
<text xml:space="preserve" text-anchor="middle" x="2395.62" y="-332.5" font-family="Helvetica,sans-Serif" font-size="10.00">M&#45;FRAME&#45;FEATURES</text>
</g>
<!-- M_CLI&#45;&gt;M_FRAME_FEATURES -->
<g id="edge10" class="edge">
<title>M_CLI&#45;&gt;M_FRAME_FEATURES</title>
<path fill="none" stroke="#555555" d="M1011.15,-936.16C1028.59,-953.52 1053.02,-981.36 1064.75,-1011 1081.91,-1054.34 1049.32,-1187.51 1082.75,-1220 1263.65,-1395.83 2029.06,-1364.45 2217.75,-1197 2346.27,-1082.95 2385.55,-503.26 2393.14,-365.43"/>
<polygon fill="#555555" stroke="#555555" points="2396.62,-365.87 2393.66,-355.7 2389.63,-365.5 2396.62,-365.87"/>
<text xml:space="preserve" text-anchor="middle" x="1788.12" y="-1336.63" font-family="Helvetica,sans-Serif" font-size="9.00">orchestrates via slide_detector</text>
</g>
<!-- M_LLM_CLIENT -->
<g id="node23" class="node">
<title>M_LLM_CLIENT</title>
<path fill="#e8f1ff" stroke="black" d="M2190.38,-1188C2190.38,-1188 2129.38,-1188 2129.38,-1188 2123.38,-1188 2117.38,-1182 2117.38,-1176 2117.38,-1176 2117.38,-1164 2117.38,-1164 2117.38,-1158 2123.38,-1152 2129.38,-1152 2129.38,-1152 2190.38,-1152 2190.38,-1152 2196.38,-1152 2202.38,-1158 2202.38,-1164 2202.38,-1164 2202.38,-1176 2202.38,-1176 2202.38,-1182 2196.38,-1188 2190.38,-1188"/>
<text xml:space="preserve" text-anchor="middle" x="2159.88" y="-1166.5" font-family="Helvetica,sans-Serif" font-size="10.00">M&#45;LLM&#45;CLIENT</text>
</g>
<!-- M_CLI&#45;&gt;M_LLM_CLIENT -->
<g id="edge13" class="edge">
<title>M_CLI&#45;&gt;M_LLM_CLIENT</title>
<path fill="none" stroke="#555555" d="M1011.07,-936.2C1028.46,-953.57 1052.85,-981.43 1064.75,-1011 1080.17,-1049.32 1054.22,-1166.13 1082.75,-1196 1147.41,-1263.7 1197.87,-1219.32 1291.25,-1226 1467.2,-1238.59 1909.14,-1208.29 2084,-1185 2091.07,-1184.06 2098.48,-1182.85 2105.77,-1181.53"/>
<polygon fill="#555555" stroke="#555555" points="2106.4,-1184.97 2115.57,-1179.66 2105.09,-1178.09 2106.4,-1184.97"/>
<text xml:space="preserve" text-anchor="middle" x="1586" y="-1229.43" font-family="Helvetica,sans-Serif" font-size="9.00">orchestrates for llm&#45;process</text>
</g>
<!-- M_LLM_ORCHESTRATOR -->
<g id="node24" class="node">
<title>M_LLM_ORCHESTRATOR</title>
<path fill="#e8f1ff" stroke="black" d="M1437.25,-1168C1437.25,-1168 1328.25,-1168 1328.25,-1168 1322.25,-1168 1316.25,-1162 1316.25,-1156 1316.25,-1156 1316.25,-1144 1316.25,-1144 1316.25,-1138 1322.25,-1132 1328.25,-1132 1328.25,-1132 1437.25,-1132 1437.25,-1132 1443.25,-1132 1449.25,-1138 1449.25,-1144 1449.25,-1144 1449.25,-1156 1449.25,-1156 1449.25,-1162 1443.25,-1168 1437.25,-1168"/>
<text xml:space="preserve" text-anchor="middle" x="1382.75" y="-1146.5" font-family="Helvetica,sans-Serif" font-size="10.00">M&#45;LLM&#45;ORCHESTRATOR</text>
</g>
<!-- M_CLI&#45;&gt;M_LLM_ORCHESTRATOR -->
<g id="edge14" class="edge">
<title>M_CLI&#45;&gt;M_LLM_ORCHESTRATOR</title>
<path fill="none" stroke="#555555" d="M994.64,-936.29C1002.43,-974.18 1025.89,-1061.2 1082.75,-1103 1146.75,-1150.05 1239.43,-1157.93 1304.6,-1156.48"/>
<polygon fill="#555555" stroke="#555555" points="1304.63,-1159.98 1314.51,-1156.17 1304.41,-1152.99 1304.63,-1159.98"/>
<text xml:space="preserve" text-anchor="middle" x="1178" y="-1158.33" font-family="Helvetica,sans-Serif" font-size="9.00">orchestrates for llm&#45;process</text>
</g>
<!-- M_MD_EXPORT -->
<g id="node25" class="node">
<title>M_MD_EXPORT</title>
<path fill="#e8f1ff" stroke="black" d="M1414,-724C1414,-724 1351.5,-724 1351.5,-724 1345.5,-724 1339.5,-718 1339.5,-712 1339.5,-712 1339.5,-700 1339.5,-700 1339.5,-694 1345.5,-688 1351.5,-688 1351.5,-688 1414,-688 1414,-688 1420,-688 1426,-694 1426,-700 1426,-700 1426,-712 1426,-712 1426,-718 1420,-724 1414,-724"/>
<text xml:space="preserve" text-anchor="middle" x="1382.75" y="-702.5" font-family="Helvetica,sans-Serif" font-size="10.00">M&#45;MD&#45;EXPORT</text>
</g>
<!-- M_CLI&#45;&gt;M_MD_EXPORT -->
<g id="edge6" class="edge">
<title>M_CLI&#45;&gt;M_MD_EXPORT</title>
<path fill="none" stroke="#555555" d="M998.46,-899.97C1010.92,-870.66 1039.61,-812.9 1082.75,-782.5 1156.96,-730.19 1263.93,-713.61 1327.78,-708.38"/>
<polygon fill="#555555" stroke="#555555" points="1327.96,-711.88 1337.67,-707.64 1327.44,-704.9 1327.96,-711.88"/>
<text xml:space="preserve" text-anchor="middle" x="1178" y="-784.45" font-family="Helvetica,sans-Serif" font-size="9.00">orchestrates</text>
</g>
<!-- M_NOTES -->
<g id="node27" class="node">
<title>M_NOTES</title>
<path fill="#e8f1ff" stroke="black" d="M1401.62,-1047C1401.62,-1047 1363.88,-1047 1363.88,-1047 1357.88,-1047 1351.88,-1041 1351.88,-1035 1351.88,-1035 1351.88,-1023 1351.88,-1023 1351.88,-1017 1357.88,-1011 1363.88,-1011 1363.88,-1011 1401.62,-1011 1401.62,-1011 1407.62,-1011 1413.62,-1017 1413.62,-1023 1413.62,-1023 1413.62,-1035 1413.62,-1035 1413.62,-1041 1407.62,-1047 1401.62,-1047"/>
<text xml:space="preserve" text-anchor="middle" x="1382.75" y="-1025.5" font-family="Helvetica,sans-Serif" font-size="10.00">M&#45;NOTES</text>
</g>
<!-- M_CLI&#45;&gt;M_NOTES -->
<g id="edge17" class="edge">
<title>M_CLI&#45;&gt;M_NOTES</title>
<path fill="none" stroke="#555555" d="M1009.53,-936.23C1026.8,-952.39 1054.29,-975.2 1082.75,-987 1169.27,-1022.89 1280.68,-1029.14 1340.09,-1029.64"/>
<polygon fill="#555555" stroke="#555555" points="1340.07,-1033.14 1350.08,-1029.67 1340.09,-1026.14 1340.07,-1033.14"/>
<text xml:space="preserve" text-anchor="middle" x="1178" y="-1028.71" font-family="Helvetica,sans-Serif" font-size="9.00">delegates notes command</text>
</g>
<!-- M_NOTES_PROCESSOR -->
<g id="node28" class="node">
<title>M_NOTES_PROCESSOR</title>
<path fill="#e8f1ff" stroke="black" d="M1840.75,-992C1840.75,-992 1735.5,-992 1735.5,-992 1729.5,-992 1723.5,-986 1723.5,-980 1723.5,-980 1723.5,-968 1723.5,-968 1723.5,-962 1729.5,-956 1735.5,-956 1735.5,-956 1840.75,-956 1840.75,-956 1846.75,-956 1852.75,-962 1852.75,-968 1852.75,-968 1852.75,-980 1852.75,-980 1852.75,-986 1846.75,-992 1840.75,-992"/>
<text xml:space="preserve" text-anchor="middle" x="1788.12" y="-970.5" font-family="Helvetica,sans-Serif" font-size="10.00">M&#45;NOTES&#45;PROCESSOR</text>
</g>
<!-- M_CLI&#45;&gt;M_NOTES_PROCESSOR -->
<g id="edge12" class="edge">
<title>M_CLI&#45;&gt;M_NOTES_PROCESSOR</title>
<path fill="none" stroke="#555555" d="M1017.52,-925.61C1035.66,-930.56 1060.48,-936.69 1082.75,-940 1309.92,-973.73 1582.38,-976.28 1711.77,-975.24"/>
<polygon fill="#555555" stroke="#555555" points="1711.61,-978.74 1721.58,-975.15 1711.55,-971.74 1711.61,-978.74"/>
<text xml:space="preserve" text-anchor="middle" x="1382.75" y="-973.8" font-family="Helvetica,sans-Serif" font-size="9.00">orchestrates for notes</text>
</g>
<!-- M_PPTX_EXPORT -->
<g id="node30" class="node">
<title>M_PPTX_EXPORT</title>
<path fill="#e8f1ff" stroke="black" d="M1419.25,-899C1419.25,-899 1346.25,-899 1346.25,-899 1340.25,-899 1334.25,-893 1334.25,-887 1334.25,-887 1334.25,-875 1334.25,-875 1334.25,-869 1340.25,-863 1346.25,-863 1346.25,-863 1419.25,-863 1419.25,-863 1425.25,-863 1431.25,-869 1431.25,-875 1431.25,-875 1431.25,-887 1431.25,-887 1431.25,-893 1425.25,-899 1419.25,-899"/>
<text xml:space="preserve" text-anchor="middle" x="1382.75" y="-877.5" font-family="Helvetica,sans-Serif" font-size="10.00">M&#45;PPTX&#45;EXPORT</text>
</g>
<!-- M_CLI&#45;&gt;M_PPTX_EXPORT -->
<g id="edge7" class="edge">
<title>M_CLI&#45;&gt;M_PPTX_EXPORT</title>
<path fill="none" stroke="#555555" d="M1017.59,-915.51C1079.54,-909.64 1236.19,-894.8 1322.48,-886.62"/>
<polygon fill="#555555" stroke="#555555" points="1322.78,-890.1 1332.41,-885.68 1322.12,-883.14 1322.78,-890.1"/>
<text xml:space="preserve" text-anchor="middle" x="1178" y="-911.01" font-family="Helvetica,sans-Serif" font-size="9.00">orchestrates</text>
</g>
<!-- M_PROJECT -->
<g id="node31" class="node">
<title>M_PROJECT</title>
<path fill="#e8f1ff" stroke="black" d="M1408,-529C1408,-529 1357.5,-529 1357.5,-529 1351.5,-529 1345.5,-523 1345.5,-517 1345.5,-517 1345.5,-505 1345.5,-505 1345.5,-499 1351.5,-493 1357.5,-493 1357.5,-493 1408,-493 1408,-493 1414,-493 1420,-499 1420,-505 1420,-505 1420,-517 1420,-517 1420,-523 1414,-529 1408,-529"/>
<text xml:space="preserve" text-anchor="middle" x="1382.75" y="-507.5" font-family="Helvetica,sans-Serif" font-size="10.00">M&#45;PROJECT</text>
</g>
<!-- M_CLI&#45;&gt;M_PROJECT -->
<g id="edge19" class="edge">
<title>M_CLI&#45;&gt;M_PROJECT</title>
<path fill="none" stroke="#555555" d="M990.66,-899.84C989.66,-846.7 994.66,-690.64 1082.75,-616.5 1148.02,-561.57 1206.6,-646.24 1273.25,-593 1291.7,-578.26 1274.5,-559.65 1291.25,-543 1302.85,-531.46 1318.86,-524.07 1334.2,-519.34"/>
<polygon fill="#555555" stroke="#555555" points="1334.99,-522.75 1343.71,-516.74 1333.14,-516 1334.99,-522.75"/>
<text xml:space="preserve" text-anchor="middle" x="1178" y="-618.45" font-family="Helvetica,sans-Serif" font-size="9.00">delegates project subcommands</text>
</g>
<!-- M_ROI -->
<g id="node32" class="node">
<title>M_ROI</title>
<path fill="#e8f1ff" stroke="black" d="M2174.88,-857C2174.88,-857 2144.88,-857 2144.88,-857 2138.88,-857 2132.88,-851 2132.88,-845 2132.88,-845 2132.88,-833 2132.88,-833 2132.88,-827 2138.88,-821 2144.88,-821 2144.88,-821 2174.88,-821 2174.88,-821 2180.88,-821 2186.88,-827 2186.88,-833 2186.88,-833 2186.88,-845 2186.88,-845 2186.88,-851 2180.88,-857 2174.88,-857"/>
<text xml:space="preserve" text-anchor="middle" x="2159.88" y="-835.5" font-family="Helvetica,sans-Serif" font-size="10.00">M&#45;ROI</text>
</g>
<!-- M_CLI&#45;&gt;M_ROI -->
<g id="edge9" class="edge">
<title>M_CLI&#45;&gt;M_ROI</title>
<path fill="none" stroke="#555555" d="M1008.74,-936.32C1024.96,-954.23 1048.99,-982.82 1064.75,-1011 1076.08,-1031.25 1064.86,-1045.23 1082.75,-1060 1155.15,-1119.78 1197.67,-1086.42 1291.25,-1094 1421.46,-1104.55 1757.5,-1116.25 1878.5,-1067 1990.1,-1021.58 2092.05,-915.99 2136.02,-866.07"/>
<polygon fill="#555555" stroke="#555555" points="2138.62,-868.41 2142.55,-858.57 2133.34,-863.81 2138.62,-868.41"/>
<text xml:space="preserve" text-anchor="middle" x="1586" y="-1105.26" font-family="Helvetica,sans-Serif" font-size="9.00">orchestrates</text>
</g>
<!-- M_ROI_TOOL -->
<g id="node33" class="node">
<title>M_ROI_TOOL</title>
<path fill="#e8f1ff" stroke="black" d="M1408,-374C1408,-374 1357.5,-374 1357.5,-374 1351.5,-374 1345.5,-368 1345.5,-362 1345.5,-362 1345.5,-350 1345.5,-350 1345.5,-344 1351.5,-338 1357.5,-338 1357.5,-338 1408,-338 1408,-338 1414,-338 1420,-344 1420,-350 1420,-350 1420,-362 1420,-362 1420,-368 1414,-374 1408,-374"/>
<text xml:space="preserve" text-anchor="middle" x="1382.75" y="-352.5" font-family="Helvetica,sans-Serif" font-size="10.00">M&#45;ROI&#45;TOOL</text>
</g>
<!-- M_CLI&#45;&gt;M_ROI_TOOL -->
<g id="edge18" class="edge">
<title>M_CLI&#45;&gt;M_ROI_TOOL</title>
<path fill="none" stroke="#555555" d="M994.9,-899.79C1006.21,-840.96 1042.16,-650.63 1064.75,-492 1069.78,-456.69 1056.15,-356.27 1082.75,-332.5 1118.71,-300.37 1259.18,-327.04 1334.09,-344.24"/>
<polygon fill="#555555" stroke="#555555" points="1333.08,-347.6 1343.61,-346.46 1334.67,-340.78 1333.08,-347.6"/>
<text xml:space="preserve" text-anchor="middle" x="1178" y="-334.45" font-family="Helvetica,sans-Serif" font-size="9.00">delegates roi&#45;tool command</text>
</g>
<!-- M_SEGMENTER -->
<g id="node34" class="node">
<title>M_SEGMENTER</title>
<path fill="#e8f1ff" stroke="black" d="M1821.62,-577C1821.62,-577 1754.62,-577 1754.62,-577 1748.62,-577 1742.62,-571 1742.62,-565 1742.62,-565 1742.62,-553 1742.62,-553 1742.62,-547 1748.62,-541 1754.62,-541 1754.62,-541 1821.62,-541 1821.62,-541 1827.62,-541 1833.62,-547 1833.62,-553 1833.62,-553 1833.62,-565 1833.62,-565 1833.62,-571 1827.62,-577 1821.62,-577"/>
<text xml:space="preserve" text-anchor="middle" x="1788.12" y="-555.5" font-family="Helvetica,sans-Serif" font-size="10.00">M&#45;SEGMENTER</text>
</g>
<!-- M_CLI&#45;&gt;M_SEGMENTER -->
<g id="edge4" class="edge">
<title>M_CLI&#45;&gt;M_SEGMENTER</title>
<path fill="none" stroke="#555555" d="M993.84,-899.8C1000.35,-859.24 1021.88,-761.17 1082.75,-712 1156.39,-652.51 1197.29,-679.97 1291.25,-668.5 1312.69,-665.88 1662.75,-667.33 1679.75,-654 1702.67,-636.03 1677.84,-612.25 1697.75,-591 1706.9,-581.23 1719.25,-574.43 1731.84,-569.71"/>
<polygon fill="#555555" stroke="#555555" points="1732.58,-573.16 1740.97,-566.69 1730.38,-566.51 1732.58,-573.16"/>
<text xml:space="preserve" text-anchor="middle" x="1382.75" y="-670.45" font-family="Helvetica,sans-Serif" font-size="9.00">orchestrates</text>
</g>
<!-- M_SLIDE_ANALYZER -->
<g id="node35" class="node">
<title>M_SLIDE_ANALYZER</title>
<path fill="#e8f1ff" stroke="black" d="M1832.12,-1188C1832.12,-1188 1744.12,-1188 1744.12,-1188 1738.12,-1188 1732.12,-1182 1732.12,-1176 1732.12,-1176 1732.12,-1164 1732.12,-1164 1732.12,-1158 1738.12,-1152 1744.12,-1152 1744.12,-1152 1832.12,-1152 1832.12,-1152 1838.12,-1152 1844.12,-1158 1844.12,-1164 1844.12,-1164 1844.12,-1176 1844.12,-1176 1844.12,-1182 1838.12,-1188 1832.12,-1188"/>
<text xml:space="preserve" text-anchor="middle" x="1788.12" y="-1166.5" font-family="Helvetica,sans-Serif" font-size="10.00">M&#45;SLIDE&#45;ANALYZER</text>
</g>
<!-- M_CLI&#45;&gt;M_SLIDE_ANALYZER -->
<g id="edge15" class="edge">
<title>M_CLI&#45;&gt;M_SLIDE_ANALYZER</title>
<path fill="none" stroke="#555555" d="M998.11,-936.36C1011.1,-971.82 1040.47,-1052.2 1064.75,-1120 1072.85,-1142.63 1063.33,-1156.84 1082.75,-1171 1182.69,-1243.89 1564.58,-1200.95 1720.37,-1179.73"/>
<polygon fill="#555555" stroke="#555555" points="1720.7,-1183.22 1730.13,-1178.39 1719.75,-1176.28 1720.7,-1183.22"/>
<text xml:space="preserve" text-anchor="middle" x="1382.75" y="-1213.68" font-family="Helvetica,sans-Serif" font-size="9.00">orchestrates for llm&#45;process and notes</text>
</g>
<!-- M_SLIDE_DETECTOR -->
<g id="node36" class="node">
<title>M_SLIDE_DETECTOR</title>
<path fill="#e8f1ff" stroke="black" d="M1833.62,-845C1833.62,-845 1742.62,-845 1742.62,-845 1736.62,-845 1730.62,-839 1730.62,-833 1730.62,-833 1730.62,-821 1730.62,-821 1730.62,-815 1736.62,-809 1742.62,-809 1742.62,-809 1833.62,-809 1833.62,-809 1839.62,-809 1845.62,-815 1845.62,-821 1845.62,-821 1845.62,-833 1845.62,-833 1845.62,-839 1839.62,-845 1833.62,-845"/>
<text xml:space="preserve" text-anchor="middle" x="1788.12" y="-823.5" font-family="Helvetica,sans-Serif" font-size="10.00">M&#45;SLIDE&#45;DETECTOR</text>
</g>
<!-- M_CLI&#45;&gt;M_SLIDE_DETECTOR -->
<g id="edge3" class="edge">
<title>M_CLI&#45;&gt;M_SLIDE_DETECTOR</title>
<path fill="none" stroke="#555555" d="M1017.74,-920.19C1035.98,-921.59 1060.82,-923.28 1082.75,-924 1167.37,-926.78 1188.65,-927.36 1273.25,-924 1362.8,-920.44 1385.87,-922.84 1474.25,-908 1559.99,-893.6 1656.56,-866.96 1719.44,-848.17"/>
<polygon fill="#555555" stroke="#555555" points="1720.37,-851.54 1728.94,-845.31 1718.36,-844.84 1720.37,-851.54"/>
<text xml:space="preserve" text-anchor="middle" x="1382.75" y="-925.22" font-family="Helvetica,sans-Serif" font-size="9.00">orchestrates</text>
</g>
<!-- M_SUBTITLES -->
<g id="node37" class="node">
<title>M_SUBTITLES</title>
<path fill="#e8f1ff" stroke="black" d="M1817.12,-1058C1817.12,-1058 1759.12,-1058 1759.12,-1058 1753.12,-1058 1747.12,-1052 1747.12,-1046 1747.12,-1046 1747.12,-1034 1747.12,-1034 1747.12,-1028 1753.12,-1022 1759.12,-1022 1759.12,-1022 1817.12,-1022 1817.12,-1022 1823.12,-1022 1829.12,-1028 1829.12,-1034 1829.12,-1034 1829.12,-1046 1829.12,-1046 1829.12,-1052 1823.12,-1058 1817.12,-1058"/>
<text xml:space="preserve" text-anchor="middle" x="1788.12" y="-1036.5" font-family="Helvetica,sans-Serif" font-size="10.00">M&#45;SUBTITLES</text>
</g>
<!-- M_CLI&#45;&gt;M_SUBTITLES -->
<g id="edge5" class="edge">
<title>M_CLI&#45;&gt;M_SUBTITLES</title>
<path fill="none" stroke="#555555" d="M999.07,-936.49C1011.84,-964.57 1040.29,-1017.19 1082.75,-1041 1140.72,-1073.5 1614.25,-1089.25 1679.75,-1078 1698.63,-1074.76 1718.6,-1068.53 1736.13,-1062.03"/>
<polygon fill="#555555" stroke="#555555" points="1737.2,-1065.37 1745.29,-1058.52 1734.7,-1058.83 1737.2,-1065.37"/>
<text xml:space="preserve" text-anchor="middle" x="1382.75" y="-1081.43" font-family="Helvetica,sans-Serif" font-size="9.00">orchestrates</text>
</g>
<!-- M_VIDEO_DECODE -->
<g id="node38" class="node">
<title>M_VIDEO_DECODE</title>
<path fill="#e8f1ff" stroke="black" d="M1828.75,-327C1828.75,-327 1747.5,-327 1747.5,-327 1741.5,-327 1735.5,-321 1735.5,-315 1735.5,-315 1735.5,-303 1735.5,-303 1735.5,-297 1741.5,-291 1747.5,-291 1747.5,-291 1828.75,-291 1828.75,-291 1834.75,-291 1840.75,-297 1840.75,-303 1840.75,-303 1840.75,-315 1840.75,-315 1840.75,-321 1834.75,-327 1828.75,-327"/>
<text xml:space="preserve" text-anchor="middle" x="1788.12" y="-305.5" font-family="Helvetica,sans-Serif" font-size="10.00">M&#45;VIDEO&#45;DECODE</text>
</g>
<!-- M_CLI&#45;&gt;M_VIDEO_DECODE -->
<g id="edge2" class="edge">
<title>M_CLI&#45;&gt;M_VIDEO_DECODE</title>
<path fill="none" stroke="#555555" d="M994.46,-899.54C1009.36,-810.69 1073.47,-431.14 1082.75,-423 1098.68,-409.02 1252.16,-415.12 1273.25,-413 1363.12,-403.96 1405.25,-441.28 1474.25,-383 1493.9,-366.4 1471.84,-343.65 1492.25,-328 1508.81,-315.31 1658.94,-319.43 1679.75,-318 1694.03,-317.02 1709.38,-315.82 1723.86,-314.62"/>
<polygon fill="#555555" stroke="#555555" points="1724.09,-318.12 1733.76,-313.79 1723.5,-311.14 1724.09,-318.12"/>
<text xml:space="preserve" text-anchor="middle" x="1382.75" y="-418.51" font-family="Helvetica,sans-Serif" font-size="9.00">orchestrates</text>
</g>
<!-- M_MODELS -->
<g id="node26" class="node">
<title>M_MODELS</title>
<path fill="#e8f1ff" stroke="black" d="M1810.75,-690C1810.75,-690 1765.5,-690 1765.5,-690 1759.5,-690 1753.5,-684 1753.5,-678 1753.5,-678 1753.5,-666 1753.5,-666 1753.5,-660 1759.5,-654 1765.5,-654 1765.5,-654 1810.75,-654 1810.75,-654 1816.75,-654 1822.75,-660 1822.75,-666 1822.75,-666 1822.75,-678 1822.75,-678 1822.75,-684 1816.75,-690 1810.75,-690"/>
<text xml:space="preserve" text-anchor="middle" x="1788.12" y="-668.5" font-family="Helvetica,sans-Serif" font-size="10.00">M&#45;MODELS</text>
</g>
<!-- M_DEBUG_EXPORT&#45;&gt;M_MODELS -->
<g id="edge31" class="edge">
<title>M_DEBUG_EXPORT&#45;&gt;M_MODELS</title>
<path fill="none" stroke="#555555" d="M1436.33,-797.35C1450.16,-792.6 1464.04,-785.53 1474.25,-775 1492.59,-756.07 1471.98,-735.35 1492.25,-718.5 1524.54,-691.66 1638.35,-702.02 1679.75,-695 1700.39,-691.5 1723.09,-686.77 1742.27,-682.51"/>
<polygon fill="#555555" stroke="#555555" points="1742.95,-685.95 1751.94,-680.33 1741.42,-679.12 1742.95,-685.95"/>
<text xml:space="preserve" text-anchor="middle" x="1586" y="-720.45" font-family="Helvetica,sans-Serif" font-size="9.00">reads SlideSegment</text>
</g>
<!-- M_DEDUPE&#45;&gt;M_FRAME_FEATURES -->
<g id="edge27" class="edge">
<title>M_DEDUPE&#45;&gt;M_FRAME_FEATURES</title>
<path fill="none" stroke="#555555" d="M2188.61,-471.73C2230.49,-444.13 2309.99,-391.76 2357.04,-360.76"/>
<polygon fill="#555555" stroke="#555555" points="2358.88,-363.74 2365.3,-355.32 2355.03,-357.9 2358.88,-363.74"/>
<text xml:space="preserve" text-anchor="middle" x="2277" y="-442.14" font-family="Helvetica,sans-Serif" font-size="9.00">uses for comparison</text>
</g>
<!-- M_DETECT_METRICS -->
<g id="node6" class="node">
<title>M_DETECT_METRICS</title>
<path fill="#e8f1ff" stroke="black" d="M2205.75,-422C2205.75,-422 2114,-422 2114,-422 2108,-422 2102,-416 2102,-410 2102,-410 2102,-398 2102,-398 2102,-392 2108,-386 2114,-386 2114,-386 2205.75,-386 2205.75,-386 2211.75,-386 2217.75,-392 2217.75,-398 2217.75,-398 2217.75,-410 2217.75,-410 2217.75,-416 2211.75,-422 2205.75,-422"/>
<text xml:space="preserve" text-anchor="middle" x="2159.88" y="-400.5" font-family="Helvetica,sans-Serif" font-size="10.00">M&#45;DETECT&#45;METRICS</text>
</g>
<!-- M_DETECT_PERF_DECISION -->
<g id="node7" class="node">
<title>M_DETECT_PERF_DECISION</title>
<path fill="#e8f1ff" stroke="black" d="M1850.88,-422C1850.88,-422 1725.38,-422 1725.38,-422 1719.38,-422 1713.38,-416 1713.38,-410 1713.38,-410 1713.38,-398 1713.38,-398 1713.38,-392 1719.38,-386 1725.38,-386 1725.38,-386 1850.88,-386 1850.88,-386 1856.88,-386 1862.88,-392 1862.88,-398 1862.88,-398 1862.88,-410 1862.88,-410 1862.88,-416 1856.88,-422 1850.88,-422"/>
<text xml:space="preserve" text-anchor="middle" x="1788.12" y="-400.5" font-family="Helvetica,sans-Serif" font-size="10.00">M&#45;DETECT&#45;PERF&#45;DECISION</text>
</g>
<!-- M_DETECT_PERF_DECISION&#45;&gt;M_DETECT_METRICS -->
<g id="edge42" class="edge">
<title>M_DETECT_PERF_DECISION&#45;&gt;M_DETECT_METRICS</title>
<path fill="none" stroke="#555555" d="M1863.06,-404C1929.36,-404 2025.88,-404 2090.44,-404"/>
<polygon fill="#555555" stroke="#555555" points="2090.2,-407.5 2100.2,-404 2090.2,-400.5 2090.2,-407.5"/>
<text xml:space="preserve" text-anchor="middle" x="1990.25" y="-405.95" font-family="Helvetica,sans-Serif" font-size="9.00">Phase&#45;18 TwoPassDetection: baseline iden…</text>
</g>
<!-- M_DETECT_SLIDES&#45;&gt;M_DEDUPE -->
<g id="edge39" class="edge">
<title>M_DETECT_SLIDES&#45;&gt;M_DEDUPE</title>
<path fill="none" stroke="#555555" d="M1436.14,-457.1C1526.49,-457.5 1717.4,-459.33 1878.5,-467.5 1961.37,-471.7 2057.75,-480.24 2113.2,-485.5"/>
<polygon fill="#555555" stroke="#555555" points="2112.59,-488.96 2122.88,-486.43 2113.26,-481.99 2112.59,-488.96"/>
<text xml:space="preserve" text-anchor="middle" x="1788.12" y="-469.45" font-family="Helvetica,sans-Serif" font-size="9.00">deduplicates</text>
</g>
<!-- M_DETECT_SLIDES&#45;&gt;M_DETECT_PERF_DECISION -->
<g id="edge41" class="edge">
<title>M_DETECT_SLIDES&#45;&gt;M_DETECT_PERF_DECISION</title>
<path fill="none" stroke="#555555" d="M1436.17,-449.96C1453.97,-447.58 1473.97,-444.91 1492.25,-442.5 1562.81,-433.18 1642.9,-422.73 1701.78,-415.07"/>
<polygon fill="#555555" stroke="#555555" points="1701.92,-418.58 1711.39,-413.82 1701.02,-411.64 1701.92,-418.58"/>
<text xml:space="preserve" text-anchor="middle" x="1586" y="-444.45" font-family="Helvetica,sans-Serif" font-size="9.00">Phase&#45;18 TwoPassDetection: 3&#45;to&#45;2 passes…</text>
</g>
<!-- M_DETECT_SLIDES&#45;&gt;M_ROI -->
<g id="edge40" class="edge">
<title>M_DETECT_SLIDES&#45;&gt;M_ROI</title>
<path fill="none" stroke="#555555" d="M1435.97,-462.62C1450.13,-466.56 1464.27,-473.13 1474.25,-484 1500.95,-513.09 1462.37,-545.18 1492.25,-571 1508.04,-584.65 1659.14,-578.71 1679.75,-582 1691.03,-583.8 1868.26,-629.45 1878.5,-634.5 1991.06,-689.96 1997.38,-737.72 2102,-807 2108.54,-811.33 2115.7,-815.66 2122.66,-819.67"/>
<polygon fill="#555555" stroke="#555555" points="2120.89,-822.68 2131.32,-824.53 2124.32,-816.58 2120.89,-822.68"/>
<text xml:space="preserve" text-anchor="middle" x="1788.12" y="-636.45" font-family="Helvetica,sans-Serif" font-size="9.00">crops and masks</text>
</g>
<!-- M_DETECT_SLIDES&#45;&gt;M_SEGMENTER -->
<g id="edge38" class="edge">
<title>M_DETECT_SLIDES&#45;&gt;M_SEGMENTER</title>
<path fill="none" stroke="#555555" d="M1435.96,-464.48C1449.63,-468.48 1463.52,-474.61 1474.25,-484 1488.92,-496.84 1476.53,-512.47 1492.25,-524 1529.12,-551.05 1656.48,-557.42 1731.22,-558.78"/>
<polygon fill="#555555" stroke="#555555" points="1730.73,-562.27 1740.78,-558.93 1730.84,-555.27 1730.73,-562.27"/>
<text xml:space="preserve" text-anchor="middle" x="1586" y="-558.93" font-family="Helvetica,sans-Serif" font-size="9.00">builds intervals</text>
</g>
<!-- M_DETECT_SLIDES&#45;&gt;M_SLIDE_DETECTOR -->
<g id="edge37" class="edge">
<title>M_DETECT_SLIDES&#45;&gt;M_SLIDE_DETECTOR</title>
<path fill="none" stroke="#555555" d="M1435.96,-462.09C1450.28,-466 1464.53,-472.68 1474.25,-484 1511.97,-527.91 1453.4,-570.08 1492.25,-613 1549.8,-676.57 1613.91,-603.56 1679.75,-658.5 1694.87,-671.12 1688.07,-681.85 1697.75,-699 1718.31,-735.42 1746.55,-774.43 1765.75,-799.68"/>
<polygon fill="#555555" stroke="#555555" points="1762.84,-801.65 1771.7,-807.45 1768.4,-797.39 1762.84,-801.65"/>
<text xml:space="preserve" text-anchor="middle" x="1586" y="-660.45" font-family="Helvetica,sans-Serif" font-size="9.00">uses for change detection</text>
</g>
<!-- M_DETECT_SLIDES&#45;&gt;M_VIDEO_DECODE -->
<g id="edge36" class="edge">
<title>M_DETECT_SLIDES&#45;&gt;M_VIDEO_DECODE</title>
<path fill="none" stroke="#555555" d="M1436.19,-443.53C1449.26,-438.84 1462.8,-432.75 1474.25,-425 1484.29,-418.2 1482.12,-411.16 1492.25,-404.5 1564.25,-357.15 1661.55,-331.67 1724.33,-319.23"/>
<polygon fill="#555555" stroke="#555555" points="1724.61,-322.74 1733.77,-317.41 1723.29,-315.86 1724.61,-322.74"/>
<text xml:space="preserve" text-anchor="middle" x="1586" y="-406.45" font-family="Helvetica,sans-Serif" font-size="9.00">uses for frame iteration</text>
</g>
<!-- M_GUI_APPCONFIG -->
<g id="node10" class="node">
<title>M_GUI_APPCONFIG</title>
<path fill="#e8f1ff" stroke="black" d="M1424.5,-253C1424.5,-253 1341,-253 1341,-253 1335,-253 1329,-247 1329,-241 1329,-241 1329,-229 1329,-229 1329,-223 1335,-217 1341,-217 1341,-217 1424.5,-217 1424.5,-217 1430.5,-217 1436.5,-223 1436.5,-229 1436.5,-229 1436.5,-241 1436.5,-241 1436.5,-247 1430.5,-253 1424.5,-253"/>
<text xml:space="preserve" text-anchor="middle" x="1382.75" y="-231.5" font-family="Helvetica,sans-Serif" font-size="10.00">M&#45;GUI&#45;APPCONFIG</text>
</g>
<!-- M_GUI_MAIN -->
<g id="node11" class="node">
<title>M_GUI_MAIN</title>
<path fill="#e8f1ff" stroke="black" d="M688,-320C688,-320 638.25,-320 638.25,-320 632.25,-320 626.25,-314 626.25,-308 626.25,-308 626.25,-296 626.25,-296 626.25,-290 632.25,-284 638.25,-284 638.25,-284 688,-284 688,-284 694,-284 700,-290 700,-296 700,-296 700,-308 700,-308 700,-314 694,-320 688,-320"/>
<text xml:space="preserve" text-anchor="middle" x="663.12" y="-298.5" font-family="Helvetica,sans-Serif" font-size="10.00">M&#45;GUI&#45;MAIN</text>
</g>
<!-- M_GUI_MAIN&#45;&gt;M_BACKENDS -->
<g id="edge52" class="edge">
<title>M_GUI_MAIN&#45;&gt;M_BACKENDS</title>
<path fill="none" stroke="#555555" d="M664.9,-283.8C667.67,-228.75 679.08,-65.87 718,-34 798.16,31.65 1859,-123.14 1878.5,-129 1971.17,-156.83 2069.8,-214.59 2121.79,-247.55"/>
<polygon fill="#555555" stroke="#555555" points="2119.67,-250.34 2129.98,-252.78 2123.44,-244.44 2119.67,-250.34"/>
<text xml:space="preserve" text-anchor="middle" x="1382.75" y="-73.75" font-family="Helvetica,sans-Serif" font-size="9.00">queries available backends</text>
</g>
<!-- M_GUI_MAIN&#45;&gt;M_DETECT_SLIDES -->
<g id="edge50" class="edge">
<title>M_GUI_MAIN&#45;&gt;M_DETECT_SLIDES</title>
<path fill="none" stroke="#555555" d="M670.39,-320.41C678.22,-340.46 693.64,-371.82 718,-388 848.06,-474.4 921.09,-383.33 1064.75,-444.5 1073.95,-448.42 1073.26,-454.84 1082.75,-458 1163.07,-484.77 1188.58,-458.39 1273.25,-458 1287.81,-457.93 1303.47,-457.82 1318.24,-457.68"/>
<polygon fill="#555555" stroke="#555555" points="1317.84,-461.19 1327.81,-457.59 1317.78,-454.19 1317.84,-461.19"/>
<text xml:space="preserve" text-anchor="middle" x="990.38" y="-446.45" font-family="Helvetica,sans-Serif" font-size="9.00">calls via worker</text>
</g>
<!-- M_GUI_MARKER_PANEL -->
<g id="node12" class="node">
<title>M_GUI_MARKER_PANEL</title>
<path fill="#e8f1ff" stroke="black" d="M1041.88,-84C1041.88,-84 938.88,-84 938.88,-84 932.88,-84 926.88,-78 926.88,-72 926.88,-72 926.88,-60 926.88,-60 926.88,-54 932.88,-48 938.88,-48 938.88,-48 1041.88,-48 1041.88,-48 1047.88,-48 1053.88,-54 1053.88,-60 1053.88,-60 1053.88,-72 1053.88,-72 1053.88,-78 1047.88,-84 1041.88,-84"/>
<text xml:space="preserve" text-anchor="middle" x="990.38" y="-62.5" font-family="Helvetica,sans-Serif" font-size="10.00">M&#45;GUI&#45;MARKER&#45;PANEL</text>
</g>
<!-- M_GUI_MAIN&#45;&gt;M_GUI_MARKER_PANEL -->
<g id="edge53" class="edge">
<title>M_GUI_MAIN&#45;&gt;M_GUI_MARKER_PANEL</title>
<path fill="none" stroke="#555555" d="M665.54,-283.84C669.84,-234.09 684.53,-97.53 718,-70.5 773.3,-25.84 857.67,-32.25 917.64,-45.05"/>
<polygon fill="#555555" stroke="#555555" points="916.54,-48.39 927.06,-47.17 918.07,-41.56 916.54,-48.39"/>
<text xml:space="preserve" text-anchor="middle" x="808" y="-72.45" font-family="Helvetica,sans-Serif" font-size="9.00">creates and shows marker panel</text>
</g>
<!-- M_GUI_SETTINGS -->
<g id="node14" class="node">
<title>M_GUI_SETTINGS</title>
<path fill="#e8f1ff" stroke="black" d="M1027.62,-394C1027.62,-394 953.12,-394 953.12,-394 947.12,-394 941.12,-388 941.12,-382 941.12,-382 941.12,-370 941.12,-370 941.12,-364 947.12,-358 953.12,-358 953.12,-358 1027.62,-358 1027.62,-358 1033.62,-358 1039.62,-364 1039.62,-370 1039.62,-370 1039.62,-382 1039.62,-382 1039.62,-388 1033.62,-394 1027.62,-394"/>
<text xml:space="preserve" text-anchor="middle" x="990.38" y="-372.5" font-family="Helvetica,sans-Serif" font-size="10.00">M&#45;GUI&#45;SETTINGS</text>
</g>
<!-- M_GUI_MAIN&#45;&gt;M_GUI_SETTINGS -->
<g id="edge48" class="edge">
<title>M_GUI_MAIN&#45;&gt;M_GUI_SETTINGS</title>
<path fill="none" stroke="#555555" d="M686.72,-320.41C695.92,-326.98 706.96,-333.79 718,-338 787.45,-364.47 873.21,-372.78 929.5,-375.24"/>
<polygon fill="#555555" stroke="#555555" points="929.06,-378.73 939.19,-375.62 929.33,-371.73 929.06,-378.73"/>
<text xml:space="preserve" text-anchor="middle" x="808" y="-375.21" font-family="Helvetica,sans-Serif" font-size="9.00">opens settings dialog</text>
</g>
<!-- M_GUI_SETTINGS_PROJECT -->
<g id="node15" class="node">
<title>M_GUI_SETTINGS_PROJECT</title>
<path fill="#e8f1ff" stroke="black" d="M1052.75,-158C1052.75,-158 928,-158 928,-158 922,-158 916,-152 916,-146 916,-146 916,-134 916,-134 916,-128 922,-122 928,-122 928,-122 1052.75,-122 1052.75,-122 1058.75,-122 1064.75,-128 1064.75,-134 1064.75,-134 1064.75,-146 1064.75,-146 1064.75,-152 1058.75,-158 1052.75,-158"/>
<text xml:space="preserve" text-anchor="middle" x="990.38" y="-136.5" font-family="Helvetica,sans-Serif" font-size="10.00">M&#45;GUI&#45;SETTINGS&#45;PROJECT</text>
</g>
<!-- M_GUI_MAIN&#45;&gt;M_GUI_SETTINGS_PROJECT -->
<g id="edge54" class="edge">
<title>M_GUI_MAIN&#45;&gt;M_GUI_SETTINGS_PROJECT</title>
<path fill="none" stroke="#555555" d="M664.74,-283.53C666.9,-251.29 676.47,-185.23 718,-154.5 770.71,-115.5 846.18,-114.57 904.15,-121.87"/>
<polygon fill="#555555" stroke="#555555" points="903.62,-125.33 914,-123.23 904.57,-118.4 903.62,-125.33"/>
<text xml:space="preserve" text-anchor="middle" x="808" y="-156.45" font-family="Helvetica,sans-Serif" font-size="9.00">opens project settings dialog</text>
</g>
<!-- M_GUI_STATUS -->
<g id="node16" class="node">
<title>M_GUI_STATUS</title>
<path fill="#e8f1ff" stroke="black" d="M1021.62,-340C1021.62,-340 959.12,-340 959.12,-340 953.12,-340 947.12,-334 947.12,-328 947.12,-328 947.12,-316 947.12,-316 947.12,-310 953.12,-304 959.12,-304 959.12,-304 1021.62,-304 1021.62,-304 1027.62,-304 1033.62,-310 1033.62,-316 1033.62,-316 1033.62,-328 1033.62,-328 1033.62,-334 1027.62,-340 1021.62,-340"/>
<text xml:space="preserve" text-anchor="middle" x="990.38" y="-318.5" font-family="Helvetica,sans-Serif" font-size="10.00">M&#45;GUI&#45;STATUS</text>
</g>
<!-- M_GUI_MAIN&#45;&gt;M_GUI_STATUS -->
<g id="edge56" class="edge">
<title>M_GUI_MAIN&#45;&gt;M_GUI_STATUS</title>
<path fill="none" stroke="#555555" d="M700.3,-300.07C746.36,-298.12 828.33,-296.29 898,-303.5 910.33,-304.78 923.45,-306.94 935.8,-309.35"/>
<polygon fill="#555555" stroke="#555555" points="934.89,-312.74 945.39,-311.32 936.29,-305.88 934.89,-312.74"/>
<text xml:space="preserve" text-anchor="middle" x="808" y="-305.45" font-family="Helvetica,sans-Serif" font-size="9.00">uses StatusBarManager for progress displ…</text>
</g>
<!-- M_GUI_SUBTITLE_EDITOR -->
<g id="node17" class="node">
<title>M_GUI_SUBTITLE_EDITOR</title>
<path fill="#e8f1ff" stroke="black" d="M1047.12,-212C1047.12,-212 933.62,-212 933.62,-212 927.62,-212 921.62,-206 921.62,-200 921.62,-200 921.62,-188 921.62,-188 921.62,-182 927.62,-176 933.62,-176 933.62,-176 1047.12,-176 1047.12,-176 1053.12,-176 1059.12,-182 1059.12,-188 1059.12,-188 1059.12,-200 1059.12,-200 1059.12,-206 1053.12,-212 1047.12,-212"/>
<text xml:space="preserve" text-anchor="middle" x="990.38" y="-190.5" font-family="Helvetica,sans-Serif" font-size="10.00">M&#45;GUI&#45;SUBTITLE&#45;EDITOR</text>
</g>
<!-- M_GUI_MAIN&#45;&gt;M_GUI_SUBTITLE_EDITOR -->
<g id="edge57" class="edge">
<title>M_GUI_MAIN&#45;&gt;M_GUI_SUBTITLE_EDITOR</title>
<path fill="none" stroke="#555555" d="M667.64,-283.9C673.42,-259.61 687.5,-217.35 718,-198.5 775.02,-163.25 852.47,-165.79 910.04,-175"/>
<polygon fill="#555555" stroke="#555555" points="909.34,-178.43 919.78,-176.67 910.52,-171.53 909.34,-178.43"/>
<text xml:space="preserve" text-anchor="middle" x="808" y="-200.45" font-family="Helvetica,sans-Serif" font-size="9.00">opens SubtitleEditorDialog on context me…</text>
</g>
<!-- M_GUI_TIMELINE -->
<g id="node19" class="node">
<title>M_GUI_TIMELINE</title>
<path fill="#e8f1ff" stroke="black" d="M1213.38,-592C1213.38,-592 1142.62,-592 1142.62,-592 1136.62,-592 1130.62,-586 1130.62,-580 1130.62,-580 1130.62,-568 1130.62,-568 1130.62,-562 1136.62,-556 1142.62,-556 1142.62,-556 1213.38,-556 1213.38,-556 1219.38,-556 1225.38,-562 1225.38,-568 1225.38,-568 1225.38,-580 1225.38,-580 1225.38,-586 1219.38,-592 1213.38,-592"/>
<text xml:space="preserve" text-anchor="middle" x="1178" y="-570.5" font-family="Helvetica,sans-Serif" font-size="10.00">M&#45;GUI&#45;TIMELINE</text>
</g>
<!-- M_GUI_MAIN&#45;&gt;M_GUI_TIMELINE -->
<g id="edge47" class="edge">
<title>M_GUI_MAIN&#45;&gt;M_GUI_TIMELINE</title>
<path fill="none" stroke="#555555" d="M663.7,-320.47C663.96,-357.01 670.2,-438.53 718,-479 748.79,-505.07 858.43,-494.65 898,-502.5 981.38,-519.04 1000.29,-531.34 1082.75,-552 1094.6,-554.97 1107.33,-558.03 1119.48,-560.89"/>
<polygon fill="#555555" stroke="#555555" points="1118.42,-564.23 1128.95,-563.1 1120.01,-557.42 1118.42,-564.23"/>
<text xml:space="preserve" text-anchor="middle" x="808" y="-504.45" font-family="Helvetica,sans-Serif" font-size="9.00">embeds and populates</text>
</g>
<!-- M_GUI_TIMELINE3 -->
<g id="node20" class="node">
<title>M_GUI_TIMELINE3</title>
<path fill="#e8f1ff" stroke="black" d="M1216,-106C1216,-106 1140,-106 1140,-106 1134,-106 1128,-100 1128,-94 1128,-94 1128,-82 1128,-82 1128,-76 1134,-70 1140,-70 1140,-70 1216,-70 1216,-70 1222,-70 1228,-76 1228,-82 1228,-82 1228,-94 1228,-94 1228,-100 1222,-106 1216,-106"/>
<text xml:space="preserve" text-anchor="middle" x="1178" y="-84.5" font-family="Helvetica,sans-Serif" font-size="10.00">M&#45;GUI&#45;TIMELINE3</text>
</g>
<!-- M_GUI_MAIN&#45;&gt;M_GUI_TIMELINE3 -->
<g id="edge55" class="edge">
<title>M_GUI_MAIN&#45;&gt;M_GUI_TIMELINE3</title>
<path fill="none" stroke="#555555" d="M666.35,-283.55C672.17,-238.72 689.41,-126.06 718,-103.5 733.13,-91.56 1045.49,-93.72 1064.75,-93 1081.46,-92.37 1099.56,-91.61 1116.26,-90.86"/>
<polygon fill="#555555" stroke="#555555" points="1116.21,-94.37 1126.04,-90.42 1115.89,-87.38 1116.21,-94.37"/>
<text xml:space="preserve" text-anchor="middle" x="808" y="-105.45" font-family="Helvetica,sans-Serif" font-size="9.00">embeds TimelineWidget (V3 multi&#45;track)</text>
</g>
<!-- M_GUI_WORKER -->
<g id="node22" class="node">
<title>M_GUI_WORKER</title>
<path fill="#e8f1ff" stroke="black" d="M1025.38,-286C1025.38,-286 955.38,-286 955.38,-286 949.38,-286 943.38,-280 943.38,-274 943.38,-274 943.38,-262 943.38,-262 943.38,-256 949.38,-250 955.38,-250 955.38,-250 1025.38,-250 1025.38,-250 1031.38,-250 1037.38,-256 1037.38,-262 1037.38,-262 1037.38,-274 1037.38,-274 1037.38,-280 1031.38,-286 1025.38,-286"/>
<text xml:space="preserve" text-anchor="middle" x="990.38" y="-264.5" font-family="Helvetica,sans-Serif" font-size="10.00">M&#45;GUI&#45;WORKER</text>
</g>
<!-- M_GUI_MAIN&#45;&gt;M_GUI_WORKER -->
<g id="edge49" class="edge">
<title>M_GUI_MAIN&#45;&gt;M_GUI_WORKER</title>
<path fill="none" stroke="#555555" d="M700.27,-288.08C706.12,-286.27 712.18,-284.64 718,-283.5 790.84,-269.19 876.64,-266.62 931.96,-266.76"/>
<polygon fill="#555555" stroke="#555555" points="931.75,-270.26 941.77,-266.82 931.79,-263.26 931.75,-270.26"/>
<text xml:space="preserve" text-anchor="middle" x="808" y="-285.45" font-family="Helvetica,sans-Serif" font-size="9.00">creates and starts workers</text>
</g>
<!-- M_GUI_MAIN&#45;&gt;M_NOTES -->
<g id="edge51" class="edge">
<title>M_GUI_MAIN&#45;&gt;M_NOTES</title>
<path fill="none" stroke="#555555" d="M665.6,-320.24C675.47,-427.97 742.28,-981.75 1082.75,-1137 1159.79,-1172.13 1206.34,-1188.88 1273.25,-1137 1298.64,-1117.32 1270.25,-1091.31 1291.25,-1067 1303.98,-1052.26 1323.38,-1043.11 1340.96,-1037.49"/>
<polygon fill="#555555" stroke="#555555" points="1341.49,-1040.98 1350.14,-1034.85 1339.56,-1034.25 1341.49,-1040.98"/>
<text xml:space="preserve" text-anchor="middle" x="990.38" y="-1126.75" font-family="Helvetica,sans-Serif" font-size="9.00">calls via worker</text>
</g>
<!-- M_GUI_MAIN&#45;&gt;M_PROJECT -->
<g id="edge46" class="edge">
<title>M_GUI_MAIN&#45;&gt;M_PROJECT</title>
<path fill="none" stroke="#555555" d="M667.72,-320.09C673.66,-345.02 687.97,-389.5 718,-413 815.88,-489.59 1150.72,-459.22 1273.25,-480 1285.17,-482.02 1310.83,-489.3 1334.2,-496.3"/>
<polygon fill="#555555" stroke="#555555" points="1333.03,-499.6 1343.62,-499.14 1335.05,-492.9 1333.03,-499.6"/>
<text xml:space="preserve" text-anchor="middle" x="990.38" y="-471.61" font-family="Helvetica,sans-Serif" font-size="9.00">controls project lifecycle</text>
</g>
<!-- M_GUI_MENUBAR -->
<g id="node13" class="node">
<title>M_GUI_MENUBAR</title>
<path fill="#e8f1ff" stroke="black" d="M423,-504C423,-504 347.75,-504 347.75,-504 341.75,-504 335.75,-498 335.75,-492 335.75,-492 335.75,-480 335.75,-480 335.75,-474 341.75,-468 347.75,-468 347.75,-468 423,-468 423,-468 429,-468 435,-474 435,-480 435,-480 435,-492 435,-492 435,-498 429,-504 423,-504"/>
<text xml:space="preserve" text-anchor="middle" x="385.38" y="-482.5" font-family="Helvetica,sans-Serif" font-size="10.00">M&#45;GUI&#45;MENUBAR</text>
</g>
<!-- M_GUI_MENUBAR&#45;&gt;M_GUI_MAIN -->
<g id="edge77" class="edge">
<title>M_GUI_MENUBAR&#45;&gt;M_GUI_MAIN</title>
<path fill="none" stroke="#555555" d="M414.08,-467.51C463.94,-434.24 568.81,-364.27 624.89,-326.85"/>
<polygon fill="#555555" stroke="#555555" points="626.81,-329.77 633.18,-321.31 622.92,-323.95 626.81,-329.77"/>
<text xml:space="preserve" text-anchor="middle" x="535.5" y="-433.58" font-family="Helvetica,sans-Serif" font-size="9.00">installed in MainWindow menuBar()</text>
</g>
<!-- M_GUI_MENUBAR&#45;&gt;M_PROJECT -->
<g id="edge76" class="edge">
<title>M_GUI_MENUBAR&#45;&gt;M_PROJECT</title>
<path fill="none" stroke="#555555" d="M435.46,-491.25C500.12,-497.88 617.43,-508.91 718,-513 948.52,-522.37 1224.43,-515.86 1333.76,-512.58"/>
<polygon fill="#555555" stroke="#555555" points="1333.63,-516.08 1343.52,-512.28 1333.42,-509.09 1333.63,-516.08"/>
<text xml:space="preserve" text-anchor="middle" x="808" y="-519.27" font-family="Helvetica,sans-Serif" font-size="9.00">sends project lifecycle commands</text>
</g>
<!-- M_GUI_SETTINGS&#45;&gt;M_BACKENDS -->
<g id="edge68" class="edge">
<title>M_GUI_SETTINGS&#45;&gt;M_BACKENDS</title>
<path fill="none" stroke="#555555" d="M1040.09,-365.11C1049.19,-361.25 1057.97,-356.03 1064.75,-349 1082.6,-330.49 1062.33,-309.64 1082.75,-294 1091.79,-287.07 1480.86,-272.8 1492.25,-272.5 1721.03,-266.41 1994.14,-269.43 2106.58,-271.12"/>
<polygon fill="#555555" stroke="#555555" points="2106.34,-274.62 2116.39,-271.27 2106.44,-267.62 2106.34,-274.62"/>
<text xml:space="preserve" text-anchor="middle" x="1586" y="-274.45" font-family="Helvetica,sans-Serif" font-size="9.00">queries available backends</text>
</g>
<!-- M_GUI_SETTINGS&#45;&gt;M_CONFIG -->
<g id="edge67" class="edge">
<title>M_GUI_SETTINGS&#45;&gt;M_CONFIG</title>
<path fill="none" stroke="#555555" d="M1040.02,-363.92C1048.92,-360.17 1057.63,-355.3 1064.75,-349 1077.85,-337.41 1067.82,-323.11 1082.75,-314 1119.89,-291.34 1438.73,-293.38 1474.25,-318.5 1492.68,-331.53 1475.46,-350.91 1492.25,-366 1556.31,-423.57 1618.64,-354.3 1679.75,-415 1701.63,-436.73 1675.83,-460.31 1697.75,-482 1709.87,-493.99 1727.36,-499.99 1743.67,-502.9"/>
<polygon fill="#555555" stroke="#555555" points="1742.79,-506.31 1753.18,-504.25 1743.77,-499.38 1742.79,-506.31"/>
<text xml:space="preserve" text-anchor="middle" x="1382.75" y="-320.45" font-family="Helvetica,sans-Serif" font-size="9.00">reads LlmConfig, DetectionConfig default…</text>
</g>
<!-- M_GUI_SETTINGS&#45;&gt;M_NOTES_PROCESSOR -->
<g id="edge69" class="edge">
<title>M_GUI_SETTINGS&#45;&gt;M_NOTES_PROCESSOR</title>
<path fill="none" stroke="#555555" d="M1033.24,-394.4C1044.43,-400.72 1055.88,-408.61 1064.75,-418 1077.04,-431 1067.78,-444.2 1082.75,-454 1100.48,-465.61 1258.16,-449.12 1273.25,-464 1315.92,-506.06 1251.73,-687.97 1291.25,-733 1345.96,-795.33 1405.52,-723.08 1474.25,-769.5 1486.36,-777.68 1481.61,-786.99 1492.25,-797 1562.13,-862.75 1597.86,-854 1679.75,-904 1703.69,-918.62 1730.08,-935.81 1750.71,-949.5"/>
<polygon fill="#555555" stroke="#555555" points="1748.52,-952.24 1758.79,-954.87 1752.4,-946.42 1748.52,-952.24"/>
<text xml:space="preserve" text-anchor="middle" x="1382.75" y="-771.45" font-family="Helvetica,sans-Serif" font-size="9.00">shows SYSTEM_PROMPT_REPHRASE</text>
</g>
<!-- M_GUI_SETTINGS&#45;&gt;M_PROJECT -->
<g id="edge66" class="edge">
<title>M_GUI_SETTINGS&#45;&gt;M_PROJECT</title>
<path fill="none" stroke="#555555" d="M1033.69,-394.39C1043.87,-398.84 1054.7,-403.58 1064.75,-408 1072.76,-411.53 1074.34,-413.57 1082.75,-416 1164.94,-439.71 1205.04,-391.87 1273.25,-443.5 1288.96,-455.39 1276.46,-470.99 1291.25,-484 1303.24,-494.54 1319.2,-500.97 1334.38,-504.89"/>
<polygon fill="#555555" stroke="#555555" points="1333.22,-508.22 1343.74,-506.99 1334.75,-501.39 1333.22,-508.22"/>
<text xml:space="preserve" text-anchor="middle" x="1178" y="-445.45" font-family="Helvetica,sans-Serif" font-size="9.00">reads/writes project config</text>
</g>
<!-- M_GUI_STATUS&#45;&gt;M_GUI_MAIN -->
<g id="edge64" class="edge">
<title>M_GUI_STATUS&#45;&gt;M_GUI_MAIN</title>
<path fill="none" stroke="#555555" d="M946.88,-323.23C893.3,-324.21 798.45,-324.05 718,-314 715.95,-313.74 713.86,-313.45 711.76,-313.11"/>
<polygon fill="#555555" stroke="#555555" points="712.43,-309.68 701.97,-311.35 711.18,-316.57 712.43,-309.68"/>
<text xml:space="preserve" text-anchor="middle" x="808" y="-325.54" font-family="Helvetica,sans-Serif" font-size="9.00">attached to MainWindow.statusBar()</text>
</g>
<!-- M_GUI_SUBTITLE_OVERLAY -->
<g id="node18" class="node">
<title>M_GUI_SUBTITLE_OVERLAY</title>
<path fill="#e8f1ff" stroke="black" d="M149.75,-320C149.75,-320 28,-320 28,-320 22,-320 16,-314 16,-308 16,-308 16,-296 16,-296 16,-290 22,-284 28,-284 28,-284 149.75,-284 149.75,-284 155.75,-284 161.75,-290 161.75,-296 161.75,-296 161.75,-308 161.75,-308 161.75,-314 155.75,-320 149.75,-320"/>
<text xml:space="preserve" text-anchor="middle" x="88.88" y="-298.5" font-family="Helvetica,sans-Serif" font-size="10.00">M&#45;GUI&#45;SUBTITLE&#45;OVERLAY</text>
</g>
<!-- M_GUI_VIDEOPLAYER -->
<g id="node21" class="node">
<title>M_GUI_VIDEOPLAYER</title>
<path fill="#e8f1ff" stroke="black" d="M432.75,-320C432.75,-320 338,-320 338,-320 332,-320 326,-314 326,-308 326,-308 326,-296 326,-296 326,-290 332,-284 338,-284 338,-284 432.75,-284 432.75,-284 438.75,-284 444.75,-290 444.75,-296 444.75,-296 444.75,-308 444.75,-308 444.75,-314 438.75,-320 432.75,-320"/>
<text xml:space="preserve" text-anchor="middle" x="385.38" y="-298.5" font-family="Helvetica,sans-Serif" font-size="10.00">M&#45;GUI&#45;VIDEOPLAYER</text>
</g>
<!-- M_GUI_SUBTITLE_OVERLAY&#45;&gt;M_GUI_VIDEOPLAYER -->
<g id="edge80" class="edge">
<title>M_GUI_SUBTITLE_OVERLAY&#45;&gt;M_GUI_VIDEOPLAYER</title>
<path fill="none" stroke="#555555" d="M161.86,-289.35C167.9,-288.6 173.92,-287.97 179.75,-287.5 236.57,-282.95 251.25,-282.16 308,-287.5 310.17,-287.7 312.36,-287.94 314.58,-288.2"/>
<polygon fill="#555555" stroke="#555555" points="313.86,-291.64 324.24,-289.52 314.8,-284.7 313.86,-291.64"/>
<text xml:space="preserve" text-anchor="middle" x="243.88" y="-289.45" font-family="Helvetica,sans-Serif" font-size="9.00">positioned over QVideoWidget</text>
</g>
<!-- M_GUI_TIMELINE&#45;&gt;M_MODELS -->
<g id="edge65" class="edge">
<title>M_GUI_TIMELINE&#45;&gt;M_MODELS</title>
<path fill="none" stroke="#555555" d="M1225.62,-568.32C1298.98,-560.44 1436.86,-550.22 1474.25,-579.5 1498.69,-598.64 1468.45,-627.06 1492.25,-647 1510.93,-662.65 1663.94,-668.84 1741.87,-670.99"/>
<polygon fill="#555555" stroke="#555555" points="1741.64,-674.48 1751.73,-671.25 1741.83,-667.49 1741.64,-674.48"/>
<text xml:space="preserve" text-anchor="middle" x="1382.75" y="-581.45" font-family="Helvetica,sans-Serif" font-size="9.00">reads SlideSegment list</text>
</g>
<!-- M_GUI_TIMELINE3&#45;&gt;M_FRAME_FEATURES -->
<g id="edge60" class="edge">
<title>M_GUI_TIMELINE3&#45;&gt;M_FRAME_FEATURES</title>
<path fill="none" stroke="#555555" d="M1228.37,-87.2C1304.8,-86.03 1456.36,-84 1585,-84 1585,-84 1585,-84 2160.88,-84 2236.05,-84 2264.91,-93.03 2318.25,-146 2363.25,-190.69 2382.62,-265.36 2390.23,-306.52"/>
<polygon fill="#555555" stroke="#555555" points="2386.75,-306.92 2391.9,-316.18 2393.65,-305.73 2386.75,-306.92"/>
<text xml:space="preserve" text-anchor="middle" x="1788.12" y="-85.95" font-family="Helvetica,sans-Serif" font-size="9.00">uses quick_extract/quick_visual_distance…</text>
</g>
<!-- M_GUI_TIMELINE3&#45;&gt;M_GUI_MAIN -->
<g id="edge59" class="edge">
<title>M_GUI_TIMELINE3&#45;&gt;M_GUI_MAIN</title>
<path fill="none" stroke="#555555" d="M1127.92,-88.79C1111.45,-91.55 1094.33,-97.6 1082.75,-110 1048.64,-146.53 1101.31,-186.92 1064.75,-221 1036.45,-247.38 753.37,-236.84 718,-252.5 706.21,-257.72 695.29,-266.59 686.41,-275.39"/>
<polygon fill="#555555" stroke="#555555" points="683.94,-272.92 679.61,-282.58 689.02,-277.73 683.94,-272.92"/>
<text xml:space="preserve" text-anchor="middle" x="808" y="-254.45" font-family="Helvetica,sans-Serif" font-size="9.00">emits signals for add_manual_slide, seek…</text>
</g>
<!-- M_GUI_TIMELINE3&#45;&gt;M_MODELS -->
<g id="edge58" class="edge">
<title>M_GUI_TIMELINE3&#45;&gt;M_MODELS</title>
<path fill="none" stroke="#555555" d="M1228.38,-92.36C1303.84,-100.12 1442.46,-119.04 1474.25,-155.5 1504.09,-189.72 1463.55,-323.82 1492.25,-359 1547.23,-426.39 1624.9,-347.51 1679.75,-415 1709.71,-451.86 1670.97,-588.76 1697.75,-628 1708.23,-643.35 1725.66,-653.57 1742.35,-660.26"/>
<polygon fill="#555555" stroke="#555555" points="1741.12,-663.53 1751.72,-663.64 1743.51,-656.95 1741.12,-663.53"/>
<text xml:space="preserve" text-anchor="middle" x="1382.75" y="-157.45" font-family="Helvetica,sans-Serif" font-size="9.00">reads SlideSegment list, SlideSegment.ma…</text>
</g>
<!-- M_GUI_VIDEOPLAYER&#45;&gt;M_GUI_MAIN -->
<g id="edge79" class="edge">
<title>M_GUI_VIDEOPLAYER&#45;&gt;M_GUI_MAIN</title>
<path fill="none" stroke="#555555" d="M445.19,-302C495.64,-302 567.43,-302 614.38,-302"/>
<polygon fill="#555555" stroke="#555555" points="614.25,-305.5 624.25,-302 614.25,-298.5 614.25,-305.5"/>
<text xml:space="preserve" text-anchor="middle" x="535.5" y="-303.95" font-family="Helvetica,sans-Serif" font-size="9.00">embedded in central area</text>
</g>
<!-- M_GUI_VIDEOPLAYER&#45;&gt;M_GUI_SUBTITLE_OVERLAY -->
<g id="edge78" class="edge">
<title>M_GUI_VIDEOPLAYER&#45;&gt;M_GUI_SUBTITLE_OVERLAY</title>
<path fill="none" stroke="#555555" d="M325.92,-302C282.3,-302 222.08,-302 173.39,-302"/>
<polygon fill="#555555" stroke="#555555" points="173.43,-298.5 163.43,-302 173.43,-305.5 173.43,-298.5"/>
<text xml:space="preserve" text-anchor="middle" x="243.88" y="-303.95" font-family="Helvetica,sans-Serif" font-size="9.00">emits positionChanged for sync</text>
</g>
<!-- M_GUI_WORKER&#45;&gt;M_DETECT_SLIDES -->
<g id="edge61" class="edge">
<title>M_GUI_WORKER&#45;&gt;M_DETECT_SLIDES</title>
<path fill="none" stroke="#555555" d="M1037.65,-278.11C1047.56,-282.05 1057.29,-287.49 1064.75,-295 1081.39,-311.76 1064.3,-330.26 1082.75,-345 1149.4,-398.24 1207.6,-314.03 1273.25,-368.5 1293.53,-385.33 1272.91,-406.07 1291.25,-425 1298.99,-432.99 1308.85,-438.99 1319.19,-443.49"/>
<polygon fill="#555555" stroke="#555555" points="1317.63,-446.64 1328.22,-446.97 1320.15,-440.11 1317.63,-446.64"/>
<text xml:space="preserve" text-anchor="middle" x="1178" y="-370.45" font-family="Helvetica,sans-Serif" font-size="9.00">QuickDetectWorker uses quick_mode=True f…</text>
</g>
<!-- M_GUI_WORKER&#45;&gt;M_DETECT_SLIDES -->
<g id="edge70" class="edge">
<title>M_GUI_WORKER&#45;&gt;M_DETECT_SLIDES</title>
<path fill="none" stroke="#555555" d="M1037.74,-257.97C1100.22,-247.44 1210.8,-239.83 1273.25,-300.5 1313.35,-339.46 1255.78,-381.78 1291.25,-425 1298.47,-433.79 1308.27,-440.17 1318.76,-444.8"/>
<polygon fill="#555555" stroke="#555555" points="1317.41,-448.03 1328,-448.33 1319.91,-441.49 1317.41,-448.03"/>
<text xml:space="preserve" text-anchor="middle" x="1178" y="-302.45" font-family="Helvetica,sans-Serif" font-size="9.00">runs detection in background thread</text>
</g>
<!-- M_GUI_WORKER&#45;&gt;M_FRAME_FEATURES -->
<g id="edge62" class="edge">
<title>M_GUI_WORKER&#45;&gt;M_FRAME_FEATURES</title>
<path fill="none" stroke="#555555" d="M1033.65,-249.6C1045.56,-242.39 1057.28,-232.92 1064.75,-221 1082.8,-192.17 1057.61,-91.92 1082.75,-69 1090.79,-61.67 1463.38,-59.32 1474.25,-59 1573.6,-56.06 1598.37,-53.17 1697.75,-51.5 1778.07,-50.15 1798.23,-48.27 1878.5,-51.5 2074.42,-59.4 2165.4,35.82 2318.25,-87 2385.45,-141 2394.92,-252.67 2395.37,-306.16"/>
<polygon fill="#555555" stroke="#555555" points="2391.87,-306.02 2395.34,-316.04 2398.87,-306.05 2391.87,-306.02"/>
<text xml:space="preserve" text-anchor="middle" x="1788.12" y="-53.45" font-family="Helvetica,sans-Serif" font-size="9.00">QuickDetectWorker uses quick_extract/qui…</text>
</g>
<!-- M_GUI_WORKER&#45;&gt;M_FRAME_FEATURES -->
<g id="edge75" class="edge">
<title>M_GUI_WORKER&#45;&gt;M_FRAME_FEATURES</title>
<path fill="none" stroke="#555555" d="M1037.75,-254.46C1047.78,-249.68 1057.53,-243.34 1064.75,-235 1083.8,-212.98 1062.32,-192.75 1082.75,-172 1150.68,-103.03 1195.49,-123.15 1291.25,-109 1497.11,-78.58 2020.75,-177.95 2217.75,-245 2267.59,-261.96 2320.79,-290.99 2355.68,-311.7"/>
<polygon fill="#555555" stroke="#555555" points="2353.79,-314.65 2364.16,-316.8 2357.39,-308.65 2353.79,-314.65"/>
<text xml:space="preserve" text-anchor="middle" x="1788.12" y="-163.73" font-family="Helvetica,sans-Serif" font-size="9.00">PreviewWorker uses for scoring</text>
</g>
<!-- M_GUI_WORKER&#45;&gt;M_GUI_APPCONFIG -->
<g id="edge63" class="edge">
<title>M_GUI_WORKER&#45;&gt;M_GUI_APPCONFIG</title>
<path fill="none" stroke="#555555" d="M1033.79,-249.54C1048.94,-243.85 1066.33,-238.35 1082.75,-235.5 1162.63,-221.65 1256.34,-224.51 1317.26,-228.85"/>
<polygon fill="#555555" stroke="#555555" points="1316.88,-232.33 1327.11,-229.59 1317.4,-225.35 1316.88,-232.33"/>
<text xml:space="preserve" text-anchor="middle" x="1178" y="-237.45" font-family="Helvetica,sans-Serif" font-size="9.00">reads notes_mode config</text>
</g>
<!-- M_GUI_WORKER&#45;&gt;M_LLM_ORCHESTRATOR -->
<g id="edge72" class="edge">
<title>M_GUI_WORKER&#45;&gt;M_LLM_ORCHESTRATOR</title>
<path fill="none" stroke="#555555" d="M1037.83,-276.05C1048.24,-280.06 1058.14,-286.04 1064.75,-295 1109.16,-355.16 1038.4,-570.8 1082.75,-631 1136.3,-703.68 1220,-628.6 1273.25,-701.5 1299.26,-737.11 1268.3,-1060.34 1291.25,-1098 1298.25,-1109.48 1308.8,-1118.68 1320.25,-1125.95"/>
<polygon fill="#555555" stroke="#555555" points="1318.3,-1128.87 1328.71,-1130.85 1321.81,-1122.81 1318.3,-1128.87"/>
<text xml:space="preserve" text-anchor="middle" x="1178" y="-703.45" font-family="Helvetica,sans-Serif" font-size="9.00">runs LLM processing in background thread</text>
</g>
<!-- M_GUI_WORKER&#45;&gt;M_NOTES -->
<g id="edge71" class="edge">
<title>M_GUI_WORKER&#45;&gt;M_NOTES</title>
<path fill="none" stroke="#555555" d="M1037.86,-276.46C1048.14,-280.46 1057.97,-286.34 1064.75,-295 1109.67,-352.4 1033.97,-403.84 1082.75,-458 1140.74,-522.39 1217.68,-433.01 1273.25,-499.5 1308.72,-541.94 1258.5,-952.42 1291.25,-997 1302.72,-1012.61 1322.42,-1020.64 1340.52,-1024.76"/>
<polygon fill="#555555" stroke="#555555" points="1339.83,-1028.19 1350.3,-1026.61 1341.13,-1021.31 1339.83,-1028.19"/>
<text xml:space="preserve" text-anchor="middle" x="1178" y="-501.45" font-family="Helvetica,sans-Serif" font-size="9.00">runs notes in background thread</text>
</g>
<!-- M_GUI_WORKER&#45;&gt;M_PROJECT -->
<g id="edge73" class="edge">
<title>M_GUI_WORKER&#45;&gt;M_PROJECT</title>
<path fill="none" stroke="#555555" d="M1037.64,-277.11C1047.8,-281.09 1057.63,-286.8 1064.75,-295 1089.77,-323.84 1054.52,-353.29 1082.75,-379 1145.79,-436.4 1210.11,-344.22 1273.25,-401.5 1301.05,-426.72 1265.73,-456.49 1291.25,-484 1302.38,-495.99 1318.58,-502.74 1334.21,-506.51"/>
<polygon fill="#555555" stroke="#555555" points="1333.43,-509.92 1343.92,-508.46 1334.81,-503.06 1333.43,-509.92"/>
<text xml:space="preserve" text-anchor="middle" x="1178" y="-403.45" font-family="Helvetica,sans-Serif" font-size="9.00">updates project state on completion</text>
</g>
<!-- M_GUI_WORKER&#45;&gt;M_VIDEO_DECODE -->
<g id="edge74" class="edge">
<title>M_GUI_WORKER&#45;&gt;M_VIDEO_DECODE</title>
<path fill="none" stroke="#555555" d="M1036.86,-249.58C1046.29,-245.2 1056.01,-240.26 1064.75,-235 1073.43,-229.77 1073.36,-224.82 1082.75,-221 1244.2,-155.27 1301.3,-175.76 1474.25,-197.5 1567.78,-209.26 1592.08,-215.36 1679.75,-250 1703.61,-259.43 1728.83,-273.07 1748.82,-284.86"/>
<polygon fill="#555555" stroke="#555555" points="1746.8,-287.73 1757.18,-289.87 1750.4,-281.73 1746.8,-287.73"/>
<text xml:space="preserve" text-anchor="middle" x="1382.75" y="-199.45" font-family="Helvetica,sans-Serif" font-size="9.00">PreviewWorker uses for fast frame iterat…</text>
</g>
<!-- M_LLM_ORCHESTRATOR&#45;&gt;M_LLM_CLIENT -->
<g id="edge33" class="edge">
<title>M_LLM_ORCHESTRATOR&#45;&gt;M_LLM_CLIENT</title>
<path fill="none" stroke="#555555" d="M1449.44,-1143.43C1544.27,-1134.91 1724.99,-1122.28 1878.5,-1132.5 1958.27,-1137.81 2049.96,-1151.53 2106.15,-1160.82"/>
<polygon fill="#555555" stroke="#555555" points="2105.31,-1164.23 2115.75,-1162.42 2106.47,-1157.32 2105.31,-1164.23"/>
<text xml:space="preserve" text-anchor="middle" x="1788.12" y="-1134.45" font-family="Helvetica,sans-Serif" font-size="9.00">loads/unloads model</text>
</g>
<!-- M_LLM_ORCHESTRATOR&#45;&gt;M_NOTES_PROCESSOR -->
<g id="edge35" class="edge">
<title>M_LLM_ORCHESTRATOR&#45;&gt;M_NOTES_PROCESSOR</title>
<path fill="none" stroke="#555555" d="M1423.4,-1131.61C1440.1,-1122.79 1459.12,-1111.25 1474.25,-1098 1484.15,-1089.33 1480.96,-1081.26 1492.25,-1074.5 1564.7,-1031.15 1610.21,-1091.88 1679.75,-1044 1692.87,-1034.96 1685.86,-1023.6 1697.75,-1013 1704.33,-1007.14 1711.92,-1002.05 1719.85,-997.66"/>
<polygon fill="#555555" stroke="#555555" points="1721.35,-1000.82 1728.67,-993.16 1718.17,-994.59 1721.35,-1000.82"/>
<text xml:space="preserve" text-anchor="middle" x="1586" y="-1076.45" font-family="Helvetica,sans-Serif" font-size="9.00">uses for transcript rephrase</text>
</g>
<!-- M_LLM_ORCHESTRATOR&#45;&gt;M_SLIDE_ANALYZER -->
<g id="edge34" class="edge">
<title>M_LLM_ORCHESTRATOR&#45;&gt;M_SLIDE_ANALYZER</title>
<path fill="none" stroke="#555555" d="M1449.46,-1153.26C1524.2,-1156.96 1645.59,-1162.98 1720.65,-1166.7"/>
<polygon fill="#555555" stroke="#555555" points="1720.16,-1170.18 1730.32,-1167.18 1720.5,-1163.19 1720.16,-1170.18"/>
<text xml:space="preserve" text-anchor="middle" x="1586" y="-1166.59" font-family="Helvetica,sans-Serif" font-size="9.00">calls for each slide</text>
</g>
<!-- M_MD_EXPORT&#45;&gt;M_MODELS -->
<g id="edge28" class="edge">
<title>M_MD_EXPORT&#45;&gt;M_MODELS</title>
<path fill="none" stroke="#555555" d="M1426.28,-696C1446.2,-691.73 1470.32,-687.12 1492.25,-684.5 1580.31,-673.97 1684.08,-671.97 1742.07,-671.77"/>
<polygon fill="#555555" stroke="#555555" points="1741.87,-675.27 1751.87,-671.76 1741.86,-668.27 1741.87,-675.27"/>
<text xml:space="preserve" text-anchor="middle" x="1586" y="-686.45" font-family="Helvetica,sans-Serif" font-size="9.00">reads SlidesDocument</text>
</g>
<!-- M_NOTES&#45;&gt;M_NOTES_PROCESSOR -->
<g id="edge44" class="edge">
<title>M_NOTES&#45;&gt;M_NOTES_PROCESSOR</title>
<path fill="none" stroke="#555555" d="M1414.07,-1024.87C1476.8,-1016.31 1622.44,-996.46 1712.06,-984.24"/>
<polygon fill="#555555" stroke="#555555" points="1712.31,-987.73 1721.74,-982.92 1711.36,-980.8 1712.31,-987.73"/>
<text xml:space="preserve" text-anchor="middle" x="1586" y="-1014.7" font-family="Helvetica,sans-Serif" font-size="9.00">cleans and formats notes</text>
</g>
<!-- M_NOTES&#45;&gt;M_SUBTITLES -->
<g id="edge43" class="edge">
<title>M_NOTES&#45;&gt;M_SUBTITLES</title>
<path fill="none" stroke="#555555" d="M1414.02,-1029.01C1467.6,-1029.12 1582.68,-1029.83 1679.75,-1033.5 1697.97,-1034.19 1717.9,-1035.3 1735.6,-1036.41"/>
<polygon fill="#555555" stroke="#555555" points="1735.15,-1039.88 1745.35,-1037.03 1735.6,-1032.9 1735.15,-1039.88"/>
<text xml:space="preserve" text-anchor="middle" x="1586" y="-1035.45" font-family="Helvetica,sans-Serif" font-size="9.00">parses and aligns cues</text>
</g>
<!-- M_PIPELINE -->
<g id="node29" class="node">
<title>M_PIPELINE</title>
<path fill="#e8f1ff" stroke="black" d="M687.62,-1184C687.62,-1184 638.62,-1184 638.62,-1184 632.62,-1184 626.62,-1178 626.62,-1172 626.62,-1172 626.62,-1160 626.62,-1160 626.62,-1154 632.62,-1148 638.62,-1148 638.62,-1148 687.62,-1148 687.62,-1148 693.62,-1148 699.62,-1154 699.62,-1160 699.62,-1160 699.62,-1172 699.62,-1172 699.62,-1178 693.62,-1184 687.62,-1184"/>
<text xml:space="preserve" text-anchor="middle" x="663.12" y="-1162.5" font-family="Helvetica,sans-Serif" font-size="10.00">M&#45;PIPELINE</text>
</g>
<!-- M_PIPELINE&#45;&gt;M_CLI -->
<g id="edge22" class="edge">
<title>M_PIPELINE&#45;&gt;M_CLI</title>
<path fill="none" stroke="#555555" d="M688.31,-1147.56C745.84,-1103.7 890.93,-993.06 956.41,-943.13"/>
<polygon fill="#555555" stroke="#555555" points="958.44,-945.99 964.27,-937.14 954.2,-940.42 958.44,-945.99"/>
<text xml:space="preserve" text-anchor="middle" x="808" y="-1126.37" font-family="Helvetica,sans-Serif" font-size="9.00">implements</text>
</g>
<!-- M_PPTX_EXPORT&#45;&gt;M_MODELS -->
<g id="edge29" class="edge">
<title>M_PPTX_EXPORT&#45;&gt;M_MODELS</title>
<path fill="none" stroke="#555555" d="M1431.6,-865.56C1447.3,-858.29 1463.47,-848.04 1474.25,-834 1496.83,-804.57 1464.83,-777.49 1492.25,-752.5 1523.29,-724.21 1639.71,-741.66 1679.75,-729 1704.19,-721.27 1729.62,-708.04 1749.59,-696.27"/>
<polygon fill="#555555" stroke="#555555" points="1751.16,-699.41 1757.91,-691.25 1747.54,-693.42 1751.16,-699.41"/>
<text xml:space="preserve" text-anchor="middle" x="1586" y="-754.45" font-family="Helvetica,sans-Serif" font-size="9.00">reads SlidesDocument</text>
</g>
<!-- M_PPTX_EXPORT&#45;&gt;M_NOTES_PROCESSOR -->
<g id="edge30" class="edge">
<title>M_PPTX_EXPORT&#45;&gt;M_NOTES_PROCESSOR</title>
<path fill="none" stroke="#555555" d="M1431.61,-892.03C1500.94,-908.02 1629.99,-937.77 1712.06,-956.69"/>
<polygon fill="#555555" stroke="#555555" points="1711.06,-960.06 1721.59,-958.89 1712.64,-953.23 1711.06,-960.06"/>
<text xml:space="preserve" text-anchor="middle" x="1586" y="-951.01" font-family="Helvetica,sans-Serif" font-size="9.00">uses for notes cleanup</text>
</g>
<!-- M_PROJECT&#45;&gt;M_CONFIG -->
<g id="edge21" class="edge">
<title>M_PROJECT&#45;&gt;M_CONFIG</title>
<path fill="none" stroke="#555555" d="M1420.26,-510.46C1494.66,-509.35 1663.53,-506.84 1743.54,-505.65"/>
<polygon fill="#555555" stroke="#555555" points="1743.21,-509.15 1753.16,-505.51 1743.11,-502.15 1743.21,-509.15"/>
<text xml:space="preserve" text-anchor="middle" x="1586" y="-511.18" font-family="Helvetica,sans-Serif" font-size="9.00">uses LlmConfig, DetectionConfig</text>
</g>
<!-- M_PROJECT&#45;&gt;M_MODELS -->
<g id="edge20" class="edge">
<title>M_PROJECT&#45;&gt;M_MODELS</title>
<path fill="none" stroke="#555555" d="M1420.1,-517.17C1438.09,-521.77 1459.14,-529.65 1474.25,-543 1487.66,-554.84 1477.65,-568.67 1492.25,-579 1560.8,-627.52 1607.73,-559.29 1679.75,-602.5 1691.65,-609.64 1687.2,-618.99 1697.75,-628 1711,-639.32 1727.66,-648.54 1743,-655.57"/>
<polygon fill="#555555" stroke="#555555" points="1741.4,-658.68 1751.96,-659.47 1744.2,-652.27 1741.4,-658.68"/>
<text xml:space="preserve" text-anchor="middle" x="1586" y="-604.45" font-family="Helvetica,sans-Serif" font-size="9.00">uses Project model</text>
</g>
<!-- M_ROI_TOOL&#45;&gt;M_VIDEO_DECODE -->
<g id="edge45" class="edge">
<title>M_ROI_TOOL&#45;&gt;M_VIDEO_DECODE</title>
<path fill="none" stroke="#555555" d="M1420.48,-346.69C1437.54,-341.46 1457.68,-333.95 1474.25,-324 1483.55,-318.41 1482.14,-311.43 1492.25,-307.5 1567.82,-278.1 1662.76,-285.66 1724.17,-295.69"/>
<polygon fill="#555555" stroke="#555555" points="1723.29,-299.09 1733.74,-297.33 1724.48,-292.19 1723.29,-299.09"/>
<text xml:space="preserve" text-anchor="middle" x="1586" y="-309.45" font-family="Helvetica,sans-Serif" font-size="9.00">extracts frame</text>
</g>
<!-- M_SEGMENTER&#45;&gt;M_DEDUPE -->
<g id="edge26" class="edge">
<title>M_SEGMENTER&#45;&gt;M_DEDUPE</title>
<path fill="none" stroke="#555555" d="M1834.09,-550.61C1905.01,-537.37 2042.08,-511.8 2113.34,-498.5"/>
<polygon fill="#555555" stroke="#555555" points="2113.94,-501.95 2123.12,-496.67 2112.65,-495.07 2113.94,-501.95"/>
<text xml:space="preserve" text-anchor="middle" x="1990.25" y="-540.56" font-family="Helvetica,sans-Serif" font-size="9.00">deduplicates after segmentation</text>
</g>
<!-- M_SLIDE_ANALYZER&#45;&gt;M_LLM_CLIENT -->
<g id="edge32" class="edge">
<title>M_SLIDE_ANALYZER&#45;&gt;M_LLM_CLIENT</title>
<path fill="none" stroke="#555555" d="M1844.48,-1170C1915.09,-1170 2036.36,-1170 2105.84,-1170"/>
<polygon fill="#555555" stroke="#555555" points="2105.43,-1173.5 2115.43,-1170 2105.43,-1166.5 2105.43,-1173.5"/>
<text xml:space="preserve" text-anchor="middle" x="1990.25" y="-1171.95" font-family="Helvetica,sans-Serif" font-size="9.00">uses for vision calls</text>
</g>
<!-- M_SLIDE_DETECTOR&#45;&gt;M_FRAME_FEATURES -->
<g id="edge24" class="edge">
<title>M_SLIDE_DETECTOR&#45;&gt;M_FRAME_FEATURES</title>
<path fill="none" stroke="#555555" d="M1845.81,-824.65C1919.98,-820.68 2045.08,-810.63 2084,-787 2254.2,-683.68 2353.81,-447.58 2384.42,-365.09"/>
<polygon fill="#555555" stroke="#555555" points="2387.71,-366.3 2387.84,-355.71 2381.13,-363.9 2387.71,-366.3"/>
<text xml:space="preserve" text-anchor="middle" x="2159.88" y="-775.68" font-family="Helvetica,sans-Serif" font-size="9.00">extracts and compares</text>
</g>
<!-- M_SLIDE_DETECTOR&#45;&gt;M_ROI -->
<g id="edge25" class="edge">
<title>M_SLIDE_DETECTOR&#45;&gt;M_ROI</title>
<path fill="none" stroke="#555555" d="M1846.09,-828.85C1922.56,-831.33 2056.31,-835.67 2121.29,-837.78"/>
<polygon fill="#555555" stroke="#555555" points="2120.98,-841.27 2131.09,-838.1 2121.21,-834.28 2120.98,-841.27"/>
<text xml:space="preserve" text-anchor="middle" x="1990.25" y="-838.36" font-family="Helvetica,sans-Serif" font-size="9.00">crops and masks</text>
</g>
<!-- M_VIDEO_DECODE&#45;&gt;M_BACKENDS -->
<g id="edge23" class="edge">
<title>M_VIDEO_DECODE&#45;&gt;M_BACKENDS</title>
<path fill="none" stroke="#555555" d="M1840.93,-303.82C1911.15,-296.79 2035.87,-284.31 2106.43,-277.25"/>
<polygon fill="#555555" stroke="#555555" points="2106.58,-280.75 2116.18,-276.27 2105.88,-273.79 2106.58,-280.75"/>
<text xml:space="preserve" text-anchor="middle" x="1990.25" y="-300.02" font-family="Helvetica,sans-Serif" font-size="9.00">selects and uses</text>
</g>
</g>
</svg>
