<?xml version="1.0" encoding="UTF-8" standalone="no"?>
<!DOCTYPE svg PUBLIC "-//W3C//DTD SVG 1.1//EN"
 "http://www.w3.org/Graphics/SVG/1.1/DTD/svg11.dtd">
<!-- Generated by graphviz version 15.1.0 (20260618.0150)
 -->
<!-- Title: G Pages: 1 -->
<svg width="2296pt" height="1534pt"
 viewBox="0.00 0.00 2296.00 1534.00" xmlns="http://www.w3.org/2000/svg" xmlns:xlink="http://www.w3.org/1999/xlink">
<g id="graph0" class="graph" transform="scale(1 1) rotate(0) translate(4 1529.65)">
<title>G</title>
<polygon fill="white" stroke="none" points="-4,4 -4,-1529.65 2292.25,-1529.65 2292.25,4 -4,4"/>
<text xml:space="preserve" text-anchor="middle" x="1144.12" y="-1510.25" font-family="Helvetica,sans-Serif" font-size="12.00">GRACE Module Dependencies</text>
<g id="clust1" class="cluster">
<title>cluster_CORE_LOGIC</title>
<path fill="#bbdefb" stroke="black" d="M534.75,-714C534.75,-714 2268.25,-714 2268.25,-714 2274.25,-714 2280.25,-720 2280.25,-726 2280.25,-726 2280.25,-1214 2280.25,-1214 2280.25,-1220 2274.25,-1226 2268.25,-1226 2268.25,-1226 534.75,-1226 534.75,-1226 528.75,-1226 522.75,-1220 522.75,-1214 522.75,-1214 522.75,-726 522.75,-726 522.75,-720 528.75,-714 534.75,-714"/>
<text xml:space="preserve" text-anchor="middle" x="1401.5" y="-1210.6" font-family="Helvetica,sans-Serif" font-size="12.00">CORE_LOGIC</text>
</g>
<g id="clust2" class="cluster">
<title>cluster_DECISION</title>
<path fill="#eeeeee" stroke="black" d="M535.88,-632C535.88,-632 805.62,-632 805.62,-632 811.62,-632 817.62,-638 817.62,-644 817.62,-644 817.62,-694 817.62,-694 817.62,-700 811.62,-706 805.62,-706 805.62,-706 535.88,-706 535.88,-706 529.88,-706 523.88,-700 523.88,-694 523.88,-694 523.88,-644 523.88,-644 523.88,-638 529.88,-632 535.88,-632"/>
<text xml:space="preserve" text-anchor="middle" x="670.75" y="-690.6" font-family="Helvetica,sans-Serif" font-size="12.00">DECISION</text>
</g>
<g id="clust3" class="cluster">
<title>cluster_DEPLOYMENT</title>
<path fill="#eeeeee" stroke="black" d="M122.75,-1370C122.75,-1370 331.75,-1370 331.75,-1370 337.75,-1370 343.75,-1376 343.75,-1382 343.75,-1382 343.75,-1432 343.75,-1432 343.75,-1438 337.75,-1444 331.75,-1444 331.75,-1444 122.75,-1444 122.75,-1444 116.75,-1444 110.75,-1438 110.75,-1432 110.75,-1432 110.75,-1382 110.75,-1382 110.75,-1376 116.75,-1370 122.75,-1370"/>
<text xml:space="preserve" text-anchor="middle" x="227.25" y="-1428.6" font-family="Helvetica,sans-Serif" font-size="12.00">DEPLOYMENT</text>
</g>
<g id="clust4" class="cluster">
<title>cluster_ENTRY_POINT</title>
<path fill="#c8e6c9" stroke="black" d="M97.62,-1234C97.62,-1234 1300.75,-1234 1300.75,-1234 1306.75,-1234 1312.75,-1240 1312.75,-1246 1312.75,-1246 1312.75,-1350 1312.75,-1350 1312.75,-1356 1306.75,-1362 1300.75,-1362 1300.75,-1362 97.62,-1362 97.62,-1362 91.62,-1362 85.62,-1356 85.62,-1350 85.62,-1350 85.62,-1246 85.62,-1246 85.62,-1240 91.62,-1234 97.62,-1234"/>
<text xml:space="preserve" text-anchor="middle" x="699.19" y="-1346.6" font-family="Helvetica,sans-Serif" font-size="12.00">ENTRY_POINT</text>
</g>
<g id="clust5" class="cluster">
<title>cluster_INTEGRATION</title>
<path fill="#ffe0b2" stroke="black" d="M124.25,-90C124.25,-90 1356.62,-90 1356.62,-90 1362.62,-90 1368.62,-96 1368.62,-102 1368.62,-102 1368.62,-206 1368.62,-206 1368.62,-212 1362.62,-218 1356.62,-218 1356.62,-218 124.25,-218 124.25,-218 118.25,-218 112.25,-212 112.25,-206 112.25,-206 112.25,-102 112.25,-102 112.25,-96 118.25,-90 124.25,-90"/>
<text xml:space="preserve" text-anchor="middle" x="740.44" y="-202.6" font-family="Helvetica,sans-Serif" font-size="12.00">INTEGRATION</text>
</g>
<g id="clust6" class="cluster">
<title>cluster_UTILITY</title>
<path fill="#e0e0e0" stroke="black" d="M20,-226C20,-226 2245.75,-226 2245.75,-226 2251.75,-226 2257.75,-232 2257.75,-238 2257.75,-238 2257.75,-612 2257.75,-612 2257.75,-618 2251.75,-624 2245.75,-624 2245.75,-624 20,-624 20,-624 14,-624 8,-618 8,-612 8,-612 8,-238 8,-238 8,-232 14,-226 20,-226"/>
<text xml:space="preserve" text-anchor="middle" x="1132.88" y="-608.6" font-family="Helvetica,sans-Serif" font-size="12.00">UTILITY</text>
</g>
<g id="clust7" class="cluster">
<title>cluster_module</title>
<path fill="#e8f1ff" stroke="black" d="M154.25,-8C154.25,-8 717.88,-8 717.88,-8 723.88,-8 729.88,-14 729.88,-20 729.88,-20 729.88,-70 729.88,-70 729.88,-76 723.88,-82 717.88,-82 717.88,-82 154.25,-82 154.25,-82 148.25,-82 142.25,-76 142.25,-70 142.25,-70 142.25,-20 142.25,-20 142.25,-14 148.25,-8 154.25,-8"/>
<text xml:space="preserve" text-anchor="middle" x="436.06" y="-66.6" font-family="Helvetica,sans-Serif" font-size="12.00">module</text>
</g>
<g id="clust8" class="cluster">
<title>cluster_submodule</title>
<path fill="#eeeeee" stroke="black" d="M1641.25,-90C1641.25,-90 1909.5,-90 1909.5,-90 1915.5,-90 1921.5,-96 1921.5,-102 1921.5,-102 1921.5,-152 1921.5,-152 1921.5,-158 1915.5,-164 1909.5,-164 1909.5,-164 1641.25,-164 1641.25,-164 1635.25,-164 1629.25,-158 1629.25,-152 1629.25,-152 1629.25,-102 1629.25,-102 1629.25,-96 1635.25,-90 1641.25,-90"/>
<text xml:space="preserve" text-anchor="middle" x="1775.38" y="-148.6" font-family="Helvetica,sans-Serif" font-size="12.00">submodule</text>
</g>
<!-- M_APP_ALIGN -->
<g id="node1" class="node">
<title>M_APP_ALIGN</title>
<path fill="#e8f1ff" stroke="black" d="M1880.88,-960C1880.88,-960 1669.88,-960 1669.88,-960 1663.88,-960 1657.88,-954 1657.88,-948 1657.88,-948 1657.88,-936 1657.88,-936 1657.88,-930 1663.88,-924 1669.88,-924 1669.88,-924 1880.88,-924 1880.88,-924 1886.88,-924 1892.88,-930 1892.88,-936 1892.88,-936 1892.88,-948 1892.88,-948 1892.88,-954 1886.88,-960 1880.88,-960"/>
<text xml:space="preserve" text-anchor="middle" x="1775.38" y="-938.5" font-family="Helvetica,sans-Serif" font-size="10.00">M&#45;APP&#45;ALIGN\nAlignmentService\n[implemented]</text>
</g>
<!-- M_DOMAIN_PROJECT -->
<g id="node15" class="node">
<title>M_DOMAIN_PROJECT</title>
<path fill="#e8f1ff" stroke="black" d="M2260.25,-1012C2260.25,-1012 2013.25,-1012 2013.25,-1012 2007.25,-1012 2001.25,-1006 2001.25,-1000 2001.25,-1000 2001.25,-988 2001.25,-988 2001.25,-982 2007.25,-976 2013.25,-976 2013.25,-976 2260.25,-976 2260.25,-976 2266.25,-976 2272.25,-982 2272.25,-988 2272.25,-988 2272.25,-1000 2272.25,-1000 2272.25,-1006 2266.25,-1012 2260.25,-1012"/>
<text xml:space="preserve" text-anchor="middle" x="2136.75" y="-990.5" font-family="Helvetica,sans-Serif" font-size="10.00">M&#45;DOMAIN&#45;PROJECT\nProjectAggregate\n[implemented]</text>
</g>
<!-- M_APP_ALIGN&#45;&gt;M_DOMAIN_PROJECT -->
<g id="edge32" class="edge">
<title>M_APP_ALIGN&#45;&gt;M_DOMAIN_PROJECT</title>
<path fill="none" stroke="#555555" d="M1893.14,-952.2C1922.62,-955.31 1954.15,-959.09 1983.25,-963.5 2001.57,-966.28 2021.04,-969.76 2039.71,-973.37"/>
<polygon fill="#555555" stroke="#555555" points="2038.93,-976.78 2049.42,-975.27 2040.28,-969.91 2038.93,-976.78"/>
<text xml:space="preserve" text-anchor="middle" x="1957.38" y="-965.45" font-family="Helvetica,sans-Serif" font-size="9.00">depends_on</text>
</g>
<!-- M_APP_AUTO -->
<g id="node2" class="node">
<title>M_APP_AUTO</title>
<path fill="#e8f1ff" stroke="black" d="M1329.12,-1099C1329.12,-1099 1143.62,-1099 1143.62,-1099 1137.62,-1099 1131.62,-1093 1131.62,-1087 1131.62,-1087 1131.62,-1075 1131.62,-1075 1131.62,-1069 1137.62,-1063 1143.62,-1063 1143.62,-1063 1329.12,-1063 1329.12,-1063 1335.12,-1063 1341.12,-1069 1341.12,-1075 1341.12,-1075 1341.12,-1087 1341.12,-1087 1341.12,-1093 1335.12,-1099 1329.12,-1099"/>
<text xml:space="preserve" text-anchor="middle" x="1236.38" y="-1077.5" font-family="Helvetica,sans-Serif" font-size="10.00">M&#45;APP&#45;AUTO\nAutoService\n[implemented]</text>
</g>
<!-- M_APP_AUTO&#45;&gt;M_APP_ALIGN -->
<g id="edge34" class="edge">
<title>M_APP_AUTO&#45;&gt;M_APP_ALIGN</title>
<path fill="none" stroke="#555555" d="M1275.77,-1062.63C1307.24,-1048.36 1353.31,-1029.24 1395.5,-1018.5 1492.59,-993.77 1521.35,-1012.29 1619.25,-991 1650.82,-984.14 1685.15,-973.62 1713.47,-964.09"/>
<polygon fill="#555555" stroke="#555555" points="1714.24,-967.53 1722.57,-960.99 1711.98,-960.9 1714.24,-967.53"/>
<text xml:space="preserve" text-anchor="middle" x="1507.38" y="-1020.45" font-family="Helvetica,sans-Serif" font-size="9.00">depends_on</text>
</g>
<!-- M_APP_DETECT -->
<g id="node3" class="node">
<title>M_APP_DETECT</title>
<path fill="#e8f1ff" stroke="black" d="M1885.38,-1196C1885.38,-1196 1665.38,-1196 1665.38,-1196 1659.38,-1196 1653.38,-1190 1653.38,-1184 1653.38,-1184 1653.38,-1172 1653.38,-1172 1653.38,-1166 1659.38,-1160 1665.38,-1160 1665.38,-1160 1885.38,-1160 1885.38,-1160 1891.38,-1160 1897.38,-1166 1897.38,-1172 1897.38,-1172 1897.38,-1184 1897.38,-1184 1897.38,-1190 1891.38,-1196 1885.38,-1196"/>
<text xml:space="preserve" text-anchor="middle" x="1775.38" y="-1174.5" font-family="Helvetica,sans-Serif" font-size="10.00">M&#45;APP&#45;DETECT\nDetectionService\n[implemented]</text>
</g>
<!-- M_APP_AUTO&#45;&gt;M_APP_DETECT -->
<g id="edge33" class="edge">
<title>M_APP_AUTO&#45;&gt;M_APP_DETECT</title>
<path fill="none" stroke="#555555" d="M1294.72,-1099.43C1324.53,-1108.47 1361.7,-1118.91 1395.5,-1126 1476.62,-1143.02 1568.72,-1155.81 1641.81,-1164.44"/>
<polygon fill="#555555" stroke="#555555" points="1641.07,-1167.88 1651.4,-1165.56 1641.88,-1160.93 1641.07,-1167.88"/>
<text xml:space="preserve" text-anchor="middle" x="1507.38" y="-1162.56" font-family="Helvetica,sans-Serif" font-size="9.00">depends_on</text>
</g>
<!-- M_APP_EXPORT -->
<g id="node4" class="node">
<title>M_APP_EXPORT</title>
<path fill="#e8f1ff" stroke="black" d="M1878.62,-1088C1878.62,-1088 1672.12,-1088 1672.12,-1088 1666.12,-1088 1660.12,-1082 1660.12,-1076 1660.12,-1076 1660.12,-1064 1660.12,-1064 1660.12,-1058 1666.12,-1052 1672.12,-1052 1672.12,-1052 1878.62,-1052 1878.62,-1052 1884.62,-1052 1890.62,-1058 1890.62,-1064 1890.62,-1064 1890.62,-1076 1890.62,-1076 1890.62,-1082 1884.62,-1088 1878.62,-1088"/>
<text xml:space="preserve" text-anchor="middle" x="1775.38" y="-1066.5" font-family="Helvetica,sans-Serif" font-size="10.00">M&#45;APP&#45;EXPORT\nExportService\n[implemented]</text>
</g>
<!-- M_APP_AUTO&#45;&gt;M_APP_EXPORT -->
<g id="edge36" class="edge">
<title>M_APP_AUTO&#45;&gt;M_APP_EXPORT</title>
<path fill="none" stroke="#555555" d="M1341.55,-1078.87C1429.24,-1077.07 1554.93,-1074.5 1648.29,-1072.58"/>
<polygon fill="#555555" stroke="#555555" points="1648.36,-1076.08 1658.29,-1072.38 1648.22,-1069.08 1648.36,-1076.08"/>
<text xml:space="preserve" text-anchor="middle" x="1507.38" y="-1079.7" font-family="Helvetica,sans-Serif" font-size="9.00">depends_on</text>
</g>
<!-- M_APP_NOTES -->
<g id="node6" class="node">
<title>M_APP_NOTES</title>
<path fill="#e8f1ff" stroke="black" d="M1874.5,-1142C1874.5,-1142 1676.25,-1142 1676.25,-1142 1670.25,-1142 1664.25,-1136 1664.25,-1130 1664.25,-1130 1664.25,-1118 1664.25,-1118 1664.25,-1112 1670.25,-1106 1676.25,-1106 1676.25,-1106 1874.5,-1106 1874.5,-1106 1880.5,-1106 1886.5,-1112 1886.5,-1118 1886.5,-1118 1886.5,-1130 1886.5,-1130 1886.5,-1136 1880.5,-1142 1874.5,-1142"/>
<text xml:space="preserve" text-anchor="middle" x="1775.38" y="-1120.5" font-family="Helvetica,sans-Serif" font-size="10.00">M&#45;APP&#45;NOTES\nNotesService\n[implemented]</text>
</g>
<!-- M_APP_AUTO&#45;&gt;M_APP_NOTES -->
<g id="edge35" class="edge">
<title>M_APP_AUTO&#45;&gt;M_APP_NOTES</title>
<path fill="none" stroke="#555555" d="M1341.55,-1089.34C1430.65,-1096.48 1558.98,-1106.75 1652.76,-1114.26"/>
<polygon fill="#555555" stroke="#555555" points="1652.27,-1117.73 1662.51,-1115.04 1652.83,-1110.76 1652.27,-1117.73"/>
<text xml:space="preserve" text-anchor="middle" x="1507.38" y="-1113.24" font-family="Helvetica,sans-Serif" font-size="9.00">depends_on</text>
</g>
<!-- M_APP_VALIDATE -->
<g id="node10" class="node">
<title>M_APP_VALIDATE</title>
<path fill="#e8f1ff" stroke="black" d="M1888.75,-1034C1888.75,-1034 1662,-1034 1662,-1034 1656,-1034 1650,-1028 1650,-1022 1650,-1022 1650,-1010 1650,-1010 1650,-1004 1656,-998 1662,-998 1662,-998 1888.75,-998 1888.75,-998 1894.75,-998 1900.75,-1004 1900.75,-1010 1900.75,-1010 1900.75,-1022 1900.75,-1022 1900.75,-1028 1894.75,-1034 1888.75,-1034"/>
<text xml:space="preserve" text-anchor="middle" x="1775.38" y="-1012.5" font-family="Helvetica,sans-Serif" font-size="10.00">M&#45;APP&#45;VALIDATE\nValidationService\n[implemented]</text>
</g>
<!-- M_APP_AUTO&#45;&gt;M_APP_VALIDATE -->
<g id="edge37" class="edge">
<title>M_APP_AUTO&#45;&gt;M_APP_VALIDATE</title>
<path fill="none" stroke="#555555" d="M1341.51,-1065.74C1359.5,-1063.23 1378.03,-1060.72 1395.5,-1058.5 1475.9,-1048.27 1566.07,-1038.11 1638.27,-1030.28"/>
<polygon fill="#555555" stroke="#555555" points="1638.62,-1033.76 1648.19,-1029.21 1637.87,-1026.8 1638.62,-1033.76"/>
<text xml:space="preserve" text-anchor="middle" x="1507.38" y="-1060.45" font-family="Helvetica,sans-Serif" font-size="9.00">depends_on</text>
</g>
<!-- M_APP_DETECT&#45;&gt;M_DOMAIN_PROJECT -->
<g id="edge31" class="edge">
<title>M_APP_DETECT&#45;&gt;M_DOMAIN_PROJECT</title>
<path fill="none" stroke="#555555" d="M1897.55,-1159.64C1905.77,-1157.12 1913.83,-1154.26 1921.5,-1151 1997.07,-1118.91 2071.15,-1055.52 2109.27,-1019.89"/>
<polygon fill="#555555" stroke="#555555" points="2111.32,-1022.76 2116.18,-1013.34 2106.51,-1017.67 2111.32,-1022.76"/>
<text xml:space="preserve" text-anchor="middle" x="1957.38" y="-1147.11" font-family="Helvetica,sans-Serif" font-size="9.00">depends_on</text>
</g>
<!-- M_APP_EXPORT&#45;&gt;M_DOMAIN_PROJECT -->
<g id="edge39" class="edge">
<title>M_APP_EXPORT&#45;&gt;M_DOMAIN_PROJECT</title>
<path fill="none" stroke="#555555" d="M1878.37,-1051.57C1892.86,-1048.79 1907.57,-1045.89 1921.5,-1043 1962.99,-1034.4 2008.79,-1024.04 2047.36,-1015.07"/>
<polygon fill="#555555" stroke="#555555" points="2048.15,-1018.48 2057.09,-1012.8 2046.56,-1011.66 2048.15,-1018.48"/>
<text xml:space="preserve" text-anchor="middle" x="1957.38" y="-1042.53" font-family="Helvetica,sans-Serif" font-size="9.00">depends_on</text>
</g>
<!-- M_APP_LLM -->
<g id="node5" class="node">
<title>M_APP_LLM</title>
<path fill="#e8f1ff" stroke="black" d="M1607.25,-801C1607.25,-801 1407.5,-801 1407.5,-801 1401.5,-801 1395.5,-795 1395.5,-789 1395.5,-789 1395.5,-777 1395.5,-777 1395.5,-771 1401.5,-765 1407.5,-765 1407.5,-765 1607.25,-765 1607.25,-765 1613.25,-765 1619.25,-771 1619.25,-777 1619.25,-777 1619.25,-789 1619.25,-789 1619.25,-795 1613.25,-801 1607.25,-801"/>
<text xml:space="preserve" text-anchor="middle" x="1507.38" y="-779.5" font-family="Helvetica,sans-Serif" font-size="10.00">M&#45;APP&#45;LLM\nLlmEnrichmentService\n[planned]</text>
</g>
<!-- M_APP_LLM&#45;&gt;M_DOMAIN_PROJECT -->
<g id="edge29" class="edge">
<title>M_APP_LLM&#45;&gt;M_DOMAIN_PROJECT</title>
<path fill="none" stroke="#555555" d="M1619.41,-779.76C1722.71,-778.17 1868.43,-779.99 1921.5,-800.5 2008.83,-834.24 2082.79,-921.77 2116.39,-966.62"/>
<polygon fill="#555555" stroke="#555555" points="2113.48,-968.57 2122.23,-974.55 2119.12,-964.42 2113.48,-968.57"/>
<text xml:space="preserve" text-anchor="middle" x="1775.38" y="-802.45" font-family="Helvetica,sans-Serif" font-size="9.00">depends_on</text>
</g>
<!-- M_APP_NOTES&#45;&gt;M_DOMAIN_PROJECT -->
<g id="edge38" class="edge">
<title>M_APP_NOTES&#45;&gt;M_DOMAIN_PROJECT</title>
<path fill="none" stroke="#555555" d="M1886.9,-1106.61C1898.69,-1103.81 1910.42,-1100.62 1921.5,-1097 1984.19,-1076.5 2052.11,-1041.45 2094.3,-1018.01"/>
<polygon fill="#555555" stroke="#555555" points="2095.86,-1021.15 2102.87,-1013.2 2092.44,-1015.04 2095.86,-1021.15"/>
<text xml:space="preserve" text-anchor="middle" x="1957.38" y="-1094.84" font-family="Helvetica,sans-Serif" font-size="9.00">depends_on</text>
</g>
<!-- M_APP_PREVIEW -->
<g id="node7" class="node">
<title>M_APP_PREVIEW</title>
<path fill="#e8f1ff" stroke="black" d="M1065.25,-1096C1065.25,-1096 845.25,-1096 845.25,-1096 839.25,-1096 833.25,-1090 833.25,-1084 833.25,-1084 833.25,-1072 833.25,-1072 833.25,-1066 839.25,-1060 845.25,-1060 845.25,-1060 1065.25,-1060 1065.25,-1060 1071.25,-1060 1077.25,-1066 1077.25,-1072 1077.25,-1072 1077.25,-1084 1077.25,-1084 1077.25,-1090 1071.25,-1096 1065.25,-1096"/>
<text xml:space="preserve" text-anchor="middle" x="955.25" y="-1074.5" font-family="Helvetica,sans-Serif" font-size="10.00">M&#45;APP&#45;PREVIEW\nPreviewService\n[implemented]</text>
</g>
<!-- M_APP_PREVIEW&#45;&gt;M_DOMAIN_PROJECT -->
<g id="edge41" class="edge">
<title>M_APP_PREVIEW&#45;&gt;M_DOMAIN_PROJECT</title>
<path fill="none" stroke="#555555" d="M1059.96,-1059.56C1065.82,-1058.39 1071.61,-1057.2 1077.25,-1056 1219.65,-1025.74 1250.96,-995.85 1395.5,-978.5 1506.29,-965.2 1807.27,-977.07 1989.52,-986.09"/>
<polygon fill="#555555" stroke="#555555" points="1989.14,-989.57 1999.3,-986.57 1989.49,-982.58 1989.14,-989.57"/>
<text xml:space="preserve" text-anchor="middle" x="1507.38" y="-980.45" font-family="Helvetica,sans-Serif" font-size="9.00">depends_on</text>
</g>
<!-- M_APP_PROJECT -->
<g id="node8" class="node">
<title>M_APP_PROJECT</title>
<path fill="#e8f1ff" stroke="black" d="M1604.25,-842C1604.25,-842 1410.5,-842 1410.5,-842 1404.5,-842 1398.5,-836 1398.5,-830 1398.5,-830 1398.5,-818 1398.5,-818 1398.5,-812 1404.5,-806 1410.5,-806 1410.5,-806 1604.25,-806 1604.25,-806 1610.25,-806 1616.25,-812 1616.25,-818 1616.25,-818 1616.25,-830 1616.25,-830 1616.25,-836 1610.25,-842 1604.25,-842"/>
<text xml:space="preserve" text-anchor="middle" x="1507.38" y="-820.5" font-family="Helvetica,sans-Serif" font-size="10.00">M&#45;APP&#45;PROJECT\nProjectService\n[planned]</text>
</g>
<!-- M_APP_PROJECT&#45;&gt;M_DOMAIN_PROJECT -->
<g id="edge30" class="edge">
<title>M_APP_PROJECT&#45;&gt;M_DOMAIN_PROJECT</title>
<path fill="none" stroke="#555555" d="M1616.61,-815.8C1701.73,-812.91 1822.13,-816.79 1921.5,-850.5 1996.39,-875.91 2069.93,-934.57 2108.34,-968.5"/>
<polygon fill="#555555" stroke="#555555" points="2105.52,-970.68 2115.31,-974.74 2110.19,-965.47 2105.52,-970.68"/>
<text xml:space="preserve" text-anchor="middle" x="1775.38" y="-852.45" font-family="Helvetica,sans-Serif" font-size="9.00">depends_on</text>
</g>
<!-- M_APP_SERVICE -->
<g id="node9" class="node">
<title>M_APP_SERVICE</title>
<path fill="#e8f1ff" stroke="black" d="M1321.25,-900C1321.25,-900 1151.5,-900 1151.5,-900 1145.5,-900 1139.5,-894 1139.5,-888 1139.5,-888 1139.5,-876 1139.5,-876 1139.5,-870 1145.5,-864 1151.5,-864 1151.5,-864 1321.25,-864 1321.25,-864 1327.25,-864 1333.25,-870 1333.25,-876 1333.25,-876 1333.25,-888 1333.25,-888 1333.25,-894 1327.25,-900 1321.25,-900"/>
<text xml:space="preserve" text-anchor="middle" x="1236.38" y="-878.5" font-family="Helvetica,sans-Serif" font-size="10.00">M&#45;APP&#45;SERVICE\nAppService\n[partial]</text>
</g>
<!-- M_AUTO_ALIGN -->
<g id="node11" class="node">
<title>M_AUTO_ALIGN</title>
<path fill="#e8f1ff" stroke="black" d="M1852.75,-906C1852.75,-906 1698,-906 1698,-906 1692,-906 1686,-900 1686,-894 1686,-894 1686,-882 1686,-882 1686,-876 1692,-870 1698,-870 1698,-870 1852.75,-870 1852.75,-870 1858.75,-870 1864.75,-876 1864.75,-882 1864.75,-882 1864.75,-894 1864.75,-894 1864.75,-900 1858.75,-906 1852.75,-906"/>
<text xml:space="preserve" text-anchor="middle" x="1775.38" y="-884.5" font-family="Helvetica,sans-Serif" font-size="10.00">M&#45;AUTO&#45;ALIGN\nAutoAlign\n[partial]</text>
</g>
<!-- M_APP_SERVICE&#45;&gt;M_AUTO_ALIGN -->
<g id="edge9" class="edge">
<title>M_APP_SERVICE&#45;&gt;M_AUTO_ALIGN</title>
<path fill="none" stroke="#555555" d="M1333.69,-883.08C1429.79,-884.15 1576.79,-885.79 1674.21,-886.88"/>
<polygon fill="#555555" stroke="#555555" points="1674,-890.38 1684.03,-886.99 1674.07,-883.38 1674,-890.38"/>
<text xml:space="preserve" text-anchor="middle" x="1507.38" y="-888.18" font-family="Helvetica,sans-Serif" font-size="9.00">depends_on</text>
</g>
<!-- M_DETECT_SLIDES -->
<g id="node14" class="node">
<title>M_DETECT_SLIDES</title>
<path fill="#e8f1ff" stroke="black" d="M1883.5,-758C1883.5,-758 1667.25,-758 1667.25,-758 1661.25,-758 1655.25,-752 1655.25,-746 1655.25,-746 1655.25,-734 1655.25,-734 1655.25,-728 1661.25,-722 1667.25,-722 1667.25,-722 1883.5,-722 1883.5,-722 1889.5,-722 1895.5,-728 1895.5,-734 1895.5,-734 1895.5,-746 1895.5,-746 1895.5,-752 1889.5,-758 1883.5,-758"/>
<text xml:space="preserve" text-anchor="middle" x="1775.38" y="-736.5" font-family="Helvetica,sans-Serif" font-size="10.00">M&#45;DETECT&#45;SLIDES\nDetectSlides\n[implemented]</text>
</g>
<!-- M_APP_SERVICE&#45;&gt;M_DETECT_SLIDES -->
<g id="edge8" class="edge">
<title>M_APP_SERVICE&#45;&gt;M_DETECT_SLIDES</title>
<path fill="none" stroke="#555555" d="M1333.53,-873.63C1444.96,-863.73 1614.11,-847.95 1619.25,-843 1642.21,-820.9 1607.6,-795.39 1629.25,-772 1633.91,-766.97 1639.17,-762.63 1644.85,-758.91"/>
<polygon fill="#555555" stroke="#555555" points="1646.54,-761.97 1653.46,-753.96 1643.05,-755.91 1646.54,-761.97"/>
<text xml:space="preserve" text-anchor="middle" x="1507.38" y="-869.32" font-family="Helvetica,sans-Serif" font-size="9.00">depends_on</text>
</g>
<!-- M_APP_VALIDATE&#45;&gt;M_DOMAIN_PROJECT -->
<g id="edge40" class="edge">
<title>M_APP_VALIDATE&#45;&gt;M_DOMAIN_PROJECT</title>
<path fill="none" stroke="#555555" d="M1901.06,-1008.37C1929.64,-1006.62 1960.28,-1004.74 1989.67,-1002.94"/>
<polygon fill="#555555" stroke="#555555" points="1989.59,-1006.45 1999.36,-1002.35 1989.16,-999.47 1989.59,-1006.45"/>
<text xml:space="preserve" text-anchor="middle" x="1957.38" y="-1008.27" font-family="Helvetica,sans-Serif" font-size="9.00">depends_on</text>
</g>
<!-- M_CANONICAL_COMMANDS -->
<g id="node12" class="node">
<title>M_CANONICAL_COMMANDS</title>
<path fill="#e8f1ff" stroke="black" d="M798.75,-900C798.75,-900 542.75,-900 542.75,-900 536.75,-900 530.75,-894 530.75,-888 530.75,-888 530.75,-876 530.75,-876 530.75,-870 536.75,-864 542.75,-864 542.75,-864 798.75,-864 798.75,-864 804.75,-864 810.75,-870 810.75,-876 810.75,-876 810.75,-888 810.75,-888 810.75,-894 804.75,-900 798.75,-900"/>
<text xml:space="preserve" text-anchor="middle" x="670.75" y="-878.5" font-family="Helvetica,sans-Serif" font-size="10.00">M&#45;CANONICAL&#45;COMMANDS\nCommandRouter\n[planned]</text>
</g>
<!-- M_CANONICAL_COMMANDS&#45;&gt;M_APP_SERVICE -->
<g id="edge10" class="edge">
<title>M_CANONICAL_COMMANDS&#45;&gt;M_APP_SERVICE</title>
<path fill="none" stroke="#555555" d="M811.07,-882C908.92,-882 1037.87,-882 1127.83,-882"/>
<polygon fill="#555555" stroke="#555555" points="1127.64,-885.5 1137.64,-882 1127.64,-878.5 1127.64,-885.5"/>
<text xml:space="preserve" text-anchor="middle" x="955.25" y="-883.95" font-family="Helvetica,sans-Serif" font-size="9.00">depends_on</text>
</g>
<!-- M_DEDUPE -->
<g id="node13" class="node">
<title>M_DEDUPE</title>
<path fill="#e8f1ff" stroke="black" d="M2215.62,-758C2215.62,-758 2057.88,-758 2057.88,-758 2051.88,-758 2045.88,-752 2045.88,-746 2045.88,-746 2045.88,-734 2045.88,-734 2045.88,-728 2051.88,-722 2057.88,-722 2057.88,-722 2215.62,-722 2215.62,-722 2221.62,-722 2227.62,-728 2227.62,-734 2227.62,-734 2227.62,-746 2227.62,-746 2227.62,-752 2221.62,-758 2215.62,-758"/>
<text xml:space="preserve" text-anchor="middle" x="2136.75" y="-736.5" font-family="Helvetica,sans-Serif" font-size="10.00">M&#45;DEDUPE\nDedupe\n[implemented]</text>
</g>
<!-- M_DETECT_SLIDES&#45;&gt;M_DEDUPE -->
<g id="edge5" class="edge">
<title>M_DETECT_SLIDES&#45;&gt;M_DEDUPE</title>
<path fill="none" stroke="#555555" d="M1895.54,-740C1940.46,-740 1991.1,-740 2034.25,-740"/>
<polygon fill="#555555" stroke="#555555" points="2034.12,-743.5 2044.12,-740 2034.12,-736.5 2034.12,-743.5"/>
<text xml:space="preserve" text-anchor="middle" x="1957.38" y="-741.95" font-family="Helvetica,sans-Serif" font-size="9.00">depends_on</text>
</g>
<!-- M_DETECT_METRICS -->
<g id="node35" class="node">
<title>M_DETECT_METRICS</title>
<path fill="#e8f1ff" stroke="black" d="M2237.75,-559C2237.75,-559 2035.75,-559 2035.75,-559 2029.75,-559 2023.75,-553 2023.75,-547 2023.75,-547 2023.75,-535 2023.75,-535 2023.75,-529 2029.75,-523 2035.75,-523 2035.75,-523 2237.75,-523 2237.75,-523 2243.75,-523 2249.75,-529 2249.75,-535 2249.75,-535 2249.75,-547 2249.75,-547 2249.75,-553 2243.75,-559 2237.75,-559"/>
<text xml:space="preserve" text-anchor="middle" x="2136.75" y="-537.5" font-family="Helvetica,sans-Serif" font-size="10.00">M&#45;DETECT&#45;METRICS\nDetectMetrics\n[active]</text>
</g>
<!-- M_DETECT_SLIDES&#45;&gt;M_DETECT_METRICS -->
<g id="edge6" class="edge">
<title>M_DETECT_SLIDES&#45;&gt;M_DETECT_METRICS</title>
<path fill="none" stroke="#555555" d="M1809.54,-721.64C1874.84,-685.47 2020.04,-605.07 2092.66,-564.86"/>
<polygon fill="#555555" stroke="#555555" points="2094.03,-568.1 2101.08,-560.2 2090.64,-561.98 2094.03,-568.1"/>
<text xml:space="preserve" text-anchor="middle" x="1957.38" y="-654.36" font-family="Helvetica,sans-Serif" font-size="9.00">depends_on</text>
</g>
<!-- M_DETECT_PERF_DECISION -->
<g id="node16" class="node">
<title>M_DETECT_PERF_DECISION</title>
<path fill="#e8f1ff" stroke="black" d="M797.62,-676C797.62,-676 543.88,-676 543.88,-676 537.88,-676 531.88,-670 531.88,-664 531.88,-664 531.88,-652 531.88,-652 531.88,-646 537.88,-640 543.88,-640 543.88,-640 797.62,-640 797.62,-640 803.62,-640 809.62,-646 809.62,-652 809.62,-652 809.62,-664 809.62,-664 809.62,-670 803.62,-676 797.62,-676"/>
<text xml:space="preserve" text-anchor="middle" x="670.75" y="-654.5" font-family="Helvetica,sans-Serif" font-size="10.00">M&#45;DETECT&#45;PERF&#45;DECISION\nBottleneckDecision\n[done]</text>
</g>
<!-- M_DETECT_BENCHMARK -->
<g id="node34" class="node">
<title>M_DETECT_BENCHMARK</title>
<path fill="#e8f1ff" stroke="black" d="M1365.5,-594C1365.5,-594 1107.25,-594 1107.25,-594 1101.25,-594 1095.25,-588 1095.25,-582 1095.25,-582 1095.25,-570 1095.25,-570 1095.25,-564 1101.25,-558 1107.25,-558 1107.25,-558 1365.5,-558 1365.5,-558 1371.5,-558 1377.5,-564 1377.5,-570 1377.5,-570 1377.5,-582 1377.5,-582 1377.5,-588 1371.5,-594 1365.5,-594"/>
<text xml:space="preserve" text-anchor="middle" x="1236.38" y="-572.5" font-family="Helvetica,sans-Serif" font-size="10.00">M&#45;DETECT&#45;BENCHMARK\nDetectBenchmarkPlan\n[active]</text>
</g>
<!-- M_DETECT_PERF_DECISION&#45;&gt;M_DETECT_BENCHMARK -->
<g id="edge15" class="edge">
<title>M_DETECT_PERF_DECISION&#45;&gt;M_DETECT_BENCHMARK</title>
<path fill="none" stroke="#555555" d="M798.59,-639.55C887.4,-626.63 1006.02,-609.37 1097.23,-596.1"/>
<polygon fill="#555555" stroke="#555555" points="1097.6,-599.58 1106.99,-594.68 1096.59,-592.65 1097.6,-599.58"/>
<text xml:space="preserve" text-anchor="middle" x="955.25" y="-635.72" font-family="Helvetica,sans-Serif" font-size="9.00">depends_on</text>
</g>
<!-- M_COLAB -->
<g id="node17" class="node">
<title>M_COLAB</title>
<path fill="#e8f1ff" stroke="black" d="M323.75,-1414C323.75,-1414 130.75,-1414 130.75,-1414 124.75,-1414 118.75,-1408 118.75,-1402 118.75,-1402 118.75,-1390 118.75,-1390 118.75,-1384 124.75,-1378 130.75,-1378 130.75,-1378 323.75,-1378 323.75,-1378 329.75,-1378 335.75,-1384 335.75,-1390 335.75,-1390 335.75,-1402 335.75,-1402 335.75,-1408 329.75,-1414 323.75,-1414"/>
<text xml:space="preserve" text-anchor="middle" x="227.25" y="-1392.5" font-family="Helvetica,sans-Serif" font-size="10.00">M&#45;COLAB\nColabDeployment\n[implemented]</text>
</g>
<!-- M_CLI -->
<g id="node18" class="node">
<title>M_CLI</title>
<path fill="#e8f1ff" stroke="black" d="M1292.75,-1301C1292.75,-1301 1180,-1301 1180,-1301 1174,-1301 1168,-1295 1168,-1289 1168,-1289 1168,-1277 1168,-1277 1168,-1271 1174,-1265 1180,-1265 1180,-1265 1292.75,-1265 1292.75,-1265 1298.75,-1265 1304.75,-1271 1304.75,-1277 1304.75,-1277 1304.75,-1289 1304.75,-1289 1304.75,-1295 1298.75,-1301 1292.75,-1301"/>
<text xml:space="preserve" text-anchor="middle" x="1236.38" y="-1279.5" font-family="Helvetica,sans-Serif" font-size="10.00">M&#45;CLI\nCLI\n[implemented]</text>
</g>
<!-- M_CLI&#45;&gt;M_DETECT_SLIDES -->
<g id="edge2" class="edge">
<title>M_CLI&#45;&gt;M_DETECT_SLIDES</title>
<path fill="none" stroke="#555555" d="M1295.65,-1301.45C1380.17,-1324.15 1535.78,-1349.96 1619.25,-1264 1638.3,-1244.39 1611.91,-793.14 1629.25,-772 1633.87,-766.37 1639.23,-761.59 1645.12,-757.55"/>
<polygon fill="#555555" stroke="#555555" points="1646.68,-760.69 1653.47,-752.56 1643.09,-754.68 1646.68,-760.69"/>
<text xml:space="preserve" text-anchor="middle" x="1507.38" y="-1325.52" font-family="Helvetica,sans-Serif" font-size="9.00">depends_on</text>
</g>
<!-- M_CONFIG -->
<g id="node30" class="node">
<title>M_CONFIG</title>
<path fill="#e8f1ff" stroke="black" d="M1849.75,-594C1849.75,-594 1701,-594 1701,-594 1695,-594 1689,-588 1689,-582 1689,-582 1689,-570 1689,-570 1689,-564 1695,-558 1701,-558 1701,-558 1849.75,-558 1849.75,-558 1855.75,-558 1861.75,-564 1861.75,-570 1861.75,-570 1861.75,-582 1861.75,-582 1861.75,-588 1855.75,-594 1849.75,-594"/>
<text xml:space="preserve" text-anchor="middle" x="1775.38" y="-572.5" font-family="Helvetica,sans-Serif" font-size="10.00">M&#45;CONFIG\nConfig\n[implemented]</text>
</g>
<!-- M_CLI&#45;&gt;M_CONFIG -->
<g id="edge1" class="edge">
<title>M_CLI&#45;&gt;M_CONFIG</title>
<path fill="none" stroke="#555555" d="M1305.22,-1267.92C1333.08,-1262.14 1365.73,-1255.88 1395.5,-1251.5 1420.21,-1247.86 1602.28,-1248.32 1619.25,-1230 1638.88,-1208.8 1617.41,-736.36 1629.25,-710 1650.7,-662.25 1698.17,-623.8 1733,-600.54"/>
<polygon fill="#555555" stroke="#555555" points="1734.72,-603.6 1741.19,-595.21 1730.9,-597.73 1734.72,-603.6"/>
<text xml:space="preserve" text-anchor="middle" x="1507.38" y="-1253.45" font-family="Helvetica,sans-Serif" font-size="9.00">depends_on</text>
</g>
<!-- M_CLI_ADAPTER -->
<g id="node19" class="node">
<title>M_CLI_ADAPTER</title>
<path fill="#e8f1ff" stroke="black" d="M309.5,-1332C309.5,-1332 145,-1332 145,-1332 139,-1332 133,-1326 133,-1320 133,-1320 133,-1308 133,-1308 133,-1302 139,-1296 145,-1296 145,-1296 309.5,-1296 309.5,-1296 315.5,-1296 321.5,-1302 321.5,-1308 321.5,-1308 321.5,-1320 321.5,-1320 321.5,-1326 315.5,-1332 309.5,-1332"/>
<text xml:space="preserve" text-anchor="middle" x="227.25" y="-1310.5" font-family="Helvetica,sans-Serif" font-size="10.00">M&#45;CLI&#45;ADAPTER\nCliAdapter\n[active]</text>
</g>
<!-- M_CLI_ADAPTER&#45;&gt;M_APP_ALIGN -->
<g id="edge22" class="edge">
<title>M_CLI_ADAPTER&#45;&gt;M_APP_ALIGN</title>
<path fill="none" stroke="#555555" d="M321.76,-1324.78C362.45,-1324.25 407.75,-1315.81 438.5,-1287 581.24,-1153.24 378.43,-987.05 522.75,-855 612.94,-772.47 1529.99,-680.46 1619.25,-764 1643.8,-786.98 1606.91,-889.86 1629.25,-915 1634.51,-920.92 1640.62,-925.81 1647.29,-929.82"/>
<polygon fill="#555555" stroke="#555555" points="1645.6,-932.89 1656.09,-934.39 1648.83,-926.68 1645.6,-932.89"/>
<text xml:space="preserve" text-anchor="middle" x="955.25" y="-777.07" font-family="Helvetica,sans-Serif" font-size="9.00">depends_on</text>
</g>
<!-- M_CLI_ADAPTER&#45;&gt;M_APP_AUTO -->
<g id="edge26" class="edge">
<title>M_CLI_ADAPTER&#45;&gt;M_APP_AUTO</title>
<path fill="none" stroke="#555555" d="M321.66,-1326.68C517.62,-1351.15 963.05,-1394.85 1077.25,-1304 1103.74,-1282.93 1079.12,-1259.76 1095.25,-1230 1122.47,-1179.78 1170.82,-1133.83 1202.99,-1106.63"/>
<polygon fill="#555555" stroke="#555555" points="1204.99,-1109.51 1210.44,-1100.43 1200.51,-1104.13 1204.99,-1109.51"/>
<text xml:space="preserve" text-anchor="middle" x="670.75" y="-1360.88" font-family="Helvetica,sans-Serif" font-size="9.00">depends_on</text>
</g>
<!-- M_CLI_ADAPTER&#45;&gt;M_APP_DETECT -->
<g id="edge21" class="edge">
<title>M_CLI_ADAPTER&#45;&gt;M_APP_DETECT</title>
<path fill="none" stroke="#555555" d="M321.91,-1330.46C359.07,-1338.7 401.65,-1350.33 438.5,-1366 479.21,-1383.31 480.24,-1406.74 522.75,-1419 730.39,-1478.88 1346.03,-1556.83 1619.25,-1409 1700.23,-1365.19 1746.61,-1258.58 1765.03,-1206.96"/>
<polygon fill="#555555" stroke="#555555" points="1768.28,-1208.27 1768.23,-1197.67 1761.66,-1205.98 1768.28,-1208.27"/>
<text xml:space="preserve" text-anchor="middle" x="955.25" y="-1494.85" font-family="Helvetica,sans-Serif" font-size="9.00">depends_on</text>
</g>
<!-- M_CLI_ADAPTER&#45;&gt;M_APP_EXPORT -->
<g id="edge24" class="edge">
<title>M_CLI_ADAPTER&#45;&gt;M_APP_EXPORT</title>
<path fill="none" stroke="#555555" d="M321.91,-1325.59C379.7,-1332.15 455.4,-1339.69 522.75,-1343 825.38,-1357.86 1603.94,-1340.97 1619.25,-1326 1637.46,-1308.19 1612.55,-1116.23 1629.25,-1097 1635.03,-1090.34 1641.89,-1084.98 1649.42,-1080.7"/>
<polygon fill="#555555" stroke="#555555" points="1650.88,-1083.88 1658.31,-1076.33 1647.79,-1077.6 1650.88,-1083.88"/>
<text xml:space="preserve" text-anchor="middle" x="955.25" y="-1350.71" font-family="Helvetica,sans-Serif" font-size="9.00">depends_on</text>
</g>
<!-- M_CLI_ADAPTER&#45;&gt;M_APP_NOTES -->
<g id="edge23" class="edge">
<title>M_CLI_ADAPTER&#45;&gt;M_APP_NOTES</title>
<path fill="none" stroke="#555555" d="M300.8,-1332.46C373.49,-1350.61 480.48,-1376.25 522.75,-1381 663.34,-1396.79 1582.61,-1406.45 1619.25,-1371 1636.84,-1353.98 1613.19,-1169.46 1629.25,-1151 1636.11,-1143.12 1644.46,-1137.07 1653.66,-1132.45"/>
<polygon fill="#555555" stroke="#555555" points="1654.77,-1135.79 1662.55,-1128.6 1651.98,-1129.37 1654.77,-1135.79"/>
<text xml:space="preserve" text-anchor="middle" x="955.25" y="-1397.13" font-family="Helvetica,sans-Serif" font-size="9.00">depends_on</text>
</g>
<!-- M_CLI_ADAPTER&#45;&gt;M_APP_PREVIEW -->
<g id="edge20" class="edge">
<title>M_CLI_ADAPTER&#45;&gt;M_APP_PREVIEW</title>
<path fill="none" stroke="#555555" d="M321.89,-1330.15C445.95,-1346.34 666.68,-1356.52 817.62,-1258 829.56,-1250.21 825.31,-1241.84 833.25,-1230 864.06,-1184.05 905.07,-1134.58 930.55,-1104.96"/>
<polygon fill="#555555" stroke="#555555" points="933.04,-1107.43 936.94,-1097.58 927.75,-1102.85 933.04,-1107.43"/>
<text xml:space="preserve" text-anchor="middle" x="482.38" y="-1342.48" font-family="Helvetica,sans-Serif" font-size="9.00">depends_on</text>
</g>
<!-- M_CLI_ADAPTER&#45;&gt;M_APP_VALIDATE -->
<g id="edge25" class="edge">
<title>M_CLI_ADAPTER&#45;&gt;M_APP_VALIDATE</title>
<path fill="none" stroke="#555555" d="M321.89,-1302.99C580.35,-1273.47 1290.41,-1198.57 1377.5,-1256 1394.45,-1267.18 1378.55,-1286.82 1395.5,-1298 1437.01,-1325.37 1583.41,-1332.46 1619.25,-1298 1639.69,-1278.35 1610.7,-1064.45 1629.25,-1043 1632.64,-1039.08 1636.4,-1035.61 1640.46,-1032.54"/>
<polygon fill="#555555" stroke="#555555" points="1642.04,-1035.69 1648.5,-1027.28 1638.21,-1029.83 1642.04,-1035.69"/>
<text xml:space="preserve" text-anchor="middle" x="955.25" y="-1254.36" font-family="Helvetica,sans-Serif" font-size="9.00">depends_on</text>
</g>
<!-- M_APP_BOOTSTRAP -->
<g id="node26" class="node">
<title>M_APP_BOOTSTRAP</title>
<path fill="#e8f1ff" stroke="black" d="M803.25,-508C803.25,-508 538.25,-508 538.25,-508 532.25,-508 526.25,-502 526.25,-496 526.25,-496 526.25,-484 526.25,-484 526.25,-478 532.25,-472 538.25,-472 538.25,-472 803.25,-472 803.25,-472 809.25,-472 815.25,-478 815.25,-484 815.25,-484 815.25,-496 815.25,-496 815.25,-502 809.25,-508 803.25,-508"/>
<text xml:space="preserve" text-anchor="middle" x="670.75" y="-486.5" font-family="Helvetica,sans-Serif" font-size="10.00">M&#45;APP&#45;BOOTSTRAP\nApplicationServicesBootstrap\n[active]</text>
</g>
<!-- M_CLI_ADAPTER&#45;&gt;M_APP_BOOTSTRAP -->
<g id="edge19" class="edge">
<title>M_CLI_ADAPTER&#45;&gt;M_APP_BOOTSTRAP</title>
<path fill="none" stroke="#555555" d="M321.84,-1325.69C362.92,-1325.46 408.52,-1317 438.5,-1287 464.59,-1260.89 505.97,-660.87 522.75,-628 547.48,-579.56 596.35,-539.08 630.94,-514.74"/>
<polygon fill="#555555" stroke="#555555" points="632.79,-517.72 639.04,-509.17 628.82,-511.96 632.79,-517.72"/>
<text xml:space="preserve" text-anchor="middle" x="482.38" y="-1200.54" font-family="Helvetica,sans-Serif" font-size="9.00">depends_on</text>
</g>
<!-- M_DESKTOP_BOOTSTRAP -->
<g id="node20" class="node">
<title>M_DESKTOP_BOOTSTRAP</title>
<path fill="#e8f1ff" stroke="black" d="M348.88,-1278C348.88,-1278 105.62,-1278 105.62,-1278 99.62,-1278 93.62,-1272 93.62,-1266 93.62,-1266 93.62,-1254 93.62,-1254 93.62,-1248 99.62,-1242 105.62,-1242 105.62,-1242 348.88,-1242 348.88,-1242 354.88,-1242 360.88,-1248 360.88,-1254 360.88,-1254 360.88,-1266 360.88,-1266 360.88,-1272 354.88,-1278 348.88,-1278"/>
<text xml:space="preserve" text-anchor="middle" x="227.25" y="-1256.5" font-family="Helvetica,sans-Serif" font-size="10.00">M&#45;DESKTOP&#45;BOOTSTRAP\nDesktopBootstrap\n[active]</text>
</g>
<!-- M_DESKTOP_BOOTSTRAP&#45;&gt;M_APP_BOOTSTRAP -->
<g id="edge12" class="edge">
<title>M_DESKTOP_BOOTSTRAP&#45;&gt;M_APP_BOOTSTRAP</title>
<path fill="none" stroke="#555555" d="M233.95,-1241.57C258.95,-1162.52 364.83,-846.18 522.75,-628 555.3,-583.03 603.93,-540.82 636.23,-515.2"/>
<polygon fill="#555555" stroke="#555555" points="637.98,-518.28 643.69,-509.36 633.66,-512.77 637.98,-518.28"/>
<text xml:space="preserve" text-anchor="middle" x="482.38" y="-725.05" font-family="Helvetica,sans-Serif" font-size="9.00">depends_on</text>
</g>
<!-- M_ADAPTERS -->
<g id="node21" class="node">
<title>M_ADAPTERS</title>
<path fill="#e8f1ff" stroke="black" d="M1348.62,-188C1348.62,-188 1124.12,-188 1124.12,-188 1118.12,-188 1112.12,-182 1112.12,-176 1112.12,-176 1112.12,-164 1112.12,-164 1112.12,-158 1118.12,-152 1124.12,-152 1124.12,-152 1348.62,-152 1348.62,-152 1354.62,-152 1360.62,-158 1360.62,-164 1360.62,-164 1360.62,-176 1360.62,-176 1360.62,-182 1354.62,-188 1348.62,-188"/>
<text xml:space="preserve" text-anchor="middle" x="1236.38" y="-166.5" font-family="Helvetica,sans-Serif" font-size="10.00">M&#45;ADAPTERS\nLegacyPortAdapters\n[implemented]</text>
</g>
<!-- M_BACKEND_PYAV -->
<g id="node22" class="node">
<title>M_BACKEND_PYAV</title>
<path fill="#e8f1ff" stroke="black" d="M781.88,-168C781.88,-168 559.62,-168 559.62,-168 553.62,-168 547.62,-162 547.62,-156 547.62,-156 547.62,-144 547.62,-144 547.62,-138 553.62,-132 559.62,-132 559.62,-132 781.88,-132 781.88,-132 787.88,-132 793.88,-138 793.88,-144 793.88,-144 793.88,-156 793.88,-156 793.88,-162 787.88,-168 781.88,-168"/>
<text xml:space="preserve" text-anchor="middle" x="670.75" y="-146.5" font-family="Helvetica,sans-Serif" font-size="10.00">M&#45;BACKEND&#45;PYAV\nPyAVBackend\n[implemented]</text>
</g>
<!-- M_BACKENDS -->
<g id="node23" class="node">
<title>M_BACKENDS</title>
<path fill="#e8f1ff" stroke="black" d="M1326.88,-134C1326.88,-134 1145.88,-134 1145.88,-134 1139.88,-134 1133.88,-128 1133.88,-122 1133.88,-122 1133.88,-110 1133.88,-110 1133.88,-104 1139.88,-98 1145.88,-98 1145.88,-98 1326.88,-98 1326.88,-98 1332.88,-98 1338.88,-104 1338.88,-110 1338.88,-110 1338.88,-122 1338.88,-122 1338.88,-128 1332.88,-134 1326.88,-134"/>
<text xml:space="preserve" text-anchor="middle" x="1236.38" y="-112.5" font-family="Helvetica,sans-Serif" font-size="10.00">M&#45;BACKENDS\nBackends\n[implemented]</text>
</g>
<!-- M_BACKEND_PYAV&#45;&gt;M_BACKENDS -->
<g id="edge44" class="edge">
<title>M_BACKEND_PYAV&#45;&gt;M_BACKENDS</title>
<path fill="none" stroke="#555555" d="M742.38,-131.54C770.45,-125.09 803.17,-118.68 833.25,-115.5 930.39,-105.24 1041.47,-106.34 1122.23,-109.46"/>
<polygon fill="#555555" stroke="#555555" points="1121.78,-112.94 1131.91,-109.85 1122.06,-105.95 1121.78,-112.94"/>
<text xml:space="preserve" text-anchor="middle" x="955.25" y="-117.45" font-family="Helvetica,sans-Serif" font-size="9.00">depends_on</text>
</g>
<!-- M_BACKENDS&#45;&gt;M_BACKEND_PYAV -->
<g id="edge4" class="edge">
<title>M_BACKENDS&#45;&gt;M_BACKEND_PYAV</title>
<path fill="none" stroke="#555555" d="M1133.75,-124.04C1114.97,-125.43 1095.52,-126.81 1077.25,-128 986.72,-133.89 884.76,-139.42 805.72,-143.46"/>
<polygon fill="#555555" stroke="#555555" points="805.55,-139.96 795.74,-143.97 805.91,-146.95 805.55,-139.96"/>
<text xml:space="preserve" text-anchor="middle" x="955.25" y="-143.83" font-family="Helvetica,sans-Serif" font-size="9.00">depends_on</text>
</g>
<!-- M_BACKEND_OPENCV -->
<g id="node40" class="node">
<title>M_BACKEND_OPENCV</title>
<path fill="#e8f1ff" stroke="black" d="M1901.5,-134C1901.5,-134 1649.25,-134 1649.25,-134 1643.25,-134 1637.25,-128 1637.25,-122 1637.25,-122 1637.25,-110 1637.25,-110 1637.25,-104 1643.25,-98 1649.25,-98 1649.25,-98 1901.5,-98 1901.5,-98 1907.5,-98 1913.5,-104 1913.5,-110 1913.5,-110 1913.5,-122 1913.5,-122 1913.5,-128 1907.5,-134 1901.5,-134"/>
<text xml:space="preserve" text-anchor="middle" x="1775.38" y="-112.5" font-family="Helvetica,sans-Serif" font-size="10.00">M&#45;BACKEND&#45;OPENCV\nOpenCVBackend\n[implemented]</text>
</g>
<!-- M_BACKENDS&#45;&gt;M_BACKEND_OPENCV -->
<g id="edge3" class="edge">
<title>M_BACKENDS&#45;&gt;M_BACKEND_OPENCV</title>
<path fill="none" stroke="#555555" d="M1339.33,-116C1420.21,-116 1534.43,-116 1625.53,-116"/>
<polygon fill="#555555" stroke="#555555" points="1625.3,-119.5 1635.3,-116 1625.3,-112.5 1625.3,-119.5"/>
<text xml:space="preserve" text-anchor="middle" x="1507.38" y="-117.95" font-family="Helvetica,sans-Serif" font-size="9.00">depends_on</text>
</g>
<!-- M_DEBUG_MCP -->
<g id="node24" class="node">
<title>M_DEBUG_MCP</title>
<path fill="#e8f1ff" stroke="black" d="M322.25,-188C322.25,-188 132.25,-188 132.25,-188 126.25,-188 120.25,-182 120.25,-176 120.25,-176 120.25,-164 120.25,-164 120.25,-158 126.25,-152 132.25,-152 132.25,-152 322.25,-152 322.25,-152 328.25,-152 334.25,-158 334.25,-164 334.25,-164 334.25,-176 334.25,-176 334.25,-182 328.25,-188 322.25,-188"/>
<text xml:space="preserve" text-anchor="middle" x="227.25" y="-166.5" font-family="Helvetica,sans-Serif" font-size="10.00">M&#45;DEBUG&#45;MCP\nMcpServer\n[implemented]</text>
</g>
<!-- M_DEBUG_ACTION -->
<g id="node32" class="node">
<title>M_DEBUG_ACTION</title>
<path fill="#e8f1ff" stroke="black" d="M782.25,-330C782.25,-330 559.25,-330 559.25,-330 553.25,-330 547.25,-324 547.25,-318 547.25,-318 547.25,-306 547.25,-306 547.25,-300 553.25,-294 559.25,-294 559.25,-294 782.25,-294 782.25,-294 788.25,-294 794.25,-300 794.25,-306 794.25,-306 794.25,-318 794.25,-318 794.25,-324 788.25,-330 782.25,-330"/>
<text xml:space="preserve" text-anchor="middle" x="670.75" y="-308.5" font-family="Helvetica,sans-Serif" font-size="10.00">M&#45;DEBUG&#45;ACTION\nActionRegistry\n[implemented]</text>
</g>
<!-- M_DEBUG_MCP&#45;&gt;M_DEBUG_ACTION -->
<g id="edge7" class="edge">
<title>M_DEBUG_MCP&#45;&gt;M_DEBUG_ACTION</title>
<path fill="none" stroke="#555555" d="M334.74,-174.51C371.85,-181.25 411.03,-194.97 438.5,-222 460.79,-243.93 432.74,-269.68 456.5,-290 478.57,-308.87 507,-318.29 535.86,-322.25"/>
<polygon fill="#555555" stroke="#555555" points="535.1,-325.69 545.43,-323.34 535.89,-318.73 535.1,-325.69"/>
<text xml:space="preserve" text-anchor="middle" x="482.38" y="-318.02" font-family="Helvetica,sans-Serif" font-size="9.00">depends_on</text>
</g>
<!-- M_ANALYSIS_SCALE -->
<g id="node25" class="node">
<title>M_ANALYSIS_SCALE</title>
<path fill="#e8f1ff" stroke="black" d="M1350.5,-540C1350.5,-540 1122.25,-540 1122.25,-540 1116.25,-540 1110.25,-534 1110.25,-528 1110.25,-528 1110.25,-516 1110.25,-516 1110.25,-510 1116.25,-504 1122.25,-504 1122.25,-504 1350.5,-504 1350.5,-504 1356.5,-504 1362.5,-510 1362.5,-516 1362.5,-516 1362.5,-528 1362.5,-528 1362.5,-534 1356.5,-540 1350.5,-540"/>
<text xml:space="preserve" text-anchor="middle" x="1236.38" y="-518.5" font-family="Helvetica,sans-Serif" font-size="10.00">M&#45;ANALYSIS&#45;SCALE\nAnalysisScale\n[implemented]</text>
</g>
<!-- M_ANALYSIS_SCALE&#45;&gt;M_CONFIG -->
<g id="edge18" class="edge">
<title>M_ANALYSIS_SCALE&#45;&gt;M_CONFIG</title>
<path fill="none" stroke="#555555" d="M1362.94,-534.63C1458.85,-544.27 1589.11,-557.37 1677.17,-566.23"/>
<polygon fill="#555555" stroke="#555555" points="1676.69,-569.69 1686.99,-567.21 1677.4,-562.73 1676.69,-569.69"/>
<text xml:space="preserve" text-anchor="middle" x="1507.38" y="-561.99" font-family="Helvetica,sans-Serif" font-size="9.00">depends_on</text>
</g>
<!-- M_APP_BOOTSTRAP&#45;&gt;M_APP_AUTO -->
<g id="edge28" class="edge">
<title>M_APP_BOOTSTRAP&#45;&gt;M_APP_AUTO</title>
<path fill="none" stroke="#555555" d="M701.63,-508.41C736.26,-531.57 791.85,-574.83 817.62,-628 851.49,-697.87 794.21,-734.89 833.25,-802 911.24,-936.06 1082.44,-1020.78 1174.28,-1058.37"/>
<polygon fill="#555555" stroke="#555555" points="1172.82,-1061.56 1183.41,-1062.05 1175.44,-1055.06 1172.82,-1061.56"/>
<text xml:space="preserve" text-anchor="middle" x="955.25" y="-1013.96" font-family="Helvetica,sans-Serif" font-size="9.00">depends_on</text>
</g>
<!-- M_APP_BOOTSTRAP&#45;&gt;M_APP_LLM -->
<g id="edge43" class="edge">
<title>M_APP_BOOTSTRAP&#45;&gt;M_APP_LLM</title>
<path fill="none" stroke="#555555" d="M722.23,-471.51C753.68,-460.98 795.26,-448.86 833.25,-443.5 953.08,-426.59 1291.41,-376.95 1377.5,-462 1416.18,-500.21 1368.55,-658.78 1395.5,-706 1408.6,-728.94 1431.66,-746.61 1453.37,-759.2"/>
<polygon fill="#555555" stroke="#555555" points="1451.44,-762.13 1461.89,-763.9 1454.82,-756.01 1451.44,-762.13"/>
<text xml:space="preserve" text-anchor="middle" x="955.25" y="-445.45" font-family="Helvetica,sans-Serif" font-size="9.00">depends_on</text>
</g>
<!-- M_APP_BOOTSTRAP&#45;&gt;M_APP_PROJECT -->
<g id="edge42" class="edge">
<title>M_APP_BOOTSTRAP&#45;&gt;M_APP_PROJECT</title>
<path fill="none" stroke="#555555" d="M815.73,-480.74C1010.37,-469.77 1337.85,-457.34 1377.5,-495 1424.63,-539.77 1357.77,-730.51 1392.9,-796.64"/>
<polygon fill="#555555" stroke="#555555" points="1389.77,-798.26 1398.29,-804.55 1395.55,-794.31 1389.77,-798.26"/>
<text xml:space="preserve" text-anchor="middle" x="955.25" y="-481.47" font-family="Helvetica,sans-Serif" font-size="9.00">depends_on</text>
</g>
<!-- M_APP_BOOTSTRAP&#45;&gt;M_ADAPTERS -->
<g id="edge27" class="edge">
<title>M_APP_BOOTSTRAP&#45;&gt;M_ADAPTERS</title>
<path fill="none" stroke="#555555" d="M696.44,-471.75C759.99,-425.39 935.4,-301.15 1095.25,-222 1117.83,-210.82 1143.45,-200.64 1166.55,-192.3"/>
<polygon fill="#555555" stroke="#555555" points="1167.63,-195.64 1175.88,-188.99 1165.29,-189.04 1167.63,-195.64"/>
<text xml:space="preserve" text-anchor="middle" x="955.25" y="-374.86" font-family="Helvetica,sans-Serif" font-size="9.00">depends_on</text>
</g>
<!-- M_APP_IDENTITY -->
<g id="node27" class="node">
<title>M_APP_IDENTITY</title>
<path fill="#e8f1ff" stroke="black" d="M328.25,-270C328.25,-270 126.25,-270 126.25,-270 120.25,-270 114.25,-264 114.25,-258 114.25,-258 114.25,-246 114.25,-246 114.25,-240 120.25,-234 126.25,-234 126.25,-234 328.25,-234 328.25,-234 334.25,-234 340.25,-240 340.25,-246 340.25,-246 340.25,-258 340.25,-258 340.25,-264 334.25,-270 328.25,-270"/>
<text xml:space="preserve" text-anchor="middle" x="227.25" y="-248.5" font-family="Helvetica,sans-Serif" font-size="10.00">M&#45;APP&#45;IDENTITY\nApplicationIdentity\n[active]</text>
</g>
<!-- M_APP_INPUT_RESOLVER -->
<g id="node28" class="node">
<title>M_APP_INPUT_RESOLVER</title>
<path fill="#e8f1ff" stroke="black" d="M338.75,-324C338.75,-324 115.75,-324 115.75,-324 109.75,-324 103.75,-318 103.75,-312 103.75,-312 103.75,-300 103.75,-300 103.75,-294 109.75,-288 115.75,-288 115.75,-288 338.75,-288 338.75,-288 344.75,-288 350.75,-294 350.75,-300 350.75,-300 350.75,-312 350.75,-312 350.75,-318 344.75,-324 338.75,-324"/>
<text xml:space="preserve" text-anchor="middle" x="227.25" y="-302.5" font-family="Helvetica,sans-Serif" font-size="10.00">M&#45;APP&#45;INPUT&#45;RESOLVER\nInputResolver\n[active]</text>
</g>
<!-- M_APP_ERRORS -->
<g id="node38" class="node">
<title>M_APP_ERRORS</title>
<path fill="#e8f1ff" stroke="black" d="M709.88,-52C709.88,-52 631.62,-52 631.62,-52 625.62,-52 619.62,-46 619.62,-40 619.62,-40 619.62,-28 619.62,-28 619.62,-22 625.62,-16 631.62,-16 631.62,-16 709.88,-16 709.88,-16 715.88,-16 721.88,-22 721.88,-28 721.88,-28 721.88,-40 721.88,-40 721.88,-46 715.88,-52 709.88,-52"/>
<text xml:space="preserve" text-anchor="middle" x="670.75" y="-30.5" font-family="Helvetica,sans-Serif" font-size="10.00">M&#45;APP&#45;ERRORS\n</text>
</g>
<!-- M_APP_INPUT_RESOLVER&#45;&gt;M_APP_ERRORS -->
<g id="edge11" class="edge">
<title>M_APP_INPUT_RESOLVER&#45;&gt;M_APP_ERRORS</title>
<path fill="none" stroke="#555555" d="M351.11,-301.8C380.59,-297.68 411.37,-290.68 438.5,-279 475.27,-263.17 489.2,-257.21 508.25,-222 537.18,-168.54 485.07,-133.7 522.75,-86 543.3,-59.98 577.82,-46.96 608.26,-40.45"/>
<polygon fill="#555555" stroke="#555555" points="608.6,-43.95 617.76,-38.62 607.28,-37.07 608.6,-43.95"/>
<text xml:space="preserve" text-anchor="middle" x="482.38" y="-272.32" font-family="Helvetica,sans-Serif" font-size="9.00">depends_on</text>
</g>
<!-- M_ATOMIC_JSON -->
<g id="node29" class="node">
<title>M_ATOMIC_JSON</title>
<path fill="#e8f1ff" stroke="black" d="M317,-378C317,-378 137.5,-378 137.5,-378 131.5,-378 125.5,-372 125.5,-366 125.5,-366 125.5,-354 125.5,-354 125.5,-348 131.5,-342 137.5,-342 137.5,-342 317,-342 317,-342 323,-342 329,-348 329,-354 329,-354 329,-366 329,-366 329,-372 323,-378 317,-378"/>
<text xml:space="preserve" text-anchor="middle" x="227.25" y="-356.5" font-family="Helvetica,sans-Serif" font-size="10.00">M&#45;ATOMIC&#45;JSON\nAtomicJson\n[planned]</text>
</g>
<!-- M_CONFIRM_POLICY -->
<g id="node31" class="node">
<title>M_CONFIRM_POLICY</title>
<path fill="#e8f1ff" stroke="black" d="M331.25,-432C331.25,-432 123.25,-432 123.25,-432 117.25,-432 111.25,-426 111.25,-420 111.25,-420 111.25,-408 111.25,-408 111.25,-402 117.25,-396 123.25,-396 123.25,-396 331.25,-396 331.25,-396 337.25,-396 343.25,-402 343.25,-408 343.25,-408 343.25,-420 343.25,-420 343.25,-426 337.25,-432 331.25,-432"/>
<text xml:space="preserve" text-anchor="middle" x="227.25" y="-410.5" font-family="Helvetica,sans-Serif" font-size="10.00">M&#45;CONFIRM&#45;POLICY\nConfirmPolicy\n[planned]</text>
</g>
<!-- M_DEBUG_EXPORT -->
<g id="node33" class="node">
<title>M_DEBUG_EXPORT</title>
<path fill="#e8f1ff" stroke="black" d="M336.12,-486C336.12,-486 118.38,-486 118.38,-486 112.38,-486 106.38,-480 106.38,-474 106.38,-474 106.38,-462 106.38,-462 106.38,-456 112.38,-450 118.38,-450 118.38,-450 336.12,-450 336.12,-450 342.12,-450 348.12,-456 348.12,-462 348.12,-462 348.12,-474 348.12,-474 348.12,-480 342.12,-486 336.12,-486"/>
<text xml:space="preserve" text-anchor="middle" x="227.25" y="-464.5" font-family="Helvetica,sans-Serif" font-size="10.00">M&#45;DEBUG&#45;EXPORT\nDebugExport\n[implemented]</text>
</g>
<!-- M_DETECT_BENCHMARK&#45;&gt;M_DETECT_SLIDES -->
<g id="edge13" class="edge">
<title>M_DETECT_BENCHMARK&#45;&gt;M_DETECT_SLIDES</title>
<path fill="none" stroke="#555555" d="M1297.93,-594.49C1397.81,-625 1596.59,-685.7 1703.09,-718.23"/>
<polygon fill="#555555" stroke="#555555" points="1702.01,-721.56 1712.59,-721.13 1704.05,-714.86 1702.01,-721.56"/>
<text xml:space="preserve" text-anchor="middle" x="1507.38" y="-693.49" font-family="Helvetica,sans-Serif" font-size="9.00">depends_on</text>
</g>
<!-- M_DETECT_BENCHMARK&#45;&gt;M_DETECT_METRICS -->
<g id="edge14" class="edge">
<title>M_DETECT_BENCHMARK&#45;&gt;M_DETECT_METRICS</title>
<path fill="none" stroke="#555555" d="M1356.11,-557.59C1363.48,-555.08 1370.67,-552.24 1377.5,-549 1386.91,-544.54 1385.71,-537.55 1395.5,-534 1617.36,-453.67 1901.72,-492.16 2044.84,-520.36"/>
<polygon fill="#555555" stroke="#555555" points="2043.75,-523.71 2054.25,-522.24 2045.13,-516.85 2043.75,-523.71"/>
<text xml:space="preserve" text-anchor="middle" x="1775.38" y="-501.95" font-family="Helvetica,sans-Serif" font-size="9.00">depends_on</text>
</g>
<!-- M_DETECT_TARGET_DISCRIMINATION_R2 -->
<g id="node36" class="node">
<title>M_DETECT_TARGET_DISCRIMINATION_R2</title>
<path fill="#e8f1ff" stroke="black" d="M426.5,-540C426.5,-540 28,-540 28,-540 22,-540 16,-534 16,-528 16,-528 16,-516 16,-516 16,-510 22,-504 28,-504 28,-504 426.5,-504 426.5,-504 432.5,-504 438.5,-510 438.5,-516 438.5,-516 438.5,-528 438.5,-528 438.5,-534 432.5,-540 426.5,-540"/>
<text xml:space="preserve" text-anchor="middle" x="227.25" y="-518.5" font-family="Helvetica,sans-Serif" font-size="10.00">M&#45;DETECT&#45;TARGET&#45;DISCRIMINATION&#45;R2\nTargetOptimizationDiscriminationR2\n[verified]</text>
</g>
<!-- M_DETECT_TARGET_DISCRIMINATION_R2&#45;&gt;M_DETECT_PERF_DECISION -->
<g id="edge16" class="edge">
<title>M_DETECT_TARGET_DISCRIMINATION_R2&#45;&gt;M_DETECT_PERF_DECISION</title>
<path fill="none" stroke="#555555" d="M427.8,-540.42C431.52,-543.05 435.09,-545.91 438.5,-549 465.16,-573.21 429.99,-603.63 456.5,-628 474.4,-644.45 496.97,-654.48 520.68,-660.29"/>
<polygon fill="#555555" stroke="#555555" points="519.65,-663.65 530.17,-662.35 521.14,-656.81 519.65,-663.65"/>
<text xml:space="preserve" text-anchor="middle" x="482.38" y="-657.94" font-family="Helvetica,sans-Serif" font-size="9.00">depends_on</text>
</g>
<!-- M_DETECT_TARGET_DISCRIMINATION_R2&#45;&gt;M_BACKEND_PYAV -->
<g id="edge17" class="edge">
<title>M_DETECT_TARGET_DISCRIMINATION_R2&#45;&gt;M_BACKEND_PYAV</title>
<path fill="none" stroke="#555555" d="M427.03,-503.53C431.01,-500.92 434.84,-498.08 438.5,-495 462.79,-474.56 502.12,-246.13 522.75,-222 541.66,-199.88 568.96,-183.94 594.91,-172.77"/>
<polygon fill="#555555" stroke="#555555" points="596.21,-176.02 604.13,-169 593.55,-169.54 596.21,-176.02"/>
<text xml:space="preserve" text-anchor="middle" x="482.38" y="-451.99" font-family="Helvetica,sans-Serif" font-size="9.00">depends_on</text>
</g>
<!-- M_DOMAIN_EVENTS -->
<g id="node37" class="node">
<title>M_DOMAIN_EVENTS</title>
<path fill="#e8f1ff" stroke="black" d="M331.25,-594C331.25,-594 123.25,-594 123.25,-594 117.25,-594 111.25,-588 111.25,-582 111.25,-582 111.25,-570 111.25,-570 111.25,-564 117.25,-558 123.25,-558 123.25,-558 331.25,-558 331.25,-558 337.25,-558 343.25,-564 343.25,-570 343.25,-570 343.25,-582 343.25,-582 343.25,-588 337.25,-594 331.25,-594"/>
<text xml:space="preserve" text-anchor="middle" x="227.25" y="-572.5" font-family="Helvetica,sans-Serif" font-size="10.00">M&#45;DOMAIN&#45;EVENTS\nDomainEvents\n[planned]</text>
</g>
<!-- M_APP_SERVICE_CONTEXT -->
<g id="node39" class="node">
<title>M_APP_SERVICE_CONTEXT</title>
<path fill="#e8f1ff" stroke="black" d="M292.25,-52C292.25,-52 162.25,-52 162.25,-52 156.25,-52 150.25,-46 150.25,-40 150.25,-40 150.25,-28 150.25,-28 150.25,-22 156.25,-16 162.25,-16 162.25,-16 292.25,-16 292.25,-16 298.25,-16 304.25,-22 304.25,-28 304.25,-28 304.25,-40 304.25,-40 304.25,-46 298.25,-52 292.25,-52"/>
<text xml:space="preserve" text-anchor="middle" x="227.25" y="-30.5" font-family="Helvetica,sans-Serif" font-size="10.00">M&#45;APP&#45;SERVICE&#45;CONTEXT\n</text>
</g>
</g>
</svg>
