<?xml version="1.0" encoding="UTF-8" standalone="no"?>
<!DOCTYPE svg PUBLIC "-//W3C//DTD SVG 1.1//EN"
 "http://www.w3.org/Graphics/SVG/1.1/DTD/svg11.dtd">
<!-- Generated by graphviz version 15.1.0 (20260618.0150)
 -->
<!-- Title: G Pages: 1 -->
<svg width="346pt" height="286pt"
 viewBox="0.00 0.00 346.00 286.00" xmlns="http://www.w3.org/2000/svg" xmlns:xlink="http://www.w3.org/1999/xlink">
<g id="graph0" class="graph" transform="scale(1 1) rotate(0) translate(4 281.5)">
<title>G</title>
<polygon fill="white" stroke="none" points="-4,4 -4,-281.5 342,-281.5 342,4 -4,4"/>
<text xml:space="preserve" text-anchor="middle" x="169" y="-262.1" font-family="Helvetica,sans-Serif" font-size="12.00">GRACE Overview</text>
<g id="clust1" class="cluster">
<title>cluster_hub</title>
<path fill="#fffde7" stroke="black" d="M20,-8C20,-8 318,-8 318,-8 324,-8 330,-14 330,-20 330,-20 330,-235.25 330,-235.25 330,-241.25 324,-247.25 318,-247.25 318,-247.25 20,-247.25 20,-247.25 14,-247.25 8,-241.25 8,-235.25 8,-235.25 8,-20 8,-20 8,-14 14,-8 20,-8"/>
<text xml:space="preserve" text-anchor="middle" x="169" y="-231.85" font-family="Helvetica,sans-Serif" font-size="12.00">hub</text>
</g>
<!-- CriticalFlows -->
<g id="node1" class="node">
<title>CriticalFlows</title>
<path fill="#e8f1ff" stroke="black" d="M209.88,-134.5C209.88,-134.5 142.12,-134.5 142.12,-134.5 136.12,-134.5 130.12,-128.5 130.12,-122.5 130.12,-122.5 130.12,-110.5 130.12,-110.5 130.12,-104.5 136.12,-98.5 142.12,-98.5 142.12,-98.5 209.88,-98.5 209.88,-98.5 215.88,-98.5 221.88,-104.5 221.88,-110.5 221.88,-110.5 221.88,-122.5 221.88,-122.5 221.88,-128.5 215.88,-134.5 209.88,-134.5"/>
<text xml:space="preserve" text-anchor="middle" x="176" y="-113" font-family="Helvetica,sans-Serif" font-size="10.00">CriticalFlows\n18</text>
</g>
<!-- Verifications -->
<g id="node8" class="node">
<title>Verifications</title>
<path fill="#e8f1ff" stroke="black" d="M310,-52C310,-52 246,-52 246,-52 240,-52 234,-46 234,-40 234,-40 234,-28 234,-28 234,-22 240,-16 246,-16 246,-16 310,-16 310,-16 316,-16 322,-22 322,-28 322,-28 322,-40 322,-40 322,-46 316,-52 310,-52"/>
<text xml:space="preserve" text-anchor="middle" x="278" y="-30.5" font-family="Helvetica,sans-Serif" font-size="10.00">Verifications\n66</text>
</g>
<!-- CriticalFlows&#45;&gt;Verifications -->
<g id="edge7" class="edge">
<title>CriticalFlows&#45;&gt;Verifications</title>
<path fill="none" stroke="#555555" d="M219.18,-98.11C228.58,-93.21 238.07,-87.33 246,-80.5 252.2,-75.17 257.79,-68.38 262.51,-61.7"/>
<polygon fill="#555555" stroke="#555555" points="265.39,-63.69 267.93,-53.41 259.53,-59.86 265.39,-63.69"/>
<text xml:space="preserve" text-anchor="middle" x="269.79" y="-71.95" font-family="Helvetica,sans-Serif" font-size="9.00">checks</text>
</g>
<!-- CrossLinks -->
<g id="node2" class="node">
<title>CrossLinks</title>
<path fill="#e8f1ff" stroke="black" d="M93.75,-52C93.75,-52 28.25,-52 28.25,-52 22.25,-52 16.25,-46 16.25,-40 16.25,-40 16.25,-28 16.25,-28 16.25,-22 22.25,-16 28.25,-16 28.25,-16 93.75,-16 93.75,-16 99.75,-16 105.75,-22 105.75,-28 105.75,-28 105.75,-40 105.75,-40 105.75,-46 99.75,-52 93.75,-52"/>
<text xml:space="preserve" text-anchor="middle" x="61" y="-30.5" font-family="Helvetica,sans-Serif" font-size="10.00">CrossLinks\n187</text>
</g>
<!-- DataFlows -->
<g id="node3" class="node">
<title>DataFlows</title>
<path fill="#e8f1ff" stroke="black" d="M310,-134.5C310,-134.5 252,-134.5 252,-134.5 246,-134.5 240,-128.5 240,-122.5 240,-122.5 240,-110.5 240,-110.5 240,-104.5 246,-98.5 252,-98.5 252,-98.5 310,-98.5 310,-98.5 316,-98.5 322,-104.5 322,-110.5 322,-110.5 322,-122.5 322,-122.5 322,-128.5 316,-134.5 310,-134.5"/>
<text xml:space="preserve" text-anchor="middle" x="281" y="-113" font-family="Helvetica,sans-Serif" font-size="10.00">DataFlows\n26</text>
</g>
<!-- DependsEdges -->
<g id="node4" class="node">
<title>DependsEdges</title>
<path fill="#e8f1ff" stroke="black" d="M204.25,-52C204.25,-52 135.75,-52 135.75,-52 129.75,-52 123.75,-46 123.75,-40 123.75,-40 123.75,-28 123.75,-28 123.75,-22 129.75,-16 135.75,-16 135.75,-16 204.25,-16 204.25,-16 210.25,-16 216.25,-22 216.25,-28 216.25,-28 216.25,-40 216.25,-40 216.25,-46 210.25,-52 204.25,-52"/>
<text xml:space="preserve" text-anchor="middle" x="170" y="-30.5" font-family="Helvetica,sans-Serif" font-size="10.00">depends_on\n258</text>
</g>
<!-- Modules -->
<g id="node5" class="node">
<title>Modules</title>
<path fill="#e8f1ff" stroke="black" d="M100.38,-134.5C100.38,-134.5 47.62,-134.5 47.62,-134.5 41.62,-134.5 35.62,-128.5 35.62,-122.5 35.62,-122.5 35.62,-110.5 35.62,-110.5 35.62,-104.5 41.62,-98.5 47.62,-98.5 47.62,-98.5 100.38,-98.5 100.38,-98.5 106.38,-98.5 112.38,-104.5 112.38,-110.5 112.38,-110.5 112.38,-122.5 112.38,-122.5 112.38,-128.5 106.38,-134.5 100.38,-134.5"/>
<text xml:space="preserve" text-anchor="middle" x="74" y="-113" font-family="Helvetica,sans-Serif" font-size="10.00">Modules\n125</text>
</g>
<!-- Modules&#45;&gt;CrossLinks -->
<g id="edge3" class="edge">
<title>Modules&#45;&gt;CrossLinks</title>
<path fill="none" stroke="#555555" d="M71.18,-98.03C69.56,-88.01 67.49,-75.18 65.64,-63.71"/>
<polygon fill="#555555" stroke="#555555" points="69.11,-63.24 64.06,-53.93 62.2,-64.36 69.11,-63.24"/>
<text xml:space="preserve" text-anchor="middle" x="80.65" y="-71.95" font-family="Helvetica,sans-Serif" font-size="9.00">linked</text>
</g>
<!-- Modules&#45;&gt;DependsEdges -->
<g id="edge1" class="edge">
<title>Modules&#45;&gt;DependsEdges</title>
<path fill="none" stroke="#555555" d="M94.83,-98.03C108.17,-86.85 125.67,-72.17 140.43,-59.79"/>
<polygon fill="#555555" stroke="#555555" points="142.64,-62.51 148.05,-53.41 138.14,-57.15 142.64,-62.51"/>
<text xml:space="preserve" text-anchor="middle" x="135.25" y="-71.95" font-family="Helvetica,sans-Serif" font-size="9.00">has</text>
</g>
<!-- Modules&#45;&gt;Verifications -->
<g id="edge2" class="edge">
<title>Modules&#45;&gt;Verifications</title>
<path fill="none" stroke="#555555" d="M112.85,-100.17C144.18,-87.81 188.6,-70.28 223.49,-56.51"/>
<polygon fill="#555555" stroke="#555555" points="224.56,-59.85 232.57,-52.93 221.99,-53.34 224.56,-59.85"/>
<text xml:space="preserve" text-anchor="middle" x="210.71" y="-71.95" font-family="Helvetica,sans-Serif" font-size="9.00">verified_by</text>
</g>
<!-- Phases -->
<g id="node6" class="node">
<title>Phases</title>
<path fill="#e8f1ff" stroke="black" d="M95.88,-217C95.88,-217 52.12,-217 52.12,-217 46.12,-217 40.12,-211 40.12,-205 40.12,-205 40.12,-193 40.12,-193 40.12,-187 46.12,-181 52.12,-181 52.12,-181 95.88,-181 95.88,-181 101.88,-181 107.88,-187 107.88,-193 107.88,-193 107.88,-205 107.88,-205 107.88,-211 101.88,-217 95.88,-217"/>
<text xml:space="preserve" text-anchor="middle" x="74" y="-195.5" font-family="Helvetica,sans-Serif" font-size="10.00">Phases\n20</text>
</g>
<!-- Phases&#45;&gt;Modules -->
<g id="edge6" class="edge">
<title>Phases&#45;&gt;Modules</title>
<path fill="none" stroke="#555555" d="M74,-180.53C74,-170.51 74,-157.68 74,-146.21"/>
<polygon fill="#555555" stroke="#555555" points="77.5,-146.45 74,-136.45 70.5,-146.45 77.5,-146.45"/>
<text xml:space="preserve" text-anchor="middle" x="97.62" y="-154.45" font-family="Helvetica,sans-Serif" font-size="9.00">implements</text>
</g>
<!-- UseCases -->
<g id="node7" class="node">
<title>UseCases</title>
<path fill="#e8f1ff" stroke="black" d="M247.62,-217C247.62,-217 190.38,-217 190.38,-217 184.38,-217 178.38,-211 178.38,-205 178.38,-205 178.38,-193 178.38,-193 178.38,-187 184.38,-181 190.38,-181 190.38,-181 247.62,-181 247.62,-181 253.62,-181 259.62,-187 259.62,-193 259.62,-193 259.62,-205 259.62,-205 259.62,-211 253.62,-217 247.62,-217"/>
<text xml:space="preserve" text-anchor="middle" x="219" y="-195.5" font-family="Helvetica,sans-Serif" font-size="10.00">UseCases\n17</text>
</g>
<!-- UseCases&#45;&gt;CriticalFlows -->
<g id="edge5" class="edge">
<title>UseCases&#45;&gt;CriticalFlows</title>
<path fill="none" stroke="#555555" d="M209.67,-180.53C204.09,-170.09 196.88,-156.59 190.57,-144.77"/>
<polygon fill="#555555" stroke="#555555" points="193.82,-143.44 186.03,-136.27 187.65,-146.74 193.82,-143.44"/>
<text xml:space="preserve" text-anchor="middle" x="224.07" y="-154.45" font-family="Helvetica,sans-Serif" font-size="9.00">covered_by</text>
</g>
<!-- UseCases&#45;&gt;DataFlows -->
<g id="edge4" class="edge">
<title>UseCases&#45;&gt;DataFlows</title>
<path fill="none" stroke="#555555" d="M235.22,-180.57C240.12,-175.07 245.41,-168.89 250,-163 254.62,-157.06 259.34,-150.47 263.65,-144.19"/>
<polygon fill="#555555" stroke="#555555" points="266.5,-146.22 269.17,-135.97 260.69,-142.32 266.5,-146.22"/>
<text xml:space="preserve" text-anchor="middle" x="271.47" y="-154.45" font-family="Helvetica,sans-Serif" font-size="9.00">related</text>
</g>
</g>
</svg>
