<?xml version="1.0" encoding="UTF-8" standalone="no"?>
<!DOCTYPE svg PUBLIC "-//W3C//DTD SVG 1.1//EN"
 "http://www.w3.org/Graphics/SVG/1.1/DTD/svg11.dtd">
<!-- Generated by graphviz version 15.1.0 (20260618.0150)
 -->
<!-- Title: G Pages: 1 -->
<svg width="1390pt" height="3054pt"
 viewBox="0.00 0.00 1390.00 3054.00" xmlns="http://www.w3.org/2000/svg" xmlns:xlink="http://www.w3.org/1999/xlink">
<g id="graph0" class="graph" transform="scale(1 1) rotate(0) translate(4 3050.25)">
<title>G</title>
<polygon fill="white" stroke="none" points="-4,4 -4,-3050.25 1386.25,-3050.25 1386.25,4 -4,4"/>
<text xml:space="preserve" text-anchor="middle" x="691.12" y="-3030.85" font-family="Helvetica,sans-Serif" font-size="12.00">GRACE Use Cases ↔ Flows</text>
<g id="clust1" class="cluster">
<title>cluster_critical_flow</title>
<path fill="#ffe8e8" stroke="black" d="M96.88,-8C96.88,-8 670.25,-8 670.25,-8 676.25,-8 682.25,-14 682.25,-20 682.25,-20 682.25,-826 682.25,-826 682.25,-832 676.25,-838 670.25,-838 670.25,-838 96.88,-838 96.88,-838 90.88,-838 84.88,-832 84.88,-826 84.88,-826 84.88,-20 84.88,-20 84.88,-14 90.88,-8 96.88,-8"/>
<text xml:space="preserve" text-anchor="middle" x="383.56" y="-822.6" font-family="Helvetica,sans-Serif" font-size="12.00">critical_flow</text>
</g>
<g id="clust2" class="cluster">
<title>cluster_data_flow</title>
<path fill="#fff6e0" stroke="black" d="M72.5,-2348C72.5,-2348 1362.25,-2348 1362.25,-2348 1368.25,-2348 1374.25,-2354 1374.25,-2360 1374.25,-2360 1374.25,-3004 1374.25,-3004 1374.25,-3010 1368.25,-3016 1362.25,-3016 1362.25,-3016 72.5,-3016 72.5,-3016 66.5,-3016 60.5,-3010 60.5,-3004 60.5,-3004 60.5,-2360 60.5,-2360 60.5,-2354 66.5,-2348 72.5,-2348"/>
<text xml:space="preserve" text-anchor="middle" x="717.38" y="-3000.6" font-family="Helvetica,sans-Serif" font-size="12.00">data_flow</text>
</g>
<g id="clust3" class="cluster">
<title>cluster_phase</title>
<path fill="#e0f7fa" stroke="black" d="M574.12,-2266C574.12,-2266 623.38,-2266 623.38,-2266 629.38,-2266 635.38,-2272 635.38,-2278 635.38,-2278 635.38,-2328 635.38,-2328 635.38,-2334 629.38,-2340 623.38,-2340 623.38,-2340 574.12,-2340 574.12,-2340 568.12,-2340 562.12,-2334 562.12,-2328 562.12,-2328 562.12,-2278 562.12,-2278 562.12,-2272 568.12,-2266 574.12,-2266"/>
<text xml:space="preserve" text-anchor="middle" x="598.75" y="-2324.6" font-family="Helvetica,sans-Serif" font-size="12.00">phase</text>
</g>
<g id="clust4" class="cluster">
<title>cluster_use_case</title>
<path fill="#e8ffe8" stroke="black" d="M20,-886C20,-886 1155.75,-886 1155.75,-886 1161.75,-886 1167.75,-892 1167.75,-898 1167.75,-898 1167.75,-1596 1167.75,-1596 1167.75,-1602 1161.75,-1608 1155.75,-1608 1155.75,-1608 20,-1608 20,-1608 14,-1608 8,-1602 8,-1596 8,-1596 8,-898 8,-898 8,-892 14,-886 20,-886"/>
<text xml:space="preserve" text-anchor="middle" x="587.88" y="-1592.6" font-family="Helvetica,sans-Serif" font-size="12.00">use_case</text>
</g>
<!-- VF_001 -->
<g id="node1" class="node">
<title>VF_001</title>
<path fill="#e8f1ff" stroke="black" d="M653.62,-700C653.62,-700 543.88,-700 543.88,-700 537.88,-700 531.88,-694 531.88,-688 531.88,-688 531.88,-676 531.88,-676 531.88,-670 537.88,-664 543.88,-664 543.88,-664 653.62,-664 653.62,-664 659.62,-664 665.62,-670 665.62,-676 665.62,-676 665.62,-688 665.62,-688 665.62,-694 659.62,-700 653.62,-700"/>
<text xml:space="preserve" text-anchor="middle" x="598.75" y="-678.5" font-family="Helvetica,sans-Serif" font-size="10.00">VF&#45;001\nDetectHappyPath</text>
</g>
<!-- DF_001 -->
<g id="node19" class="node">
<title>DF_001</title>
<path fill="#e8f1ff" stroke="black" d="M1354.25,-2392C1354.25,-2392 1258,-2392 1258,-2392 1252,-2392 1246,-2386 1246,-2380 1246,-2380 1246,-2368 1246,-2368 1246,-2362 1252,-2356 1258,-2356 1258,-2356 1354.25,-2356 1354.25,-2356 1360.25,-2356 1366.25,-2362 1366.25,-2368 1366.25,-2368 1366.25,-2380 1366.25,-2380 1366.25,-2386 1360.25,-2392 1354.25,-2392"/>
<text xml:space="preserve" text-anchor="middle" x="1306.12" y="-2370.5" font-family="Helvetica,sans-Serif" font-size="10.00">DF&#45;001\nDetectPipeline</text>
</g>
<!-- VF_001&#45;&gt;DF_001 -->
<g id="edge17" class="edge">
<title>VF_001&#45;&gt;DF_001</title>
<path fill="none" stroke="#555555" d="M666.03,-664.18C781.02,-637.53 1019.37,-601.62 1167.75,-714.5 1302.89,-817.31 1305.69,-2129.1 1305.23,-2344.24"/>
<polygon fill="#555555" stroke="#555555" points="1301.73,-2343.99 1305.21,-2354 1308.73,-2344.01 1301.73,-2343.99"/>
<text xml:space="preserve" text-anchor="middle" x="1007" y="-716.45" font-family="Helvetica,sans-Serif" font-size="9.00">data_flow</text>
</g>
<!-- UC_001 -->
<g id="node46" class="node">
<title>UC_001</title>
<path fill="#e8f1ff" stroke="black" d="M1147.75,-930C1147.75,-930 866.25,-930 866.25,-930 860.25,-930 854.25,-924 854.25,-918 854.25,-918 854.25,-906 854.25,-906 854.25,-900 860.25,-894 866.25,-894 866.25,-894 1147.75,-894 1147.75,-894 1153.75,-894 1159.75,-900 1159.75,-906 1159.75,-906 1159.75,-918 1159.75,-918 1159.75,-924 1153.75,-930 1147.75,-930"/>
<text xml:space="preserve" text-anchor="middle" x="1007" y="-908.5" font-family="Helvetica,sans-Serif" font-size="10.00">UC&#45;001\nRuns video2pptx detect with video + subtitles (all&#45;in&#45;one)</text>
</g>
<!-- VF_001&#45;&gt;UC_001 -->
<g id="edge16" class="edge">
<title>VF_001&#45;&gt;UC_001</title>
<path fill="none" stroke="#555555" d="M665.94,-684.64C697.9,-687.89 736.14,-694.74 768,-709 860.98,-750.62 945.48,-840.24 984.01,-885.17"/>
<polygon fill="#555555" stroke="#555555" points="981.19,-887.26 990.33,-892.63 986.54,-882.74 981.19,-887.26"/>
<text xml:space="preserve" text-anchor="middle" x="811.12" y="-748.94" font-family="Helvetica,sans-Serif" font-size="9.00">uses</text>
</g>
<!-- VF_002 -->
<g id="node2" class="node">
<title>VF_002</title>
<path fill="#e8f1ff" stroke="black" d="M227.75,-430C227.75,-430 131.5,-430 131.5,-430 125.5,-430 119.5,-424 119.5,-418 119.5,-418 119.5,-406 119.5,-406 119.5,-400 125.5,-394 131.5,-394 131.5,-394 227.75,-394 227.75,-394 233.75,-394 239.75,-400 239.75,-406 239.75,-406 239.75,-418 239.75,-418 239.75,-424 233.75,-430 227.75,-430"/>
<text xml:space="preserve" text-anchor="middle" x="179.62" y="-408.5" font-family="Helvetica,sans-Serif" font-size="10.00">VF&#45;002\nExportMDPath</text>
</g>
<!-- DF_002 -->
<g id="node20" class="node">
<title>DF_002</title>
<path fill="#e8f1ff" stroke="black" d="M1062.62,-2662C1062.62,-2662 951.38,-2662 951.38,-2662 945.38,-2662 939.38,-2656 939.38,-2650 939.38,-2650 939.38,-2638 939.38,-2638 939.38,-2632 945.38,-2626 951.38,-2626 951.38,-2626 1062.62,-2626 1062.62,-2626 1068.62,-2626 1074.62,-2632 1074.62,-2638 1074.62,-2638 1074.62,-2650 1074.62,-2650 1074.62,-2656 1068.62,-2662 1062.62,-2662"/>
<text xml:space="preserve" text-anchor="middle" x="1007" y="-2640.5" font-family="Helvetica,sans-Serif" font-size="10.00">DF&#45;002\nExportMDPipeline</text>
</g>
<!-- VF_002&#45;&gt;DF_002 -->
<g id="edge19" class="edge">
<title>VF_002&#45;&gt;DF_002</title>
<path fill="none" stroke="#555555" d="M240.22,-409.2C273.44,-410.55 313.89,-417.33 343.25,-439 357.64,-449.62 351.38,-460.08 361.25,-475 380.26,-503.72 399.39,-501.76 411.5,-534 424.69,-569.11 404.43,-1856.11 429.5,-1884 551.21,-2019.43 713.66,-1798.37 836.25,-1933 887.44,-1989.21 804.66,-2559.37 854.25,-2617 872.35,-2638.04 900.69,-2646.46 928,-2649.04"/>
<polygon fill="#555555" stroke="#555555" points="927.48,-2652.51 937.69,-2649.69 927.95,-2645.53 927.48,-2652.51"/>
<text xml:space="preserve" text-anchor="middle" x="598.75" y="-1931.82" font-family="Helvetica,sans-Serif" font-size="9.00">data_flow</text>
</g>
<!-- UC_002 -->
<g id="node47" class="node">
<title>UC_002</title>
<path fill="#e8f1ff" stroke="black" d="M711,-1254C711,-1254 486.5,-1254 486.5,-1254 480.5,-1254 474.5,-1248 474.5,-1242 474.5,-1242 474.5,-1230 474.5,-1230 474.5,-1224 480.5,-1218 486.5,-1218 486.5,-1218 711,-1218 711,-1218 717,-1218 723,-1224 723,-1230 723,-1230 723,-1242 723,-1242 723,-1248 717,-1254 711,-1254"/>
<text xml:space="preserve" text-anchor="middle" x="598.75" y="-1232.5" font-family="Helvetica,sans-Serif" font-size="10.00">UC&#45;002\nRuns video2pptx export&#45;md with slides.json</text>
</g>
<!-- VF_002&#45;&gt;UC_002 -->
<g id="edge18" class="edge">
<title>VF_002&#45;&gt;UC_002</title>
<path fill="none" stroke="#555555" d="M240.09,-397.21C293.09,-387.97 368.7,-385.19 411.5,-430.5 441.21,-461.95 401.06,-1176.4 429.5,-1209 438.86,-1219.73 450.65,-1227.38 463.62,-1232.73"/>
<polygon fill="#555555" stroke="#555555" points="462.24,-1235.95 472.83,-1236.03 464.6,-1229.36 462.24,-1235.95"/>
<text xml:space="preserve" text-anchor="middle" x="386.38" y="-432.45" font-family="Helvetica,sans-Serif" font-size="9.00">uses</text>
</g>
<!-- VF_003 -->
<g id="node3" class="node">
<title>VF_003</title>
<path fill="#e8f1ff" stroke="black" d="M654,-754C654,-754 543.5,-754 543.5,-754 537.5,-754 531.5,-748 531.5,-742 531.5,-742 531.5,-730 531.5,-730 531.5,-724 537.5,-718 543.5,-718 543.5,-718 654,-718 654,-718 660,-718 666,-724 666,-730 666,-730 666,-742 666,-742 666,-748 660,-754 654,-754"/>
<text xml:space="preserve" text-anchor="middle" x="598.75" y="-732.5" font-family="Helvetica,sans-Serif" font-size="10.00">VF&#45;003\nGPUAutoFallback</text>
</g>
<!-- VF_003&#45;&gt;DF_001 -->
<g id="edge21" class="edge">
<title>VF_003&#45;&gt;DF_001</title>
<path fill="none" stroke="#555555" d="M666.41,-728.12C789.35,-717.81 1049.95,-716.55 1167.75,-871.5 1260.33,-993.28 1298.34,-2143.96 1304.28,-2344.32"/>
<polygon fill="#555555" stroke="#555555" points="1300.78,-2344.23 1304.57,-2354.13 1307.77,-2344.03 1300.78,-2344.23"/>
<text xml:space="preserve" text-anchor="middle" x="1007" y="-873.45" font-family="Helvetica,sans-Serif" font-size="9.00">data_flow</text>
</g>
<!-- VF_003&#45;&gt;UC_001 -->
<g id="edge20" class="edge">
<title>VF_003&#45;&gt;UC_001</title>
<path fill="none" stroke="#555555" d="M666.21,-738.99C698.06,-742.32 736.12,-749.14 768,-763 777.29,-767.04 777.65,-771.25 786,-777 807.51,-791.82 813.96,-793.87 836.25,-807.5 881,-834.85 932.25,-866.44 966.63,-887.66"/>
<polygon fill="#555555" stroke="#555555" points="964.66,-890.56 975,-892.84 968.33,-884.6 964.66,-890.56"/>
<text xml:space="preserve" text-anchor="middle" x="811.12" y="-809.45" font-family="Helvetica,sans-Serif" font-size="9.00">uses</text>
</g>
<!-- VF_004 -->
<g id="node4" class="node">
<title>VF_004</title>
<path fill="#e8f1ff" stroke="black" d="M230,-376C230,-376 129.25,-376 129.25,-376 123.25,-376 117.25,-370 117.25,-364 117.25,-364 117.25,-352 117.25,-352 117.25,-346 123.25,-340 129.25,-340 129.25,-340 230,-340 230,-340 236,-340 242,-346 242,-352 242,-352 242,-364 242,-364 242,-370 236,-376 230,-376"/>
<text xml:space="preserve" text-anchor="middle" x="179.62" y="-354.5" font-family="Helvetica,sans-Serif" font-size="10.00">VF&#45;004\nExportPptxPath</text>
</g>
<!-- VF_004&#45;&gt;DF_002 -->
<g id="edge23" class="edge">
<title>VF_004&#45;&gt;DF_002</title>
<path fill="none" stroke="#555555" d="M242.46,-356.04C274.99,-357.86 314.05,-364.83 343.25,-385 356.36,-394.06 351.82,-403.16 361.25,-416 380.84,-442.69 399.32,-440.21 411.5,-471 425.46,-506.29 403.8,-1809.08 429.5,-1837 480.68,-1892.59 700.26,-1836.01 768,-1869.5 807.96,-1889.25 819.4,-1901.73 836.25,-1943 850.41,-1977.68 829.81,-2588.61 854.25,-2617 872.35,-2638.03 900.7,-2646.46 928.01,-2649.03"/>
<polygon fill="#555555" stroke="#555555" points="927.49,-2652.51 937.7,-2649.68 927.96,-2645.52 927.49,-2652.51"/>
<text xml:space="preserve" text-anchor="middle" x="598.75" y="-1871.45" font-family="Helvetica,sans-Serif" font-size="9.00">data_flow</text>
</g>
<!-- VF_004&#45;&gt;UC_002 -->
<g id="edge22" class="edge">
<title>VF_004&#45;&gt;UC_002</title>
<path fill="none" stroke="#555555" d="M242.33,-346.2C295.51,-339.98 370.07,-341.47 411.5,-387.5 442.04,-421.43 399.51,-1174.58 429.5,-1209 438.85,-1219.74 450.64,-1227.39 463.61,-1232.74"/>
<polygon fill="#555555" stroke="#555555" points="462.22,-1235.96 472.82,-1236.04 464.59,-1229.37 462.22,-1235.96"/>
<text xml:space="preserve" text-anchor="middle" x="386.38" y="-389.45" font-family="Helvetica,sans-Serif" font-size="9.00">uses</text>
</g>
<!-- VF_005 -->
<g id="node5" class="node">
<title>VF_005</title>
<path fill="#e8f1ff" stroke="black" d="M662.25,-808C662.25,-808 535.25,-808 535.25,-808 529.25,-808 523.25,-802 523.25,-796 523.25,-796 523.25,-784 523.25,-784 523.25,-778 529.25,-772 535.25,-772 535.25,-772 662.25,-772 662.25,-772 668.25,-772 674.25,-778 674.25,-784 674.25,-784 674.25,-796 674.25,-796 674.25,-802 668.25,-808 662.25,-808"/>
<text xml:space="preserve" text-anchor="middle" x="598.75" y="-786.5" font-family="Helvetica,sans-Serif" font-size="10.00">VF&#45;005\nNotesProcessingPath</text>
</g>
<!-- VF_005&#45;&gt;DF_002 -->
<g id="edge25" class="edge">
<title>VF_005&#45;&gt;DF_002</title>
<path fill="none" stroke="#555555" d="M665.39,-808.42C731.71,-827.67 825.84,-857.06 836.25,-871.5 864.61,-910.83 822.92,-2579.99 854.25,-2617 872.18,-2638.18 900.49,-2646.63 927.82,-2649.19"/>
<polygon fill="#555555" stroke="#555555" points="927.32,-2652.66 937.53,-2649.83 927.78,-2645.68 927.32,-2652.66"/>
<text xml:space="preserve" text-anchor="middle" x="811.12" y="-873.45" font-family="Helvetica,sans-Serif" font-size="9.00">data_flow</text>
</g>
<!-- VF_005&#45;&gt;UC_001 -->
<g id="edge24" class="edge">
<title>VF_005&#45;&gt;UC_001</title>
<path fill="none" stroke="#555555" d="M674.66,-799.35C721.75,-806.39 783.38,-817.73 836.25,-834.5 880.61,-848.57 928.63,-871.25 962.24,-888.45"/>
<polygon fill="#555555" stroke="#555555" points="960.35,-891.41 970.84,-892.9 963.57,-885.19 960.35,-891.41"/>
<text xml:space="preserve" text-anchor="middle" x="811.12" y="-836.45" font-family="Helvetica,sans-Serif" font-size="9.00">uses</text>
</g>
<!-- VF_006 -->
<g id="node6" class="node">
<title>VF_006</title>
<path fill="#e8f1ff" stroke="black" d="M249.12,-484C249.12,-484 110.12,-484 110.12,-484 104.12,-484 98.12,-478 98.12,-472 98.12,-472 98.12,-460 98.12,-460 98.12,-454 104.12,-448 110.12,-448 110.12,-448 249.12,-448 249.12,-448 255.12,-448 261.12,-454 261.12,-460 261.12,-460 261.12,-472 261.12,-472 261.12,-478 255.12,-484 249.12,-484"/>
<text xml:space="preserve" text-anchor="middle" x="179.62" y="-462.5" font-family="Helvetica,sans-Serif" font-size="10.00">VF&#45;006\nDetectSlidesNoSubtitles</text>
</g>
<!-- DF_005 -->
<g id="node23" class="node">
<title>DF_005</title>
<path fill="#e8f1ff" stroke="black" d="M1068.62,-2716C1068.62,-2716 945.38,-2716 945.38,-2716 939.38,-2716 933.38,-2710 933.38,-2704 933.38,-2704 933.38,-2692 933.38,-2692 933.38,-2686 939.38,-2680 945.38,-2680 945.38,-2680 1068.62,-2680 1068.62,-2680 1074.62,-2680 1080.62,-2686 1080.62,-2692 1080.62,-2692 1080.62,-2704 1080.62,-2704 1080.62,-2710 1074.62,-2716 1068.62,-2716"/>
<text xml:space="preserve" text-anchor="middle" x="1007" y="-2694.5" font-family="Helvetica,sans-Serif" font-size="10.00">DF&#45;005\nDetectSlidesPipeline</text>
</g>
<!-- VF_006&#45;&gt;DF_005 -->
<g id="edge27" class="edge">
<title>VF_006&#45;&gt;DF_005</title>
<path fill="none" stroke="#555555" d="M261.35,-464.11C289.7,-467.16 320.2,-475.08 343.25,-493 358.96,-505.21 350.69,-517.13 361.25,-534 379.53,-563.19 399.39,-560.76 411.5,-593 424.67,-628.05 403.7,-1913.86 429.5,-1941 491.91,-2006.64 773.44,-1901.74 836.25,-1967 863.38,-1995.19 828.74,-2641.33 854.25,-2671 870.97,-2690.44 896.43,-2699.11 921.75,-2702.35"/>
<polygon fill="#555555" stroke="#555555" points="921.15,-2705.81 931.44,-2703.3 921.83,-2698.84 921.15,-2705.81"/>
<text xml:space="preserve" text-anchor="middle" x="598.75" y="-1965.55" font-family="Helvetica,sans-Serif" font-size="9.00">data_flow</text>
</g>
<!-- UC_005 -->
<g id="node50" class="node">
<title>UC_005</title>
<path fill="#e8f1ff" stroke="black" d="M745.5,-1308C745.5,-1308 452,-1308 452,-1308 446,-1308 440,-1302 440,-1296 440,-1296 440,-1284 440,-1284 440,-1278 446,-1272 452,-1272 452,-1272 745.5,-1272 745.5,-1272 751.5,-1272 757.5,-1278 757.5,-1284 757.5,-1284 757.5,-1296 757.5,-1296 757.5,-1302 751.5,-1308 745.5,-1308"/>
<text xml:space="preserve" text-anchor="middle" x="598.75" y="-1286.5" font-family="Helvetica,sans-Serif" font-size="10.00">UC&#45;005\nRuns video2pptx detect&#45;slides with video only (no subtitles)</text>
</g>
<!-- VF_006&#45;&gt;UC_005 -->
<g id="edge26" class="edge">
<title>VF_006&#45;&gt;UC_005</title>
<path fill="none" stroke="#555555" d="M261.57,-450.05C312.16,-445.2 374.5,-449.49 411.5,-489.5 440.68,-521.06 401.24,-1230.61 429.5,-1263 430.08,-1263.67 430.68,-1264.33 431.28,-1264.97"/>
<polygon fill="#555555" stroke="#555555" points="428.78,-1267.43 438.49,-1271.68 433.55,-1262.3 428.78,-1267.43"/>
<text xml:space="preserve" text-anchor="middle" x="386.38" y="-491.45" font-family="Helvetica,sans-Serif" font-size="9.00">uses</text>
</g>
<!-- VF_007 -->
<g id="node7" class="node">
<title>VF_007</title>
<path fill="#e8f1ff" stroke="black" d="M236.75,-322C236.75,-322 122.5,-322 122.5,-322 116.5,-322 110.5,-316 110.5,-310 110.5,-310 110.5,-298 110.5,-298 110.5,-292 116.5,-286 122.5,-286 122.5,-286 236.75,-286 236.75,-286 242.75,-286 248.75,-292 248.75,-298 248.75,-298 248.75,-310 248.75,-310 248.75,-316 242.75,-322 236.75,-322"/>
<text xml:space="preserve" text-anchor="middle" x="179.62" y="-300.5" font-family="Helvetica,sans-Serif" font-size="10.00">VF&#45;007\nNotesPostProcess</text>
</g>
<!-- DF_004 -->
<g id="node22" class="node">
<title>DF_004</title>
<path fill="#e8f1ff" stroke="black" d="M1053.62,-2608C1053.62,-2608 960.38,-2608 960.38,-2608 954.38,-2608 948.38,-2602 948.38,-2596 948.38,-2596 948.38,-2584 948.38,-2584 948.38,-2578 954.38,-2572 960.38,-2572 960.38,-2572 1053.62,-2572 1053.62,-2572 1059.62,-2572 1065.62,-2578 1065.62,-2584 1065.62,-2584 1065.62,-2596 1065.62,-2596 1065.62,-2602 1059.62,-2608 1053.62,-2608"/>
<text xml:space="preserve" text-anchor="middle" x="1007" y="-2586.5" font-family="Helvetica,sans-Serif" font-size="10.00">DF&#45;004\nNotesPipeline</text>
</g>
<!-- VF_007&#45;&gt;DF_004 -->
<g id="edge29" class="edge">
<title>VF_007&#45;&gt;DF_004</title>
<path fill="none" stroke="#555555" d="M248.98,-303.51C279.81,-306.14 315.45,-313.38 343.25,-331 355.12,-338.52 352.49,-346.01 361.25,-357 381.89,-382.89 399.32,-381.21 411.5,-412 425.58,-447.6 403.57,-1761.84 429.5,-1790 480.68,-1845.6 700.03,-1789.48 768,-1822.5 807.52,-1841.69 819.36,-1853.44 836.25,-1894 850.54,-1928.32 829.99,-2534.82 854.25,-2563 874.3,-2586.29 906.89,-2594.11 936.75,-2595.67"/>
<polygon fill="#555555" stroke="#555555" points="936.42,-2599.16 946.51,-2595.93 936.61,-2592.16 936.42,-2599.16"/>
<text xml:space="preserve" text-anchor="middle" x="598.75" y="-1824.45" font-family="Helvetica,sans-Serif" font-size="9.00">data_flow</text>
</g>
<!-- UC_006 -->
<g id="node51" class="node">
<title>UC_006</title>
<path fill="#e8f1ff" stroke="black" d="M725.62,-1200C725.62,-1200 471.88,-1200 471.88,-1200 465.88,-1200 459.88,-1194 459.88,-1188 459.88,-1188 459.88,-1176 459.88,-1176 459.88,-1170 465.88,-1164 471.88,-1164 471.88,-1164 725.62,-1164 725.62,-1164 731.62,-1164 737.62,-1170 737.62,-1176 737.62,-1176 737.62,-1188 737.62,-1188 737.62,-1194 731.62,-1200 725.62,-1200"/>
<text xml:space="preserve" text-anchor="middle" x="598.75" y="-1178.5" font-family="Helvetica,sans-Serif" font-size="10.00">UC&#45;006\nRuns video2pptx notes with slides.json + subtitles</text>
</g>
<!-- VF_007&#45;&gt;UC_006 -->
<g id="edge28" class="edge">
<title>VF_007&#45;&gt;UC_006</title>
<path fill="none" stroke="#555555" d="M249.03,-294.44C301.86,-291.31 372.36,-297.24 411.5,-342.5 441.03,-376.65 399.83,-1120.96 429.5,-1155 435.31,-1161.67 442.06,-1167.15 449.45,-1171.62"/>
<polygon fill="#555555" stroke="#555555" points="447.69,-1174.65 458.17,-1176.24 450.97,-1168.47 447.69,-1174.65"/>
<text xml:space="preserve" text-anchor="middle" x="386.38" y="-344.45" font-family="Helvetica,sans-Serif" font-size="9.00">uses</text>
</g>
<!-- VF_008 -->
<g id="node8" class="node">
<title>VF_008</title>
<path fill="#e8f1ff" stroke="black" d="M239.38,-808C239.38,-808 119.88,-808 119.88,-808 113.88,-808 107.88,-802 107.88,-796 107.88,-796 107.88,-784 107.88,-784 107.88,-778 113.88,-772 119.88,-772 119.88,-772 239.38,-772 239.38,-772 245.38,-772 251.38,-778 251.38,-784 251.38,-784 251.38,-796 251.38,-796 251.38,-802 245.38,-808 239.38,-808"/>
<text xml:space="preserve" text-anchor="middle" x="179.62" y="-786.5" font-family="Helvetica,sans-Serif" font-size="10.00">VF&#45;008\nRoiToolVisualSelect</text>
</g>
<!-- DF_006 -->
<g id="node24" class="node">
<title>DF_006</title>
<path fill="#e8f1ff" stroke="black" d="M642,-2392C642,-2392 555.5,-2392 555.5,-2392 549.5,-2392 543.5,-2386 543.5,-2380 543.5,-2380 543.5,-2368 543.5,-2368 543.5,-2362 549.5,-2356 555.5,-2356 555.5,-2356 642,-2356 642,-2356 648,-2356 654,-2362 654,-2368 654,-2368 654,-2380 654,-2380 654,-2386 648,-2392 642,-2392"/>
<text xml:space="preserve" text-anchor="middle" x="598.75" y="-2370.5" font-family="Helvetica,sans-Serif" font-size="10.00">DF&#45;006\nRoiToolFlow</text>
</g>
<!-- VF_008&#45;&gt;DF_006 -->
<g id="edge31" class="edge">
<title>VF_008&#45;&gt;DF_006</title>
<path fill="none" stroke="#555555" d="M243.96,-808.42C279.78,-822.42 321.62,-845.61 343.25,-882 358.39,-907.46 358.48,-1918.51 361.25,-1948 377.97,-2125.81 303.58,-2217.35 429.5,-2344 455.83,-2370.49 496.95,-2378.18 531.94,-2379.16"/>
<polygon fill="#555555" stroke="#555555" points="531.52,-2382.65 541.55,-2379.24 531.58,-2375.65 531.52,-2382.65"/>
<text xml:space="preserve" text-anchor="middle" x="386.38" y="-2323.51" font-family="Helvetica,sans-Serif" font-size="9.00">data_flow</text>
</g>
<!-- UC_007 -->
<g id="node52" class="node">
<title>UC_007</title>
<path fill="#e8f1ff" stroke="black" d="M704.25,-1578C704.25,-1578 493.25,-1578 493.25,-1578 487.25,-1578 481.25,-1572 481.25,-1566 481.25,-1566 481.25,-1554 481.25,-1554 481.25,-1548 487.25,-1542 493.25,-1542 493.25,-1542 704.25,-1542 704.25,-1542 710.25,-1542 716.25,-1548 716.25,-1554 716.25,-1554 716.25,-1566 716.25,-1566 716.25,-1572 710.25,-1578 704.25,-1578"/>
<text xml:space="preserve" text-anchor="middle" x="598.75" y="-1556.5" font-family="Helvetica,sans-Serif" font-size="10.00">UC&#45;007\nRuns video2pptx roi&#45;tool with a video file</text>
</g>
<!-- VF_008&#45;&gt;UC_007 -->
<g id="edge30" class="edge">
<title>VF_008&#45;&gt;UC_007</title>
<path fill="none" stroke="#555555" d="M240.05,-808.38C275.83,-822.63 319.02,-846.11 343.25,-882 506.56,-1123.89 225.97,-1323.81 429.5,-1533 440.81,-1544.63 455,-1552.51 470.32,-1557.73"/>
<polygon fill="#555555" stroke="#555555" points="469.04,-1561 479.62,-1560.49 471.03,-1554.29 469.04,-1561"/>
<text xml:space="preserve" text-anchor="middle" x="386.38" y="-1509.89" font-family="Helvetica,sans-Serif" font-size="9.00">uses</text>
</g>
<!-- VF_009 -->
<g id="node9" class="node">
<title>VF_009</title>
<path fill="#e8f1ff" stroke="black" d="M237.12,-268C237.12,-268 122.12,-268 122.12,-268 116.12,-268 110.12,-262 110.12,-256 110.12,-256 110.12,-244 110.12,-244 110.12,-238 116.12,-232 122.12,-232 122.12,-232 237.12,-232 237.12,-232 243.12,-232 249.12,-238 249.12,-244 249.12,-244 249.12,-256 249.12,-256 249.12,-262 243.12,-268 237.12,-268"/>
<text xml:space="preserve" text-anchor="middle" x="179.62" y="-246.5" font-family="Helvetica,sans-Serif" font-size="10.00">VF&#45;009\nProjectCreateOpen</text>
</g>
<!-- DF_007 -->
<g id="node25" class="node">
<title>DF_007</title>
<path fill="#e8f1ff" stroke="black" d="M1053.25,-2554C1053.25,-2554 960.75,-2554 960.75,-2554 954.75,-2554 948.75,-2548 948.75,-2542 948.75,-2542 948.75,-2530 948.75,-2530 948.75,-2524 954.75,-2518 960.75,-2518 960.75,-2518 1053.25,-2518 1053.25,-2518 1059.25,-2518 1065.25,-2524 1065.25,-2530 1065.25,-2530 1065.25,-2542 1065.25,-2542 1065.25,-2548 1059.25,-2554 1053.25,-2554"/>
<text xml:space="preserve" text-anchor="middle" x="1007" y="-2532.5" font-family="Helvetica,sans-Serif" font-size="10.00">DF&#45;007\nCreateProject</text>
</g>
<!-- VF_009&#45;&gt;DF_007 -->
<g id="edge33" class="edge">
<title>VF_009&#45;&gt;DF_007</title>
<path fill="none" stroke="#555555" d="M249.39,-250.96C279.78,-253.93 314.95,-261.05 343.25,-277 353.96,-283.04 353.1,-288.79 361.25,-298 383.19,-322.8 399.32,-322.21 411.5,-353 425.7,-388.91 403.35,-1714.59 429.5,-1743 480.68,-1798.6 702.99,-1736.97 768,-1775.5 814.45,-1803.03 819.65,-1824.62 836.25,-1876 847.07,-1909.48 831.28,-2482.36 854.25,-2509 874.39,-2532.36 907.16,-2540.16 937.11,-2541.67"/>
<polygon fill="#555555" stroke="#555555" points="936.81,-2545.16 946.9,-2541.92 936.99,-2538.17 936.81,-2545.16"/>
<text xml:space="preserve" text-anchor="middle" x="598.75" y="-1777.45" font-family="Helvetica,sans-Serif" font-size="9.00">data_flow</text>
</g>
<!-- UC_008 -->
<g id="node53" class="node">
<title>UC_008</title>
<path fill="#e8f1ff" stroke="black" d="M697.12,-1146C697.12,-1146 500.38,-1146 500.38,-1146 494.38,-1146 488.38,-1140 488.38,-1134 488.38,-1134 488.38,-1122 488.38,-1122 488.38,-1116 494.38,-1110 500.38,-1110 500.38,-1110 697.12,-1110 697.12,-1110 703.12,-1110 709.12,-1116 709.12,-1122 709.12,-1122 709.12,-1134 709.12,-1134 709.12,-1140 703.12,-1146 697.12,-1146"/>
<text xml:space="preserve" text-anchor="middle" x="598.75" y="-1124.5" font-family="Helvetica,sans-Serif" font-size="10.00">UC&#45;008\nCreates a new project via CLI or GUI</text>
</g>
<!-- VF_009&#45;&gt;UC_008 -->
<g id="edge32" class="edge">
<title>VF_009&#45;&gt;UC_008</title>
<path fill="none" stroke="#555555" d="M249.55,-241.57C302.87,-239.34 373.77,-246.64 411.5,-293.5 439.64,-328.45 400.01,-1067.18 429.5,-1101 441.95,-1115.29 458.71,-1124.11 476.84,-1129.32"/>
<polygon fill="#555555" stroke="#555555" points="475.95,-1132.7 486.49,-1131.68 477.61,-1125.9 475.95,-1132.7"/>
<text xml:space="preserve" text-anchor="middle" x="386.38" y="-295.45" font-family="Helvetica,sans-Serif" font-size="9.00">uses</text>
</g>
<!-- VF_010 -->
<g id="node10" class="node">
<title>VF_010</title>
<path fill="#e8f1ff" stroke="black" d="M229.62,-214C229.62,-214 129.62,-214 129.62,-214 123.62,-214 117.62,-208 117.62,-202 117.62,-202 117.62,-190 117.62,-190 117.62,-184 123.62,-178 129.62,-178 129.62,-178 229.62,-178 229.62,-178 235.62,-178 241.62,-184 241.62,-190 241.62,-190 241.62,-202 241.62,-202 241.62,-208 235.62,-214 229.62,-214"/>
<text xml:space="preserve" text-anchor="middle" x="179.62" y="-192.5" font-family="Helvetica,sans-Serif" font-size="10.00">VF&#45;010\nDetectInProject</text>
</g>
<!-- DF_008 -->
<g id="node26" class="node">
<title>DF_008</title>
<path fill="#e8f1ff" stroke="black" d="M1057.38,-2500C1057.38,-2500 956.62,-2500 956.62,-2500 950.62,-2500 944.62,-2494 944.62,-2488 944.62,-2488 944.62,-2476 944.62,-2476 944.62,-2470 950.62,-2464 956.62,-2464 956.62,-2464 1057.38,-2464 1057.38,-2464 1063.38,-2464 1069.38,-2470 1069.38,-2476 1069.38,-2476 1069.38,-2488 1069.38,-2488 1069.38,-2494 1063.38,-2500 1057.38,-2500"/>
<text xml:space="preserve" text-anchor="middle" x="1007" y="-2478.5" font-family="Helvetica,sans-Serif" font-size="10.00">DF&#45;008\nDetectInProject</text>
</g>
<!-- VF_010&#45;&gt;DF_008 -->
<g id="edge35" class="edge">
<title>VF_010&#45;&gt;DF_008</title>
<path fill="none" stroke="#555555" d="M241.87,-197.04C273.66,-199.78 312.23,-206.66 343.25,-223 348.09,-225.55 409.42,-288.94 411.5,-294 426.28,-330.03 403.12,-1667.34 429.5,-1696 480.68,-1751.6 702.9,-1690.13 768,-1728.5 814.2,-1755.73 819.64,-1777.01 836.25,-1828 847.05,-1861.13 831.49,-2428.61 854.25,-2455 873.46,-2477.27 904.15,-2485.4 932.91,-2487.42"/>
<polygon fill="#555555" stroke="#555555" points="932.58,-2490.9 942.73,-2487.85 932.89,-2483.91 932.58,-2490.9"/>
<text xml:space="preserve" text-anchor="middle" x="598.75" y="-1730.45" font-family="Helvetica,sans-Serif" font-size="9.00">data_flow</text>
</g>
<!-- UC_009 -->
<g id="node54" class="node">
<title>UC_009</title>
<path fill="#e8f1ff" stroke="black" d="M742.88,-1092C742.88,-1092 454.62,-1092 454.62,-1092 448.62,-1092 442.62,-1086 442.62,-1080 442.62,-1080 442.62,-1068 442.62,-1068 442.62,-1062 448.62,-1056 454.62,-1056 454.62,-1056 742.88,-1056 742.88,-1056 748.88,-1056 754.88,-1062 754.88,-1068 754.88,-1068 754.88,-1080 754.88,-1080 754.88,-1086 748.88,-1092 742.88,-1092"/>
<text xml:space="preserve" text-anchor="middle" x="598.75" y="-1070.5" font-family="Helvetica,sans-Serif" font-size="10.00">UC&#45;009\nOpens an existing project and runs slide detection via GUI</text>
</g>
<!-- VF_010&#45;&gt;UC_009 -->
<g id="edge34" class="edge">
<title>VF_010&#45;&gt;UC_009</title>
<path fill="none" stroke="#555555" d="M241.87,-188.79C296.3,-186.24 373.02,-192.95 411.5,-243.5 438.55,-279.03 400.16,-1013.34 429.5,-1047 430.84,-1048.53 432.22,-1050 433.65,-1051.41"/>
<polygon fill="#555555" stroke="#555555" points="431.31,-1054.01 441.18,-1057.86 435.86,-1048.69 431.31,-1054.01"/>
<text xml:space="preserve" text-anchor="middle" x="386.38" y="-245.45" font-family="Helvetica,sans-Serif" font-size="9.00">uses</text>
</g>
<!-- VF_011 -->
<g id="node11" class="node">
<title>VF_011</title>
<path fill="#e8f1ff" stroke="black" d="M236.38,-160C236.38,-160 122.88,-160 122.88,-160 116.88,-160 110.88,-154 110.88,-148 110.88,-148 110.88,-136 110.88,-136 110.88,-130 116.88,-124 122.88,-124 122.88,-124 236.38,-124 236.38,-124 242.38,-124 248.38,-130 248.38,-136 248.38,-136 248.38,-148 248.38,-148 248.38,-154 242.38,-160 236.38,-160"/>
<text xml:space="preserve" text-anchor="middle" x="179.62" y="-138.5" font-family="Helvetica,sans-Serif" font-size="10.00">VF&#45;011\nTimelineInteraction</text>
</g>
<!-- DF_009 -->
<g id="node27" class="node">
<title>DF_009</title>
<path fill="#e8f1ff" stroke="black" d="M1052.5,-2446C1052.5,-2446 961.5,-2446 961.5,-2446 955.5,-2446 949.5,-2440 949.5,-2434 949.5,-2434 949.5,-2422 949.5,-2422 949.5,-2416 955.5,-2410 961.5,-2410 961.5,-2410 1052.5,-2410 1052.5,-2410 1058.5,-2410 1064.5,-2416 1064.5,-2422 1064.5,-2422 1064.5,-2434 1064.5,-2434 1064.5,-2440 1058.5,-2446 1052.5,-2446"/>
<text xml:space="preserve" text-anchor="middle" x="1007" y="-2424.5" font-family="Helvetica,sans-Serif" font-size="10.00">DF&#45;009\nViewTimeline</text>
</g>
<!-- VF_011&#45;&gt;DF_009 -->
<g id="edge37" class="edge">
<title>VF_011&#45;&gt;DF_009</title>
<path fill="none" stroke="#555555" d="M248.78,-144.1C279.05,-147.3 314.29,-154.28 343.25,-169 362.2,-178.63 403.15,-216.45 411.5,-236 426.92,-272.1 402.92,-1620.12 429.5,-1649 480.67,-1704.61 703.17,-1642.68 768,-1681.5 814.96,-1709.62 819.64,-1731.85 836.25,-1784 846.66,-1816.68 831.85,-2375.04 854.25,-2401 874.56,-2424.53 907.68,-2432.27 937.81,-2433.7"/>
<polygon fill="#555555" stroke="#555555" points="937.58,-2437.19 947.66,-2433.92 937.74,-2430.2 937.58,-2437.19"/>
<text xml:space="preserve" text-anchor="middle" x="598.75" y="-1683.45" font-family="Helvetica,sans-Serif" font-size="9.00">data_flow</text>
</g>
<!-- UC_010 -->
<g id="node55" class="node">
<title>UC_010</title>
<path fill="#e8f1ff" stroke="black" d="M745.12,-1038C745.12,-1038 452.38,-1038 452.38,-1038 446.38,-1038 440.38,-1032 440.38,-1026 440.38,-1026 440.38,-1014 440.38,-1014 440.38,-1008 446.38,-1002 452.38,-1002 452.38,-1002 745.12,-1002 745.12,-1002 751.12,-1002 757.12,-1008 757.12,-1014 757.12,-1014 757.12,-1026 757.12,-1026 757.12,-1032 751.12,-1038 745.12,-1038"/>
<text xml:space="preserve" text-anchor="middle" x="598.75" y="-1016.5" font-family="Helvetica,sans-Serif" font-size="10.00">UC&#45;010\nViews detected slides on a timeline and inspects subtitle te</text>
</g>
<!-- VF_011&#45;&gt;UC_010 -->
<g id="edge36" class="edge">
<title>VF_011&#45;&gt;UC_010</title>
<path fill="none" stroke="#555555" d="M248.74,-135.22C302.9,-134.09 375.38,-143.05 411.5,-192.5 437.74,-228.42 400.27,-959.47 429.5,-993 430.2,-993.8 430.92,-994.59 431.65,-995.36"/>
<polygon fill="#555555" stroke="#555555" points="429.09,-997.76 438.82,-1001.96 433.83,-992.61 429.09,-997.76"/>
<text xml:space="preserve" text-anchor="middle" x="386.38" y="-194.45" font-family="Helvetica,sans-Serif" font-size="9.00">uses</text>
</g>
<!-- VF_012 -->
<g id="node12" class="node">
<title>VF_012</title>
<path fill="#e8f1ff" stroke="black" d="M238.62,-106C238.62,-106 120.62,-106 120.62,-106 114.62,-106 108.62,-100 108.62,-94 108.62,-94 108.62,-82 108.62,-82 108.62,-76 114.62,-70 120.62,-70 120.62,-70 238.62,-70 238.62,-70 244.62,-70 250.62,-76 250.62,-82 250.62,-82 250.62,-94 250.62,-94 250.62,-100 244.62,-106 238.62,-106"/>
<text xml:space="preserve" text-anchor="middle" x="179.62" y="-84.5" font-family="Helvetica,sans-Serif" font-size="10.00">VF&#45;012\nSettingsLLMPrompt</text>
</g>
<!-- DF_010 -->
<g id="node28" class="node">
<title>DF_010</title>
<path fill="#e8f1ff" stroke="black" d="M1063.75,-2392C1063.75,-2392 950.25,-2392 950.25,-2392 944.25,-2392 938.25,-2386 938.25,-2380 938.25,-2380 938.25,-2368 938.25,-2368 938.25,-2362 944.25,-2356 950.25,-2356 950.25,-2356 1063.75,-2356 1063.75,-2356 1069.75,-2356 1075.75,-2362 1075.75,-2368 1075.75,-2368 1075.75,-2380 1075.75,-2380 1075.75,-2386 1069.75,-2392 1063.75,-2392"/>
<text xml:space="preserve" text-anchor="middle" x="1007" y="-2370.5" font-family="Helvetica,sans-Serif" font-size="10.00">DF&#45;010\nLLMProcessInGUI</text>
</g>
<!-- VF_012&#45;&gt;DF_010 -->
<g id="edge39" class="edge">
<title>VF_012&#45;&gt;DF_010</title>
<path fill="none" stroke="#555555" d="M251.09,-90.95C308.74,-97.8 384.94,-118.36 411.5,-178 427.71,-214.39 402.1,-1583.08 429.5,-1612 481.35,-1666.72 702.76,-1596.72 768,-1634.5 815.36,-1661.93 813.74,-1687.11 836.25,-1737 936.27,-1958.64 987.19,-2251.14 1001.62,-2344.22"/>
<polygon fill="#555555" stroke="#555555" points="998.15,-2344.68 1003.12,-2354.03 1005.07,-2343.62 998.15,-2344.68"/>
<text xml:space="preserve" text-anchor="middle" x="598.75" y="-1636.45" font-family="Helvetica,sans-Serif" font-size="9.00">data_flow</text>
</g>
<!-- UC_011 -->
<g id="node56" class="node">
<title>UC_011</title>
<path fill="#e8f1ff" stroke="black" d="M729.75,-984C729.75,-984 467.75,-984 467.75,-984 461.75,-984 455.75,-978 455.75,-972 455.75,-972 455.75,-960 455.75,-960 455.75,-954 461.75,-948 467.75,-948 467.75,-948 729.75,-948 729.75,-948 735.75,-948 741.75,-954 741.75,-960 741.75,-960 741.75,-972 741.75,-972 741.75,-978 735.75,-984 729.75,-984"/>
<text xml:space="preserve" text-anchor="middle" x="598.75" y="-962.5" font-family="Helvetica,sans-Serif" font-size="10.00">UC&#45;011\nOpens Settings dialog and edits LLM system prompt</text>
</g>
<!-- VF_012&#45;&gt;UC_011 -->
<g id="edge38" class="edge">
<title>VF_012&#45;&gt;UC_011</title>
<path fill="none" stroke="#555555" d="M251.08,-72.84C303.24,-66.15 371.86,-67.75 411.5,-110.5 442.8,-144.26 399.26,-904.29 429.5,-939 434.35,-944.56 439.84,-949.3 445.82,-953.31"/>
<polygon fill="#555555" stroke="#555555" points="443.89,-956.23 454.28,-958.28 447.43,-950.2 443.89,-956.23"/>
<text xml:space="preserve" text-anchor="middle" x="386.38" y="-112.45" font-family="Helvetica,sans-Serif" font-size="9.00">uses</text>
</g>
<!-- VF_013 -->
<g id="node13" class="node">
<title>VF_013</title>
<path fill="#e8f1ff" stroke="black" d="M234.88,-52C234.88,-52 124.38,-52 124.38,-52 118.38,-52 112.38,-46 112.38,-40 112.38,-40 112.38,-28 112.38,-28 112.38,-22 118.38,-16 124.38,-16 124.38,-16 234.88,-16 234.88,-16 240.88,-16 246.88,-22 246.88,-28 246.88,-28 246.88,-40 246.88,-40 246.88,-46 240.88,-52 234.88,-52"/>
<text xml:space="preserve" text-anchor="middle" x="179.62" y="-30.5" font-family="Helvetica,sans-Serif" font-size="10.00">VF&#45;013\nBackendSelection</text>
</g>
<!-- UC_012 -->
<g id="node57" class="node">
<title>UC_012</title>
<path fill="#e8f1ff" stroke="black" d="M708,-930C708,-930 489.5,-930 489.5,-930 483.5,-930 477.5,-924 477.5,-918 477.5,-918 477.5,-906 477.5,-906 477.5,-900 483.5,-894 489.5,-894 489.5,-894 708,-894 708,-894 714,-894 720,-900 720,-906 720,-906 720,-918 720,-918 720,-924 714,-930 708,-930"/>
<text xml:space="preserve" text-anchor="middle" x="598.75" y="-908.5" font-family="Helvetica,sans-Serif" font-size="10.00">UC&#45;012\nSelects GPU/decoder backend in Settings</text>
</g>
<!-- VF_013&#45;&gt;UC_012 -->
<g id="edge40" class="edge">
<title>VF_013&#45;&gt;UC_012</title>
<path fill="none" stroke="#555555" d="M246.99,-34.74C277.91,-37.58 314.2,-44.64 343.25,-61 383.82,-83.85 394.77,-97.04 411.5,-140.5 425.51,-176.88 407.45,-809.85 429.5,-842 444.53,-863.92 467.81,-878.99 492.31,-889.35"/>
<polygon fill="#555555" stroke="#555555" points="490.87,-892.54 501.46,-892.95 493.43,-886.03 490.87,-892.54"/>
<text xml:space="preserve" text-anchor="middle" x="386.38" y="-142.45" font-family="Helvetica,sans-Serif" font-size="9.00">uses</text>
</g>
<!-- VF_014 -->
<g id="node14" class="node">
<title>VF_014</title>
<path fill="#e8f1ff" stroke="black" d="M231.5,-592C231.5,-592 127.75,-592 127.75,-592 121.75,-592 115.75,-586 115.75,-580 115.75,-580 115.75,-568 115.75,-568 115.75,-562 121.75,-556 127.75,-556 127.75,-556 231.5,-556 231.5,-556 237.5,-556 243.5,-562 243.5,-568 243.5,-568 243.5,-580 243.5,-580 243.5,-586 237.5,-592 231.5,-592"/>
<text xml:space="preserve" text-anchor="middle" x="179.62" y="-570.5" font-family="Helvetica,sans-Serif" font-size="10.00">VF&#45;014\nMenuBarActions</text>
</g>
<!-- DF_011 -->
<g id="node29" class="node">
<title>DF_011</title>
<path fill="#e8f1ff" stroke="black" d="M1069.75,-2824C1069.75,-2824 944.25,-2824 944.25,-2824 938.25,-2824 932.25,-2818 932.25,-2812 932.25,-2812 932.25,-2800 932.25,-2800 932.25,-2794 938.25,-2788 944.25,-2788 944.25,-2788 1069.75,-2788 1069.75,-2788 1075.75,-2788 1081.75,-2794 1081.75,-2800 1081.75,-2800 1081.75,-2812 1081.75,-2812 1081.75,-2818 1075.75,-2824 1069.75,-2824"/>
<text xml:space="preserve" text-anchor="middle" x="1007" y="-2802.5" font-family="Helvetica,sans-Serif" font-size="10.00">DF&#45;011\nProjectLifecycleMenu</text>
</g>
<!-- VF_014&#45;&gt;DF_011 -->
<g id="edge42" class="edge">
<title>VF_014&#45;&gt;DF_011</title>
<path fill="none" stroke="#555555" d="M243.66,-569.93C276.74,-571.09 315.95,-578.1 343.25,-601 361.67,-616.45 351.41,-630.07 361.25,-652 380.17,-694.15 399.65,-698.34 411.5,-743 420.63,-777.42 405.91,-1998.32 429.5,-2025 530.11,-2138.75 652.74,-1972.62 768,-2071.5 789.29,-2089.77 773.65,-2106.81 786,-2132 802.86,-2166.39 823.95,-2165.73 836.25,-2202 846.55,-2232.37 833.27,-2754.74 854.25,-2779 870.72,-2798.05 895.58,-2806.74 920.44,-2810.12"/>
<polygon fill="#555555" stroke="#555555" points="920.02,-2813.59 930.33,-2811.15 920.75,-2806.63 920.02,-2813.59"/>
<text xml:space="preserve" text-anchor="middle" x="598.75" y="-2073.45" font-family="Helvetica,sans-Serif" font-size="9.00">data_flow</text>
</g>
<!-- UC_013 -->
<g id="node58" class="node">
<title>UC_013</title>
<path fill="#e8f1ff" stroke="black" d="M756,-1416C756,-1416 441.5,-1416 441.5,-1416 435.5,-1416 429.5,-1410 429.5,-1404 429.5,-1404 429.5,-1392 429.5,-1392 429.5,-1386 435.5,-1380 441.5,-1380 441.5,-1380 756,-1380 756,-1380 762,-1380 768,-1386 768,-1392 768,-1392 768,-1404 768,-1404 768,-1410 762,-1416 756,-1416"/>
<text xml:space="preserve" text-anchor="middle" x="598.75" y="-1394.5" font-family="Helvetica,sans-Serif" font-size="10.00">UC&#45;013\nUses menu bar: File &gt; New/Open/Close/Save Project, Import Vi</text>
</g>
<!-- VF_014&#45;&gt;UC_013 -->
<g id="edge41" class="edge">
<title>VF_014&#45;&gt;UC_013</title>
<path fill="none" stroke="#555555" d="M243.76,-563.28C296.93,-558.25 370.67,-561.43 411.5,-607.5 439.64,-639.25 401.6,-1339.04 429.5,-1371 429.67,-1371.2 429.84,-1371.39 430.01,-1371.58"/>
<polygon fill="#555555" stroke="#555555" points="427.56,-1374.08 437.17,-1378.54 432.44,-1369.06 427.56,-1374.08"/>
<text xml:space="preserve" text-anchor="middle" x="386.38" y="-609.45" font-family="Helvetica,sans-Serif" font-size="9.00">uses</text>
</g>
<!-- VF_015 -->
<g id="node15" class="node">
<title>VF_015</title>
<path fill="#e8f1ff" stroke="black" d="M237.5,-538C237.5,-538 121.75,-538 121.75,-538 115.75,-538 109.75,-532 109.75,-526 109.75,-526 109.75,-514 109.75,-514 109.75,-508 115.75,-502 121.75,-502 121.75,-502 237.5,-502 237.5,-502 243.5,-502 249.5,-508 249.5,-514 249.5,-514 249.5,-526 249.5,-526 249.5,-532 243.5,-538 237.5,-538"/>
<text xml:space="preserve" text-anchor="middle" x="179.62" y="-516.5" font-family="Helvetica,sans-Serif" font-size="10.00">VF&#45;015\nProjectAppSettings</text>
</g>
<!-- DF_012 -->
<g id="node30" class="node">
<title>DF_012</title>
<path fill="#e8f1ff" stroke="black" d="M1070.12,-2770C1070.12,-2770 943.88,-2770 943.88,-2770 937.88,-2770 931.88,-2764 931.88,-2758 931.88,-2758 931.88,-2746 931.88,-2746 931.88,-2740 937.88,-2734 943.88,-2734 943.88,-2734 1070.12,-2734 1070.12,-2734 1076.12,-2734 1082.12,-2740 1082.12,-2746 1082.12,-2746 1082.12,-2758 1082.12,-2758 1082.12,-2764 1076.12,-2770 1070.12,-2770"/>
<text xml:space="preserve" text-anchor="middle" x="1007" y="-2748.5" font-family="Helvetica,sans-Serif" font-size="10.00">DF&#45;012\nSettingsConfiguration</text>
</g>
<!-- VF_015&#45;&gt;DF_012 -->
<g id="edge44" class="edge">
<title>VF_015&#45;&gt;DF_012</title>
<path fill="none" stroke="#555555" d="M249.79,-516.61C281.34,-518.53 317.35,-526 343.25,-547 360.3,-560.82 349.65,-574.36 361.25,-593 378.74,-621.11 399.31,-617.21 411.5,-648 425.1,-682.35 404.47,-1950.82 429.5,-1978 480.69,-2033.58 712.25,-1959.49 768,-2010.5 800.19,-2039.95 765.62,-2068.43 786,-2107 800.72,-2134.86 823.7,-2128.1 836.25,-2157 861.41,-2214.91 812.94,-2677.25 854.25,-2725 870.65,-2743.95 895.36,-2752.65 920.1,-2756.06"/>
<polygon fill="#555555" stroke="#555555" points="919.62,-2759.53 929.94,-2757.12 920.37,-2752.57 919.62,-2759.53"/>
<text xml:space="preserve" text-anchor="middle" x="598.75" y="-2012.45" font-family="Helvetica,sans-Serif" font-size="9.00">data_flow</text>
</g>
<!-- UC_014 -->
<g id="node59" class="node">
<title>UC_014</title>
<path fill="#e8f1ff" stroke="black" d="M739.88,-1362C739.88,-1362 457.62,-1362 457.62,-1362 451.62,-1362 445.62,-1356 445.62,-1350 445.62,-1350 445.62,-1338 445.62,-1338 445.62,-1332 451.62,-1326 457.62,-1326 457.62,-1326 739.88,-1326 739.88,-1326 745.88,-1326 751.88,-1332 751.88,-1338 751.88,-1338 751.88,-1350 751.88,-1350 751.88,-1356 745.88,-1362 739.88,-1362"/>
<text xml:space="preserve" text-anchor="middle" x="598.75" y="-1340.5" font-family="Helvetica,sans-Serif" font-size="10.00">UC&#45;014\nOpens Project Settings and App Settings from Edit menu</text>
</g>
<!-- VF_015&#45;&gt;UC_014 -->
<g id="edge43" class="edge">
<title>VF_015&#45;&gt;UC_014</title>
<path fill="none" stroke="#555555" d="M249.76,-511.11C302.82,-508.58 373.27,-515.43 411.5,-561.5 438.31,-593.81 401.89,-1285.37 429.5,-1317 431.69,-1319.51 434.01,-1321.85 436.45,-1324.03"/>
<polygon fill="#555555" stroke="#555555" points="433.94,-1326.51 443.97,-1329.91 438.25,-1320.99 433.94,-1326.51"/>
<text xml:space="preserve" text-anchor="middle" x="386.38" y="-563.45" font-family="Helvetica,sans-Serif" font-size="9.00">uses</text>
</g>
<!-- VF_016 -->
<g id="node16" class="node">
<title>VF_016</title>
<path fill="#e8f1ff" stroke="black" d="M247.25,-646C247.25,-646 112,-646 112,-646 106,-646 100,-640 100,-634 100,-634 100,-622 100,-622 100,-616 106,-610 112,-610 112,-610 247.25,-610 247.25,-610 253.25,-610 259.25,-616 259.25,-622 259.25,-622 259.25,-634 259.25,-634 259.25,-640 253.25,-646 247.25,-646"/>
<text xml:space="preserve" text-anchor="middle" x="179.62" y="-624.5" font-family="Helvetica,sans-Serif" font-size="10.00">VF&#45;016\nVideoPlaybackSubtitles</text>
</g>
<!-- DF_013 -->
<g id="node31" class="node">
<title>DF_013</title>
<path fill="#e8f1ff" stroke="black" d="M1055.88,-2878C1055.88,-2878 958.12,-2878 958.12,-2878 952.12,-2878 946.12,-2872 946.12,-2866 946.12,-2866 946.12,-2854 946.12,-2854 946.12,-2848 952.12,-2842 958.12,-2842 958.12,-2842 1055.88,-2842 1055.88,-2842 1061.88,-2842 1067.88,-2848 1067.88,-2854 1067.88,-2854 1067.88,-2866 1067.88,-2866 1067.88,-2872 1061.88,-2878 1055.88,-2878"/>
<text xml:space="preserve" text-anchor="middle" x="1007" y="-2856.5" font-family="Helvetica,sans-Serif" font-size="10.00">DF&#45;013\nVideoPlayback</text>
</g>
<!-- VF_016&#45;&gt;DF_013 -->
<g id="edge46" class="edge">
<title>VF_016&#45;&gt;DF_013</title>
<path fill="none" stroke="#555555" d="M259.4,-623.15C289.22,-625.49 321.24,-633.7 343.25,-655 372.56,-683.37 341.21,-709.47 361.25,-745 376.12,-771.37 399.11,-763.38 411.5,-791 426.18,-823.72 405.35,-2055.48 429.5,-2082 480.44,-2137.94 706.44,-2074.51 768,-2118.5 783.37,-2129.48 775.14,-2141.55 786,-2157 804.12,-2182.78 823.74,-2178.08 836.25,-2207 850.06,-2238.93 831.53,-2806.65 854.25,-2833 873.77,-2855.63 905.14,-2863.65 934.3,-2865.51"/>
<polygon fill="#555555" stroke="#555555" points="934.13,-2869 944.25,-2865.88 934.39,-2862.01 934.13,-2869"/>
<text xml:space="preserve" text-anchor="middle" x="598.75" y="-2120.45" font-family="Helvetica,sans-Serif" font-size="9.00">data_flow</text>
</g>
<!-- UC_015 -->
<g id="node60" class="node">
<title>UC_015</title>
<path fill="#e8f1ff" stroke="black" d="M744.75,-1470C744.75,-1470 452.75,-1470 452.75,-1470 446.75,-1470 440.75,-1464 440.75,-1458 440.75,-1458 440.75,-1446 440.75,-1446 440.75,-1440 446.75,-1434 452.75,-1434 452.75,-1434 744.75,-1434 744.75,-1434 750.75,-1434 756.75,-1440 756.75,-1446 756.75,-1446 756.75,-1458 756.75,-1458 756.75,-1464 750.75,-1470 744.75,-1470"/>
<text xml:space="preserve" text-anchor="middle" x="598.75" y="-1448.5" font-family="Helvetica,sans-Serif" font-size="10.00">UC&#45;015\nPlays video with subtitle overlay in GUI, controls playback </text>
</g>
<!-- VF_016&#45;&gt;UC_015 -->
<g id="edge45" class="edge">
<title>VF_016&#45;&gt;UC_015</title>
<path fill="none" stroke="#555555" d="M259.72,-617.96C311.03,-616.29 374.92,-624.27 411.5,-666.5 439.1,-698.36 401.78,-1393.25 429.5,-1425 430.33,-1425.95 431.17,-1426.87 432.04,-1427.77"/>
<polygon fill="#555555" stroke="#555555" points="429.4,-1430.1 439.15,-1434.23 434.1,-1424.92 429.4,-1430.1"/>
<text xml:space="preserve" text-anchor="middle" x="386.38" y="-668.45" font-family="Helvetica,sans-Serif" font-size="9.00">uses</text>
</g>
<!-- VF_017 -->
<g id="node17" class="node">
<title>VF_017</title>
<path fill="#e8f1ff" stroke="black" d="M254.38,-754C254.38,-754 104.88,-754 104.88,-754 98.88,-754 92.88,-748 92.88,-742 92.88,-742 92.88,-730 92.88,-730 92.88,-724 98.88,-718 104.88,-718 104.88,-718 254.38,-718 254.38,-718 260.38,-718 266.38,-724 266.38,-730 266.38,-730 266.38,-742 266.38,-742 266.38,-748 260.38,-754 254.38,-754"/>
<text xml:space="preserve" text-anchor="middle" x="179.62" y="-732.5" font-family="Helvetica,sans-Serif" font-size="10.00">VF&#45;017\nTimelineGreenBlueMarkers</text>
</g>
<!-- DF_014 -->
<g id="node32" class="node">
<title>DF_014</title>
<path fill="#e8f1ff" stroke="black" d="M1072.38,-2932C1072.38,-2932 941.62,-2932 941.62,-2932 935.62,-2932 929.62,-2926 929.62,-2920 929.62,-2920 929.62,-2908 929.62,-2908 929.62,-2902 935.62,-2896 941.62,-2896 941.62,-2896 1072.38,-2896 1072.38,-2896 1078.38,-2896 1084.38,-2902 1084.38,-2908 1084.38,-2908 1084.38,-2920 1084.38,-2920 1084.38,-2926 1078.38,-2932 1072.38,-2932"/>
<text xml:space="preserve" text-anchor="middle" x="1007" y="-2910.5" font-family="Helvetica,sans-Serif" font-size="10.00">DF&#45;014\nTimelineGreenMarkers</text>
</g>
<!-- VF_017&#45;&gt;DF_014 -->
<g id="edge48" class="edge">
<title>VF_017&#45;&gt;DF_014</title>
<path fill="none" stroke="#555555" d="M266.69,-736.14C293.15,-739.73 321.1,-747.47 343.25,-763 356.61,-772.37 351.92,-781.62 361.25,-795 380.95,-823.25 399.38,-821.76 411.5,-854 424.33,-888.12 405.36,-2138.69 429.5,-2166 490.16,-2234.6 780.11,-2159.66 836.25,-2232 880.89,-2289.52 806.73,-2831.84 854.25,-2887 870.16,-2905.46 893.95,-2914.21 918.01,-2917.81"/>
<polygon fill="#555555" stroke="#555555" points="917.59,-2921.29 927.93,-2918.98 918.4,-2914.33 917.59,-2921.29"/>
<text xml:space="preserve" text-anchor="middle" x="598.75" y="-2203.67" font-family="Helvetica,sans-Serif" font-size="9.00">data_flow</text>
</g>
<!-- DF_015 -->
<g id="node33" class="node">
<title>DF_015</title>
<path fill="#e8f1ff" stroke="black" d="M1069,-2986C1069,-2986 945,-2986 945,-2986 939,-2986 933,-2980 933,-2974 933,-2974 933,-2962 933,-2962 933,-2956 939,-2950 945,-2950 945,-2950 1069,-2950 1069,-2950 1075,-2950 1081,-2956 1081,-2962 1081,-2962 1081,-2974 1081,-2974 1081,-2980 1075,-2986 1069,-2986"/>
<text xml:space="preserve" text-anchor="middle" x="1007" y="-2964.5" font-family="Helvetica,sans-Serif" font-size="10.00">DF&#45;015\nTimelineBlueMarkers</text>
</g>
<!-- VF_017&#45;&gt;DF_015 -->
<g id="edge49" class="edge">
<title>VF_017&#45;&gt;DF_015</title>
<path fill="none" stroke="#555555" d="M266.86,-730.16C295.1,-732.95 324.1,-741.73 343.25,-763 350.01,-770.51 422.52,-2208.69 429.5,-2216 481.76,-2270.68 713.99,-2198.55 768,-2251.5 988.55,-2467.69 641.58,-2717.06 854.25,-2941 871.59,-2959.26 896.68,-2967.74 921.48,-2971.17"/>
<polygon fill="#555555" stroke="#555555" points="921.01,-2974.64 931.33,-2972.24 921.77,-2967.68 921.01,-2974.64"/>
<text xml:space="preserve" text-anchor="middle" x="598.75" y="-2253.45" font-family="Helvetica,sans-Serif" font-size="9.00">data_flow</text>
</g>
<!-- UC_016 -->
<g id="node61" class="node">
<title>UC_016</title>
<path fill="#e8f1ff" stroke="black" d="M747,-1524C747,-1524 450.5,-1524 450.5,-1524 444.5,-1524 438.5,-1518 438.5,-1512 438.5,-1512 438.5,-1500 438.5,-1500 438.5,-1494 444.5,-1488 450.5,-1488 450.5,-1488 747,-1488 747,-1488 753,-1488 759,-1494 759,-1500 759,-1500 759,-1512 759,-1512 759,-1518 753,-1524 747,-1524"/>
<text xml:space="preserve" text-anchor="middle" x="598.75" y="-1502.5" font-family="Helvetica,sans-Serif" font-size="10.00">UC&#45;016\nViews green detected markers on timeline, clicks to open sli</text>
</g>
<!-- VF_017&#45;&gt;UC_016 -->
<g id="edge47" class="edge">
<title>VF_017&#45;&gt;UC_016</title>
<path fill="none" stroke="#555555" d="M266.6,-728.7C317.68,-729.6 378.72,-741 411.5,-784.5 457.96,-846.15 378.67,-1420.9 429.5,-1479 429.67,-1479.19 429.84,-1479.39 430.01,-1479.58"/>
<polygon fill="#555555" stroke="#555555" points="427.57,-1482.08 437.18,-1486.54 432.44,-1477.06 427.57,-1482.08"/>
<text xml:space="preserve" text-anchor="middle" x="386.38" y="-786.45" font-family="Helvetica,sans-Serif" font-size="9.00">uses</text>
</g>
<!-- VF_018 -->
<g id="node18" class="node">
<title>VF_018</title>
<path fill="#e8f1ff" stroke="black" d="M234.5,-700C234.5,-700 124.75,-700 124.75,-700 118.75,-700 112.75,-694 112.75,-688 112.75,-688 112.75,-676 112.75,-676 112.75,-670 118.75,-664 124.75,-664 124.75,-664 234.5,-664 234.5,-664 240.5,-664 246.5,-670 246.5,-676 246.5,-676 246.5,-688 246.5,-688 246.5,-694 240.5,-700 234.5,-700"/>
<text xml:space="preserve" text-anchor="middle" x="179.62" y="-678.5" font-family="Helvetica,sans-Serif" font-size="10.00">VF&#45;018\nSmartSnapModes</text>
</g>
<!-- VF_018&#45;&gt;DF_015 -->
<g id="edge51" class="edge">
<title>VF_018&#45;&gt;DF_015</title>
<path fill="none" stroke="#555555" d="M246.96,-677.47C279.56,-678.77 317.31,-686.06 343.25,-709 364.42,-727.73 351.44,-743.49 361.25,-770 380.18,-821.17 399.7,-828.73 411.5,-882 419,-915.82 405.65,-2103.88 429.5,-2129 481.41,-2183.67 713.57,-2099.34 768,-2151.5 799.85,-2182.03 824.12,-2908.77 854.25,-2941 871.44,-2959.39 896.5,-2967.91 921.31,-2971.33"/>
<polygon fill="#555555" stroke="#555555" points="920.84,-2974.8 931.16,-2972.4 921.6,-2967.84 920.84,-2974.8"/>
<text xml:space="preserve" text-anchor="middle" x="598.75" y="-2153.45" font-family="Helvetica,sans-Serif" font-size="9.00">data_flow</text>
</g>
<!-- VF_018&#45;&gt;UC_016 -->
<g id="edge50" class="edge">
<title>VF_018&#45;&gt;UC_016</title>
<path fill="none" stroke="#555555" d="M246.79,-681.57C303.77,-685.36 381.42,-701.63 411.5,-759.5 429.94,-794.98 403.18,-1448.9 429.5,-1479 429.67,-1479.19 429.84,-1479.39 430.01,-1479.58"/>
<polygon fill="#555555" stroke="#555555" points="427.56,-1482.08 437.18,-1486.54 432.44,-1477.06 427.56,-1482.08"/>
<text xml:space="preserve" text-anchor="middle" x="386.38" y="-761.45" font-family="Helvetica,sans-Serif" font-size="9.00">uses</text>
</g>
<!-- DF_003 -->
<g id="node21" class="node">
<title>DF_003</title>
<path fill="#e8f1ff" stroke="black" d="M658.12,-2446C658.12,-2446 539.38,-2446 539.38,-2446 533.38,-2446 527.38,-2440 527.38,-2434 527.38,-2434 527.38,-2422 527.38,-2422 527.38,-2416 533.38,-2410 539.38,-2410 539.38,-2410 658.12,-2410 658.12,-2410 664.12,-2410 670.12,-2416 670.12,-2422 670.12,-2422 670.12,-2434 670.12,-2434 670.12,-2440 664.12,-2446 658.12,-2446"/>
<text xml:space="preserve" text-anchor="middle" x="598.75" y="-2424.5" font-family="Helvetica,sans-Serif" font-size="10.00">DF&#45;003\nLlmProcessPipeline</text>
</g>
<!-- DF_APP_01 -->
<g id="node34" class="node">
<title>DF_APP_01</title>
<path fill="#e8f1ff" stroke="black" d="M278.75,-2419C278.75,-2419 80.5,-2419 80.5,-2419 74.5,-2419 68.5,-2413 68.5,-2407 68.5,-2407 68.5,-2395 68.5,-2395 68.5,-2389 74.5,-2383 80.5,-2383 80.5,-2383 278.75,-2383 278.75,-2383 284.75,-2383 290.75,-2389 290.75,-2395 290.75,-2395 290.75,-2407 290.75,-2407 290.75,-2413 284.75,-2419 278.75,-2419"/>
<text xml:space="preserve" text-anchor="middle" x="179.62" y="-2397.5" font-family="Helvetica,sans-Serif" font-size="10.00">DF&#45;APP&#45;01\nRevisionSafeApplicationUseCase</text>
</g>
<!-- DF_CLI_ADAPTER -->
<g id="node35" class="node">
<title>DF_CLI_ADAPTER</title>
<path fill="#e8f1ff" stroke="black" d="M270.88,-2486C270.88,-2486 88.38,-2486 88.38,-2486 82.38,-2486 76.38,-2480 76.38,-2474 76.38,-2474 76.38,-2462 76.38,-2462 76.38,-2456 82.38,-2450 88.38,-2450 88.38,-2450 270.88,-2450 270.88,-2450 276.88,-2450 282.88,-2456 282.88,-2462 282.88,-2462 282.88,-2474 282.88,-2474 282.88,-2480 276.88,-2486 270.88,-2486"/>
<text xml:space="preserve" text-anchor="middle" x="179.62" y="-2464.5" font-family="Helvetica,sans-Serif" font-size="10.00">DF&#45;CLI&#45;ADAPTER\nCliApplicationDispatch</text>
</g>
<!-- DF_E2E_01 -->
<g id="node36" class="node">
<title>DF_E2E_01</title>
<path fill="#e8f1ff" stroke="black" d="M265.25,-2547C265.25,-2547 94,-2547 94,-2547 88,-2547 82,-2541 82,-2535 82,-2535 82,-2523 82,-2523 82,-2517 88,-2511 94,-2511 94,-2511 265.25,-2511 265.25,-2511 271.25,-2511 277.25,-2517 277.25,-2523 277.25,-2523 277.25,-2535 277.25,-2535 277.25,-2541 271.25,-2547 265.25,-2547"/>
<text xml:space="preserve" text-anchor="middle" x="179.62" y="-2525.5" font-family="Helvetica,sans-Serif" font-size="10.00">DF&#45;E2E&#45;01\nMcpWriteOperationLifecycle</text>
</g>
<!-- DF_E2E_02 -->
<g id="node37" class="node">
<title>DF_E2E_02</title>
<path fill="#e8f1ff" stroke="black" d="M253.25,-2604C253.25,-2604 106,-2604 106,-2604 100,-2604 94,-2598 94,-2592 94,-2592 94,-2580 94,-2580 94,-2574 100,-2568 106,-2568 106,-2568 253.25,-2568 253.25,-2568 259.25,-2568 265.25,-2574 265.25,-2580 265.25,-2580 265.25,-2592 265.25,-2592 265.25,-2598 259.25,-2604 253.25,-2604"/>
<text xml:space="preserve" text-anchor="middle" x="179.62" y="-2582.5" font-family="Helvetica,sans-Serif" font-size="10.00">DF&#45;E2E&#45;02\nCanonicalDetectStage</text>
</g>
<!-- DF_E2E_03 -->
<g id="node38" class="node">
<title>DF_E2E_03</title>
<path fill="#e8f1ff" stroke="black" d="M246.12,-2660C246.12,-2660 113.12,-2660 113.12,-2660 107.12,-2660 101.12,-2654 101.12,-2648 101.12,-2648 101.12,-2636 101.12,-2636 101.12,-2630 107.12,-2624 113.12,-2624 113.12,-2624 246.12,-2624 246.12,-2624 252.12,-2624 258.12,-2630 258.12,-2636 258.12,-2636 258.12,-2648 258.12,-2648 258.12,-2654 252.12,-2660 246.12,-2660"/>
<text xml:space="preserve" text-anchor="middle" x="179.62" y="-2638.5" font-family="Helvetica,sans-Serif" font-size="10.00">DF&#45;E2E&#45;03\nAutoPipelineModes</text>
</g>
<!-- DF_E2E_04 -->
<g id="node39" class="node">
<title>DF_E2E_04</title>
<path fill="#e8f1ff" stroke="black" d="M251.38,-2715C251.38,-2715 107.88,-2715 107.88,-2715 101.88,-2715 95.88,-2709 95.88,-2703 95.88,-2703 95.88,-2691 95.88,-2691 95.88,-2685 101.88,-2679 107.88,-2679 107.88,-2679 251.38,-2679 251.38,-2679 257.38,-2679 263.38,-2685 263.38,-2691 263.38,-2691 263.38,-2703 263.38,-2703 263.38,-2709 257.38,-2715 251.38,-2715"/>
<text xml:space="preserve" text-anchor="middle" x="179.62" y="-2693.5" font-family="Helvetica,sans-Serif" font-size="10.00">DF&#45;E2E&#45;04\nAutoAlignCoordinated</text>
</g>
<!-- DF_E2E_05 -->
<g id="node40" class="node">
<title>DF_E2E_05</title>
<path fill="#e8f1ff" stroke="black" d="M256.25,-2769C256.25,-2769 103,-2769 103,-2769 97,-2769 91,-2763 91,-2757 91,-2757 91,-2745 91,-2745 91,-2739 97,-2733 103,-2733 103,-2733 256.25,-2733 256.25,-2733 262.25,-2733 268.25,-2739 268.25,-2745 268.25,-2745 268.25,-2757 268.25,-2757 268.25,-2763 262.25,-2769 256.25,-2769"/>
<text xml:space="preserve" text-anchor="middle" x="179.62" y="-2747.5" font-family="Helvetica,sans-Serif" font-size="10.00">DF&#45;E2E&#45;05\nVerificationStepProtocol</text>
</g>
<!-- DF_GUI_PIPELINE -->
<g id="node41" class="node">
<title>DF_GUI_PIPELINE</title>
<path fill="#e8f1ff" stroke="black" d="M256.62,-2823C256.62,-2823 102.62,-2823 102.62,-2823 96.62,-2823 90.62,-2817 90.62,-2811 90.62,-2811 90.62,-2799 90.62,-2799 90.62,-2793 96.62,-2787 102.62,-2787 102.62,-2787 256.62,-2787 256.62,-2787 262.62,-2787 268.62,-2793 268.62,-2799 268.62,-2799 268.62,-2811 268.62,-2811 268.62,-2817 262.62,-2823 256.62,-2823"/>
<text xml:space="preserve" text-anchor="middle" x="179.62" y="-2801.5" font-family="Helvetica,sans-Serif" font-size="10.00">DF&#45;GUI&#45;PIPELINE\nGuiPipelineFlow</text>
</g>
<!-- DF_GUI_PROJECT -->
<g id="node42" class="node">
<title>DF_GUI_PROJECT</title>
<path fill="#e8f1ff" stroke="black" d="M255.5,-2877C255.5,-2877 103.75,-2877 103.75,-2877 97.75,-2877 91.75,-2871 91.75,-2865 91.75,-2865 91.75,-2853 91.75,-2853 91.75,-2847 97.75,-2841 103.75,-2841 103.75,-2841 255.5,-2841 255.5,-2841 261.5,-2841 267.5,-2847 267.5,-2853 267.5,-2853 267.5,-2865 267.5,-2865 267.5,-2871 261.5,-2877 255.5,-2877"/>
<text xml:space="preserve" text-anchor="middle" x="179.62" y="-2855.5" font-family="Helvetica,sans-Serif" font-size="10.00">DF&#45;GUI&#45;PROJECT\nGuiProjectFlow</text>
</g>
<!-- DF_GUI_TIMELINE -->
<g id="node43" class="node">
<title>DF_GUI_TIMELINE</title>
<path fill="#e8f1ff" stroke="black" d="M258.12,-2931C258.12,-2931 101.12,-2931 101.12,-2931 95.12,-2931 89.12,-2925 89.12,-2919 89.12,-2919 89.12,-2907 89.12,-2907 89.12,-2901 95.12,-2895 101.12,-2895 101.12,-2895 258.12,-2895 258.12,-2895 264.12,-2895 270.12,-2901 270.12,-2907 270.12,-2907 270.12,-2919 270.12,-2919 270.12,-2925 264.12,-2931 258.12,-2931"/>
<text xml:space="preserve" text-anchor="middle" x="179.62" y="-2909.5" font-family="Helvetica,sans-Serif" font-size="10.00">DF&#45;GUI&#45;TIMELINE\nGuiTimelineFlow</text>
</g>
<!-- DF_PERSIST_01 -->
<g id="node44" class="node">
<title>DF_PERSIST_01</title>
<path fill="#e8f1ff" stroke="black" d="M275,-2985C275,-2985 84.25,-2985 84.25,-2985 78.25,-2985 72.25,-2979 72.25,-2973 72.25,-2973 72.25,-2961 72.25,-2961 72.25,-2955 78.25,-2949 84.25,-2949 84.25,-2949 275,-2949 275,-2949 281,-2949 287,-2955 287,-2961 287,-2961 287,-2973 287,-2973 287,-2979 281,-2985 275,-2985"/>
<text xml:space="preserve" text-anchor="middle" x="179.62" y="-2963.5" font-family="Helvetica,sans-Serif" font-size="10.00">DF&#45;PERSIST&#45;01\nCanonicalProjectLoadSave</text>
</g>
<!-- Phase_20 -->
<g id="node45" class="node">
<title>Phase_20</title>
<path fill="#e8f1ff" stroke="black" d="M615.38,-2310C615.38,-2310 582.12,-2310 582.12,-2310 576.12,-2310 570.12,-2304 570.12,-2298 570.12,-2298 570.12,-2286 570.12,-2286 570.12,-2280 576.12,-2274 582.12,-2274 582.12,-2274 615.38,-2274 615.38,-2274 621.38,-2274 627.38,-2280 627.38,-2286 627.38,-2286 627.38,-2298 627.38,-2298 627.38,-2304 621.38,-2310 615.38,-2310"/>
<text xml:space="preserve" text-anchor="middle" x="598.75" y="-2288.5" font-family="Helvetica,sans-Serif" font-size="10.00">Phase&#45;20</text>
</g>
<!-- UC_001&#45;&gt;DF_001 -->
<g id="edge1" class="edge">
<title>UC_001&#45;&gt;DF_001</title>
<path fill="none" stroke="#555555" d="M1011.76,-930.49C1043.05,-1084.44 1260.18,-2152.85 1299.14,-2344.57"/>
<polygon fill="#555555" stroke="#555555" points="1295.68,-2345.1 1301.1,-2354.2 1302.54,-2343.7 1295.68,-2345.1"/>
<text xml:space="preserve" text-anchor="middle" x="1202.88" y="-1983.85" font-family="Helvetica,sans-Serif" font-size="9.00">related_flow</text>
</g>
<!-- UC_002&#45;&gt;DF_002 -->
<g id="edge2" class="edge">
<title>UC_002&#45;&gt;DF_002</title>
<path fill="none" stroke="#555555" d="M723.43,-1236.84C740.21,-1242.03 755.82,-1250.29 768,-1263 773.63,-1268.87 835.68,-1836.39 836.25,-1844.5 837.75,-1865.91 840.28,-2600.71 854.25,-2617 872.32,-2638.06 900.65,-2646.49 927.97,-2649.07"/>
<polygon fill="#555555" stroke="#555555" points="927.45,-2652.54 937.66,-2649.71 927.92,-2645.55 927.45,-2652.54"/>
<text xml:space="preserve" text-anchor="middle" x="811.12" y="-1846.45" font-family="Helvetica,sans-Serif" font-size="9.00">related_flow</text>
</g>
<!-- UC_003 -->
<g id="node48" class="node">
<title>UC_003</title>
<path fill="#e8f1ff" stroke="black" d="M269.38,-1200C269.38,-1200 89.88,-1200 89.88,-1200 83.88,-1200 77.88,-1194 77.88,-1188 77.88,-1188 77.88,-1176 77.88,-1176 77.88,-1170 83.88,-1164 89.88,-1164 89.88,-1164 269.38,-1164 269.38,-1164 275.38,-1164 281.38,-1170 281.38,-1176 281.38,-1176 281.38,-1188 281.38,-1188 281.38,-1194 275.38,-1200 269.38,-1200"/>
<text xml:space="preserve" text-anchor="middle" x="179.62" y="-1178.5" font-family="Helvetica,sans-Serif" font-size="10.00">UC&#45;003\nApplies &#45;&#45;debug flag during detect</text>
</g>
<!-- UC_004 -->
<g id="node49" class="node">
<title>UC_004</title>
<path fill="#e8f1ff" stroke="black" d="M331.25,-1578C331.25,-1578 28,-1578 28,-1578 22,-1578 16,-1572 16,-1566 16,-1566 16,-1554 16,-1554 16,-1548 22,-1542 28,-1542 28,-1542 331.25,-1542 331.25,-1542 337.25,-1542 343.25,-1548 343.25,-1554 343.25,-1554 343.25,-1566 343.25,-1566 343.25,-1572 337.25,-1578 331.25,-1578"/>
<text xml:space="preserve" text-anchor="middle" x="179.62" y="-1556.5" font-family="Helvetica,sans-Serif" font-size="10.00">UC&#45;004\nRuns video2pptx llm&#45;process with slides.json + slides images</text>
</g>
<!-- UC_004&#45;&gt;DF_003 -->
<g id="edge3" class="edge">
<title>UC_004&#45;&gt;DF_003</title>
<path fill="none" stroke="#555555" d="M183.39,-1578.44C200.64,-1691 297.12,-2284.64 429.5,-2401 452.85,-2421.52 485.37,-2429.75 515.61,-2432.31"/>
<polygon fill="#555555" stroke="#555555" points="515.35,-2435.8 525.55,-2432.94 515.79,-2428.82 515.35,-2435.8"/>
<text xml:space="preserve" text-anchor="middle" x="386.38" y="-2373.76" font-family="Helvetica,sans-Serif" font-size="9.00">related_flow</text>
</g>
<!-- UC_005&#45;&gt;DF_005 -->
<g id="edge4" class="edge">
<title>UC_005&#45;&gt;DF_005</title>
<path fill="none" stroke="#555555" d="M757.83,-1307.95C761.42,-1310.68 764.83,-1313.69 768,-1317 779.31,-1328.8 835.11,-1885.19 836.25,-1901.5 837.74,-1922.83 840.33,-2654.77 854.25,-2671 870.95,-2690.46 896.4,-2699.14 921.72,-2702.37"/>
<polygon fill="#555555" stroke="#555555" points="921.13,-2705.83 931.42,-2703.32 921.81,-2698.86 921.13,-2705.83"/>
<text xml:space="preserve" text-anchor="middle" x="811.12" y="-1903.45" font-family="Helvetica,sans-Serif" font-size="9.00">related_flow</text>
</g>
<!-- UC_006&#45;&gt;DF_004 -->
<g id="edge5" class="edge">
<title>UC_006&#45;&gt;DF_004</title>
<path fill="none" stroke="#555555" d="M737.82,-1188.31C749.05,-1193.32 759.38,-1200.06 768,-1209 790.69,-1232.53 774.64,-1324.35 786,-1355 800.01,-1392.8 824.28,-1392.01 836.25,-1430.5 845.59,-1460.54 833.85,-2539.04 854.25,-2563 874.17,-2586.4 906.75,-2594.24 936.63,-2595.77"/>
<polygon fill="#555555" stroke="#555555" points="936.31,-2599.26 946.4,-2596.03 936.5,-2592.26 936.31,-2599.26"/>
<text xml:space="preserve" text-anchor="middle" x="811.12" y="-1432.45" font-family="Helvetica,sans-Serif" font-size="9.00">related_flow</text>
</g>
<!-- UC_008&#45;&gt;DF_007 -->
<g id="edge6" class="edge">
<title>UC_008&#45;&gt;DF_007</title>
<path fill="none" stroke="#555555" d="M709.31,-1125.14C731.35,-1129.74 752.49,-1138.73 768,-1155 792.84,-1181.06 773.47,-1282.25 786,-1316 799.77,-1353.1 824.26,-1351.79 836.25,-1389.5 845.67,-1419.14 834.09,-2485.32 854.25,-2509 874.25,-2532.48 907.01,-2540.29 936.98,-2541.78"/>
<polygon fill="#555555" stroke="#555555" points="936.7,-2545.28 946.78,-2542.03 936.87,-2538.28 936.7,-2545.28"/>
<text xml:space="preserve" text-anchor="middle" x="811.12" y="-1391.45" font-family="Helvetica,sans-Serif" font-size="9.00">related_flow</text>
</g>
<!-- UC_009&#45;&gt;DF_008 -->
<g id="edge7" class="edge">
<title>UC_009&#45;&gt;DF_008</title>
<path fill="none" stroke="#555555" d="M755.06,-1089.83C759.69,-1093.1 764.03,-1096.81 768,-1101 794.28,-1128.74 772.22,-1236.36 786,-1272 799.61,-1307.22 824.21,-1304.71 836.25,-1340.5 846.12,-1369.85 834.18,-2431.43 854.25,-2455 873.4,-2477.48 904.23,-2485.6 933.12,-2487.56"/>
<polygon fill="#555555" stroke="#555555" points="932.85,-2491.05 942.98,-2487.97 933.14,-2484.05 932.85,-2491.05"/>
<text xml:space="preserve" text-anchor="middle" x="811.12" y="-1342.45" font-family="Helvetica,sans-Serif" font-size="9.00">related_flow</text>
</g>
<!-- UC_010&#45;&gt;DF_009 -->
<g id="edge8" class="edge">
<title>UC_010&#45;&gt;DF_009</title>
<path fill="none" stroke="#555555" d="M757.53,-1037.64C761.24,-1040.45 764.74,-1043.56 768,-1047 794.13,-1074.57 774.01,-1180.95 786,-1217 799.79,-1258.46 824.32,-1259.46 836.25,-1301.5 844.59,-1330.89 834.44,-2377.75 854.25,-2401 874.41,-2424.66 907.51,-2432.41 937.67,-2433.81"/>
<polygon fill="#555555" stroke="#555555" points="937.46,-2437.31 947.54,-2434.03 937.62,-2430.31 937.46,-2437.31"/>
<text xml:space="preserve" text-anchor="middle" x="811.12" y="-1303.45" font-family="Helvetica,sans-Serif" font-size="9.00">related_flow</text>
</g>
<!-- UC_011&#45;&gt;DF_010 -->
<g id="edge9" class="edge">
<title>UC_011&#45;&gt;DF_010</title>
<path fill="none" stroke="#555555" d="M742.2,-974.35C751.74,-979.11 760.51,-985.22 768,-993 790.98,-1016.87 777.35,-1109.02 786,-1141 800.72,-1195.43 823.45,-1202.58 836.25,-1257.5 872.06,-1411.14 834.79,-1455.45 854.25,-1612 890.1,-1900.45 973.12,-2243.21 998.5,-2344.47"/>
<polygon fill="#555555" stroke="#555555" points="995.09,-2345.29 1000.93,-2354.13 1001.88,-2343.58 995.09,-2345.29"/>
<text xml:space="preserve" text-anchor="middle" x="811.12" y="-1259.45" font-family="Helvetica,sans-Serif" font-size="9.00">related_flow</text>
</g>
<!-- UC_013&#45;&gt;DF_011 -->
<g id="edge10" class="edge">
<title>UC_013&#45;&gt;DF_011</title>
<path fill="none" stroke="#555555" d="M759.2,-1416.44C762.32,-1419.04 765.26,-1421.89 768,-1425 808.13,-1470.54 763.73,-1914.53 786,-1971 798.45,-2002.57 823.94,-1996.87 836.25,-2028.5 851.37,-2067.37 827.08,-2747.35 854.25,-2779 870.65,-2798.1 895.49,-2806.81 920.36,-2810.19"/>
<polygon fill="#555555" stroke="#555555" points="919.94,-2813.66 930.25,-2811.22 920.67,-2806.7 919.94,-2813.66"/>
<text xml:space="preserve" text-anchor="middle" x="811.12" y="-2030.45" font-family="Helvetica,sans-Serif" font-size="9.00">related_flow</text>
</g>
<!-- UC_014&#45;&gt;DF_012 -->
<g id="edge11" class="edge">
<title>UC_014&#45;&gt;DF_012</title>
<path fill="none" stroke="#555555" d="M752.28,-1357.2C758.02,-1361.1 763.31,-1365.67 768,-1371 788.79,-1394.62 774.48,-1907.73 786,-1937 798.43,-1968.58 823.93,-1962.88 836.25,-1994.5 850.98,-2032.33 827.8,-2694.21 854.25,-2725 870.66,-2744.1 895.5,-2752.81 920.37,-2756.18"/>
<polygon fill="#555555" stroke="#555555" points="919.95,-2759.66 930.26,-2757.22 920.67,-2752.69 919.95,-2759.66"/>
<text xml:space="preserve" text-anchor="middle" x="811.12" y="-1996.45" font-family="Helvetica,sans-Serif" font-size="9.00">related_flow</text>
</g>
<!-- UC_015&#45;&gt;DF_013 -->
<g id="edge12" class="edge">
<title>UC_015&#45;&gt;DF_013</title>
<path fill="none" stroke="#555555" d="M757.17,-1468.8C761.05,-1471.84 764.67,-1475.23 768,-1479 806.69,-1522.85 764.52,-1950.61 786,-2005 798.47,-2036.57 823.95,-2030.87 836.25,-2062.5 851.76,-2102.41 826.37,-2800.5 854.25,-2833 873.71,-2855.68 905.07,-2863.71 934.24,-2865.56"/>
<polygon fill="#555555" stroke="#555555" points="934.08,-2869.05 944.2,-2865.93 934.34,-2862.06 934.08,-2869.05"/>
<text xml:space="preserve" text-anchor="middle" x="811.12" y="-2064.45" font-family="Helvetica,sans-Serif" font-size="9.00">related_flow</text>
</g>
<!-- UC_016&#45;&gt;DF_014 -->
<g id="edge13" class="edge">
<title>UC_016&#45;&gt;DF_014</title>
<path fill="none" stroke="#555555" d="M759.19,-1524.45C762.31,-1527.05 765.26,-1529.9 768,-1533 786.62,-1554.08 780.44,-2011.43 786,-2039 798.45,-2100.74 824.12,-2109.7 836.25,-2171.5 843.91,-2210.52 828.33,-2856.84 854.25,-2887 870.13,-2905.48 893.92,-2914.23 917.98,-2917.83"/>
<polygon fill="#555555" stroke="#555555" points="917.56,-2921.31 927.9,-2919 918.38,-2914.36 917.56,-2921.31"/>
<text xml:space="preserve" text-anchor="middle" x="811.12" y="-2173.45" font-family="Helvetica,sans-Serif" font-size="9.00">related_flow</text>
</g>
<!-- UC_016&#45;&gt;DF_015 -->
<g id="edge14" class="edge">
<title>UC_016&#45;&gt;DF_015</title>
<path fill="none" stroke="#555555" d="M759.2,-1524.44C762.32,-1527.05 765.26,-1529.89 768,-1533 787.85,-1555.52 779.75,-2043.64 786,-2073 798.35,-2130.96 824.17,-2138.49 836.25,-2196.5 844.68,-2237 827.3,-2909.61 854.25,-2941 870.88,-2960.37 896.18,-2969.05 921.39,-2972.32"/>
<polygon fill="#555555" stroke="#555555" points="920.74,-2975.77 931.04,-2973.28 921.43,-2968.81 920.74,-2975.77"/>
<text xml:space="preserve" text-anchor="middle" x="811.12" y="-2198.45" font-family="Helvetica,sans-Serif" font-size="9.00">related_flow</text>
</g>
<!-- UC_017 -->
<g id="node62" class="node">
<title>UC_017</title>
<path fill="#e8f1ff" stroke="black" d="M323,-1524C323,-1524 36.25,-1524 36.25,-1524 30.25,-1524 24.25,-1518 24.25,-1512 24.25,-1512 24.25,-1500 24.25,-1500 24.25,-1494 30.25,-1488 36.25,-1488 36.25,-1488 323,-1488 323,-1488 329,-1488 335,-1494 335,-1500 335,-1500 335,-1512 335,-1512 335,-1518 329,-1524 323,-1524"/>
<text xml:space="preserve" text-anchor="middle" x="179.62" y="-1502.5" font-family="Helvetica,sans-Serif" font-size="10.00">UC&#45;017\nChooses analysis quality in Project Settings (fast / detaile</text>
</g>
<!-- UC_017&#45;&gt;Phase_20 -->
<g id="edge15" class="edge">
<title>UC_017&#45;&gt;Phase_20</title>
<path fill="none" stroke="#555555" d="M333.76,-1524.48C337.11,-1527.06 340.29,-1529.89 343.25,-1533 345.01,-1534.84 427.77,-2258.14 429.5,-2260 462.03,-2294.88 519.85,-2298.61 558.5,-2296.54"/>
<polygon fill="#555555" stroke="#555555" points="558.59,-2300.04 568.32,-2295.84 558.09,-2293.06 558.59,-2300.04"/>
<text xml:space="preserve" text-anchor="middle" x="386.38" y="-2104.45" font-family="Helvetica,sans-Serif" font-size="9.00">related_flow</text>
</g>
</g>
</svg>
